<?xml version="1.0" encoding="UTF-8" standalone="no"?>
<svg
   xmlns:dc="http://purl.org/dc/elements/1.1/"
   xmlns:cc="http://creativecommons.org/ns#"
   xmlns:rdf="http://www.w3.org/1999/02/22-rdf-syntax-ns#"
   xmlns:svg="http://www.w3.org/2000/svg"
   xmlns="http://www.w3.org/2000/svg"
   xmlns:sodipodi="http://sodipodi.sourceforge.net/DTD/sodipodi-0.dtd"
   xmlns:inkscape="http://www.inkscape.org/namespaces/inkscape"
   version="1.1"
   width="15.512008in"
   height="9.1148119in"
   viewBox="0 0 155119.99 91148.07"
   id="svg2190"
   sodipodi:docname="kbie-mkf-laser-2.svg"
   inkscape:version="0.92.3 (2405546, 2018-03-11)">
  <metadata
     id="metadata2196">
    <rdf:RDF>
      <cc:Work
         rdf:about="">
        <dc:format>image/svg+xml</dc:format>
        <dc:type
           rdf:resource="http://purl.org/dc/dcmitype/StillImage" />
        <dc:title>SVG Picture created as keyboard2018-brd.svg date 2018/09/11 23:26:01 </dc:title>
      </cc:Work>
    </rdf:RDF>
  </metadata>
  <defs
     id="defs2194" />
  <sodipodi:namedview
     pagecolor="#1f1f1f"
     bordercolor="#666666"
     borderopacity="1"
     objecttolerance="10"
     gridtolerance="10"
     guidetolerance="10"
     inkscape:pageopacity="0"
     inkscape:pageshadow="2"
     inkscape:window-width="2560"
     inkscape:window-height="1389"
     id="namedview2192"
     showgrid="false"
     inkscape:zoom="1.7947"
     inkscape:cx="507.2114"
     inkscape:cy="264.31025"
     inkscape:window-x="0"
     inkscape:window-y="25"
     inkscape:window-maximized="1"
     inkscape:current-layer="svg2190"
     units="in"
     fit-margin-top="1"
     fit-margin-right="1"
     fit-margin-bottom="1"
     fit-margin-left="1"
     inkscape:measure-start="86.0884,141.248"
     inkscape:measure-end="182.421,141.248" />
  <title
     id="title2">SVG Picture created as keyboard2018-brd.svg date 2018/09/11 23:26:01 </title>
  <desc
     id="desc4">Picture generated by PCBNEW </desc>
  <g
     style="fill:#000000;fill-opacity:1;stroke:#000000;stroke-linecap:round;stroke-linejoin:round;stroke-opacity:1"
     id="g6"
     transform="translate(16848.861,5962.7703)" />
  <g
     style="fill:#000000;fill-opacity:0;stroke:#000000;stroke-width:-0.0003937;stroke-linecap:round;stroke-linejoin:round;stroke-opacity:1"
     id="g8"
     transform="translate(16848.861,5962.7703)" />
  <g
     style="fill:#da39c4;fill-opacity:0;stroke:#da39c4;stroke-width:-0.0003937;stroke-linecap:round;stroke-linejoin:round;stroke-opacity:1"
     id="g10"
     transform="translate(16848.861,5962.7703)" />
  <g
     style="fill:#da39c4;fill-opacity:0;stroke:#da39c4;stroke-width:118.11000061;stroke-linecap:round;stroke-linejoin:round;stroke-opacity:1"
     id="g524"
     transform="translate(16848.861,5962.7703)">
    <path
       d="m 55659.16,4097.12 h -113 l -56,28 -28,28 -56,85 -28,112 v 225 l 28,56 28,29 56,28 h 113 l 56,-28 28,-29 28,-56 v -140 l -28,-57 -28,-28 -56,-28 h -113 l -56,28 -28,28 -28,57"
       id="path194"
       inkscape:connector-curvature="0" />
    <path
       d="m 55968.16,4688.12 v -394"
       id="path196"
       inkscape:connector-curvature="0" />
    <path
       d="m 55968.16,4350.12 28,-28 57,-28 h 84 l 56,28 28,56 v 310"
       id="path198"
       inkscape:connector-curvature="0" />
    <path
       d="m 56221.16,4378.12 29,-56 56,-28 h 84 l 56,28 28,56 v 310"
       id="path200"
       inkscape:connector-curvature="0" />
    <path
       d="m 56756.16,4688.12 v -394"
       id="path202"
       inkscape:connector-curvature="0" />
    <path
       d="m 56756.16,4350.12 28,-28 56,-28 h 84 l 57,28 28,56 v 310"
       id="path204"
       inkscape:connector-curvature="0" />
    <path
       d="m 57009.16,4378.12 28,-56 56,-28 h 85 l 56,28 28,56 v 310"
       id="path206"
       inkscape:connector-curvature="0" />
    <path
       d="m 57909.16,4294.12 h 225"
       id="path208"
       inkscape:connector-curvature="0" />
    <path
       d="m 57993.16,4097.12 v 506 l 28,57 56,28 h 57"
       id="path210"
       inkscape:connector-curvature="0" />
    <path
       d="m 58331.16,4688.12 v -394"
       id="path212"
       inkscape:connector-curvature="0" />
    <path
       d="m 58331.16,4406.12 28,-56 28,-28 56,-28 h 56"
       id="path214"
       inkscape:connector-curvature="0" />
    <path
       d="m 58949.16,4688.12 v -310 l -28,-56 -56,-28 h -113 l -56,28"
       id="path216"
       inkscape:connector-curvature="0" />
    <path
       d="m 58949.16,4660.12 -56,28 h -141 l -56,-28 -28,-57 v -56 l 28,-56 56,-28 h 141 l 56,-28"
       id="path218"
       inkscape:connector-curvature="0" />
    <path
       d="m 59230.16,4294.12 v 394"
       id="path220"
       inkscape:connector-curvature="0" />
    <path
       d="m 59230.16,4350.12 29,-28 56,-28 h 84 l 56,28 28,56 v 310"
       id="path222"
       inkscape:connector-curvature="0" />
    <path
       d="m 59737.16,4660.12 56,28 h 112 l 57,-28 28,-57 v -28 l -28,-56 -57,-28 h -84 l -56,-28 -28,-57 v -28 l 28,-56 56,-28 h 84 l 57,28"
       id="path224"
       inkscape:connector-curvature="0" />
    <path
       d="m 60243.16,4294.12 v 591"
       id="path226"
       inkscape:connector-curvature="0" />
    <path
       d="m 60243.16,4322.12 56,-28 h 113 l 56,28 28,28 28,56 v 169 l -28,56 -28,29 -56,28 h -113 l -56,-28"
       id="path228"
       inkscape:connector-curvature="0" />
    <path
       d="m 61030.16,4688.12 v -310 l -28,-56 -56,-28 h -113 l -56,28"
       id="path230"
       inkscape:connector-curvature="0" />
    <path
       d="m 61030.16,4660.12 -56,28 h -141 l -56,-28 -28,-57 v -56 l 28,-56 56,-28 h 141 l 56,-28"
       id="path232"
       inkscape:connector-curvature="0" />
    <path
       d="m 61311.16,4688.12 v -394"
       id="path234"
       inkscape:connector-curvature="0" />
    <path
       d="m 61311.16,4406.12 29,-56 28,-28 56,-28 h 56"
       id="path236"
       inkscape:connector-curvature="0" />
    <path
       d="m 61902.16,4660.12 -56,28 h -113 l -56,-28 -28,-57 v -225 l 28,-56 56,-28 h 113 l 56,28 28,56 v 57 l -281,56"
       id="path238"
       inkscape:connector-curvature="0" />
    <path
       d="m 62183.16,4294.12 v 394"
       id="path240"
       inkscape:connector-curvature="0" />
    <path
       d="m 62183.16,4350.12 28,-28 57,-28 h 84 l 56,28 28,56 v 310"
       id="path242"
       inkscape:connector-curvature="0" />
    <path
       d="m 62633.16,4294.12 h 225"
       id="path244"
       inkscape:connector-curvature="0" />
    <path
       d="m 62717.16,4097.12 v 506 l 29,57 56,28 h 56"
       id="path246"
       inkscape:connector-curvature="0" />
    <path
       d="m 63758.16,4660.12 -56,28 h -113 l -56,-28 -28,-29 -28,-56 v -169 l 28,-56 28,-28 56,-28 h 113 l 56,28"
       id="path248"
       inkscape:connector-curvature="0" />
    <path
       d="m 64264.16,4688.12 v -310 l -28,-56 -56,-28 h -113 l -56,28"
       id="path250"
       inkscape:connector-curvature="0" />
    <path
       d="m 64264.16,4660.12 -56,28 h -141 l -56,-28 -28,-57 v -56 l 28,-56 56,-28 h 141 l 56,-28"
       id="path252"
       inkscape:connector-curvature="0" />
    <path
       d="m 64517.16,4660.12 56,28 h 113 l 56,-28 28,-57 v -28 l -28,-56 -56,-28 h -84 l -57,-28 -28,-57 v -28 l 28,-56 57,-28 h 84 l 56,28"
       id="path254"
       inkscape:connector-curvature="0" />
    <path
       d="m 64939.16,4294.12 h 225"
       id="path256"
       inkscape:connector-curvature="0" />
    <path
       d="m 65023.16,4097.12 v 506 l 29,57 56,28 h 56"
       id="path258"
       inkscape:connector-curvature="0" />
    <path
       d="m 66064.16,4688.12 v -310 l -28,-56 -56,-28 h -113 l -56,28"
       id="path260"
       inkscape:connector-curvature="0" />
    <path
       d="m 66064.16,4660.12 -56,28 h -141 l -56,-28 -28,-57 v -56 l 28,-56 56,-28 h 141 l 56,-28"
       id="path262"
       inkscape:connector-curvature="0" />
    <path
       d="m 66598.16,4660.12 -56,28 h -112 l -57,-28 -28,-29 -28,-56 v -169 l 28,-56 28,-28 57,-28 h 112 l 56,28"
       id="path264"
       inkscape:connector-curvature="0" />
    <path
       d="m 66851.16,4688.12 v -394"
       id="path266"
       inkscape:connector-curvature="0" />
    <path
       d="m 66851.16,4406.12 28,-56 29,-28 56,-28 h 56"
       id="path268"
       inkscape:connector-curvature="0" />
    <path
       d="m 67161.16,4294.12 140,394"
       id="path270"
       inkscape:connector-curvature="0" />
    <path
       d="m 67442.16,4294.12 -141,394 -56,140 -28,28 -56,29"
       id="path272"
       inkscape:connector-curvature="0" />
    <path
       d="m 67751.16,4688.12 -56,-28 -28,-57 v -506"
       id="path274"
       inkscape:connector-curvature="0" />
    <path
       d="m 67976.16,4688.12 v -394"
       id="path276"
       inkscape:connector-curvature="0" />
    <path
       d="m 67976.16,4097.12 -28,28 28,28 28,-28 -28,-28 v 56"
       id="path278"
       inkscape:connector-curvature="0" />
    <path
       d="m 68510.16,4660.12 -56,28 h -112 l -56,-28 -29,-29 -28,-56 v -169 l 28,-56 29,-28 56,-28 h 112 l 56,28"
       id="path280"
       inkscape:connector-curvature="0" />
    <path
       d="m -2974.2359,73305.649 h 113 l 56,28 56,56 29,113 v 197 l -29,112 -56,57 -56,28 h -113 l -56,-28 -56,-57 -28,-112 v -197 l 28,-113 56,-56 56,-28"
       id="path386"
       inkscape:connector-curvature="0" />
    <path
       d="m -2467.2359,73502.649 v 394"
       id="path388"
       inkscape:connector-curvature="0" />
    <path
       d="m -2467.2359,73558.649 28,-28 56,-28 h 84 l 57,28 28,56 v 310"
       id="path390"
       inkscape:connector-curvature="0" />
    <path
       d="m -1708.2359,73868.649 -56,28 h -113 l -56,-28 -28,-57 v -225 l 28,-56 56,-28 h 113 l 56,28 28,56 v 57 l -281,56"
       id="path392"
       inkscape:connector-curvature="0" />
    <path
       d="m -1427.2359,73671.649 h 449.99998"
       id="path394"
       inkscape:connector-curvature="0" />
    <path
       d="m -696.23592,73896.649 v -394"
       id="path396"
       inkscape:connector-curvature="0" />
    <path
       d="m -696.23592,73305.649 -28,28 28,28 28,-28 -28,-28 v 56"
       id="path398"
       inkscape:connector-curvature="0" />
    <path
       d="m -415.23592,73502.649 v 394"
       id="path400"
       inkscape:connector-curvature="0" />
    <path
       d="m -415.23592,73558.649 29,-28 56,-28 h 84 l 56,28 29,56 v 310"
       id="path402"
       inkscape:connector-curvature="0" />
    <path
       d="m 372.76408,73868.649 -56,28 h -113 l -56,-28 -28,-29 -27.999996,-56 v -169 l 27.999996,-56 28,-28 56,-28 h 113 l 56,28"
       id="path404"
       inkscape:connector-curvature="0" />
    <path
       d="m 625.76408,73896.649 v -591"
       id="path406"
       inkscape:connector-curvature="0" />
    <path
       d="m 878.76408,73896.649 v -310 l -28,-56 -56,-28 h -85 l -56,28 -28,28"
       id="path408"
       inkscape:connector-curvature="0" />
    <path
       d="m 1581.7641,73868.649 56,28 h 113 l 56,-28 28,-57 v -28 l -28,-56 -56,-28 h -85 l -56,-28 -28,-57 v -28 l 28,-56 56,-28 h 85 l 56,28"
       id="path410"
       inkscape:connector-curvature="0" />
    <path
       d="m 2340.7641,73502.649 v 591"
       id="path412"
       inkscape:connector-curvature="0" />
    <path
       d="m 2340.7641,73868.649 -56,28 h -112 l -57,-28 -28,-29 -28,-56 v -169 l 28,-56 28,-28 57,-28 h 112 l 56,28"
       id="path414"
       inkscape:connector-curvature="0" />
    <path
       d="m 2875.7641,73502.649 v 394"
       id="path416"
       inkscape:connector-curvature="0" />
    <path
       d="m 2622.7641,73502.649 v 309 l 28,57 56,28 h 84 l 57,-28 28,-29"
       id="path418"
       inkscape:connector-curvature="0" />
    <path
       d="m 3409.7641,73896.649 v -310 l -28,-56 -56,-28 h -113 l -56,28"
       id="path420"
       inkscape:connector-curvature="0" />
    <path
       d="m 3409.7641,73868.649 -56,28 h -141 l -56,-28 -28,-57 v -56 l 28,-56 56,-28 h 141 l 56,-28"
       id="path422"
       inkscape:connector-curvature="0" />
    <path
       d="m 3690.7641,73896.649 v -394"
       id="path424"
       inkscape:connector-curvature="0" />
    <path
       d="m 3690.7641,73614.649 28,-56 28,-28 57,-28 h 56"
       id="path426"
       inkscape:connector-curvature="0" />
    <path
       d="m 4281.7641,73868.649 -56,28 h -113 l -56,-28 -28,-57 v -225 l 28,-56 56,-28 h 113 l 56,28 28,56 v 57 l -281,56"
       id="path428"
       inkscape:connector-curvature="0" />
    <path
       d="m 4984.7641,73868.649 56,28 h 113 l 56,-28 28,-57 v -28 l -28,-56 -56,-28 h -85 l -56,-28 -28,-57 v -28 l 28,-56 56,-28 h 85 l 56,28"
       id="path430"
       inkscape:connector-curvature="0" />
    <path
       d="m 5490.7641,73896.649 v -394"
       id="path432"
       inkscape:connector-curvature="0" />
    <path
       d="m 5490.7641,73305.649 -28,28 28,28 28,-28 -28,-28 v 56"
       id="path434"
       inkscape:connector-curvature="0" />
    <path
       d="m 5715.7641,73502.649 h 309 l -309,394 h 309"
       id="path436"
       inkscape:connector-curvature="0" />
    <path
       d="m 6474.7641,73868.649 -56,28 h -112 l -57,-28 -28,-57 v -225 l 28,-56 57,-28 h 112 l 56,28 28,56 v 57 l -281,56"
       id="path438"
       inkscape:connector-curvature="0" />
    <path
       d="m 7205.7641,73896.649 v -394"
       id="path440"
       inkscape:connector-curvature="0" />
    <path
       d="m 7205.7641,73614.649 29,-56 28,-28 56,-28 h 56"
       id="path442"
       inkscape:connector-curvature="0" />
    <path
       d="m 7796.7641,73868.649 -56,28 h -113 l -56,-28 -28,-57 v -225 l 28,-56 56,-28 h 113 l 56,28 28,56 v 57 l -281,56"
       id="path444"
       inkscape:connector-curvature="0" />
    <path
       d="m 7993.7641,73502.649 h 225"
       id="path446"
       inkscape:connector-curvature="0" />
    <path
       d="m 8077.7641,73896.649 v -507 l 28,-56 57,-28 h 56"
       id="path448"
       inkscape:connector-curvature="0" />
    <path
       d="m 8640.7641,73868.649 -57,28 h -112 l -56,-28 -28,-57 v -225 l 28,-56 56,-28 h 112 l 57,28 28,56 v 57 l -281,56"
       id="path450"
       inkscape:connector-curvature="0" />
    <path
       d="m 8921.7641,73896.649 v -394"
       id="path452"
       inkscape:connector-curvature="0" />
    <path
       d="m 8921.7641,73614.649 28,-56 28,-28 56,-28 h 57"
       id="path454"
       inkscape:connector-curvature="0" />
    <path
       d="m 9511.7641,73868.649 -56,28 h -112 l -57,-28 -28,-57 v -225 l 28,-56 57,-28 h 112 l 56,28 28,56 v 57 l -281,56"
       id="path456"
       inkscape:connector-curvature="0" />
    <path
       d="m 9793.7641,73502.649 v 394"
       id="path458"
       inkscape:connector-curvature="0" />
    <path
       d="m 9793.7641,73558.649 28,-28 56,-28 h 84 l 56.9999,28 28,56 v 310"
       id="path460"
       inkscape:connector-curvature="0" />
    <path
       d="m 10580.764,73868.649 -56,28 h -113 l -56,-28 -28,-29 -28,-56 v -169 l 28,-56 28,-28 56,-28 h 113 l 56,28"
       id="path462"
       inkscape:connector-curvature="0" />
    <path
       d="m 11058.764,73868.649 -56,28 h -113 l -56,-28 -28,-57 v -225 l 28,-56 56,-28 h 113 l 56,28 28,56 v 57 l -281,56"
       id="path464"
       inkscape:connector-curvature="0" />
    <path
       d="m -1089.2359,75125.649 -29,-29 -56,-84 -28,-56 -28,-84 -28,-141 v -113 l 28,-140 28,-85 28,-56 56,-84 29,-28"
       id="path466"
       inkscape:connector-curvature="0" />
    <path
       d="m -611.23592,74900.649 v -591"
       id="path468"
       inkscape:connector-curvature="0" />
    <path
       d="m -611.23592,74872.649 -57,28 h -112 l -56,-28 -28,-29 -29,-56 v -169 l 29,-56 28,-28 56,-28 h 112 l 57,28"
       id="path470"
       inkscape:connector-curvature="0" />
    <path
       d="m -246.23592,74900.649 -56,-28 -28,-29 -28,-56 v -169 l 28,-56 28,-28 56,-28 h 85 l 56,28 28.000004,28 28,56 v 169 l -28,56 -28.000004,29 -56,28 h -85"
       id="path472"
       inkscape:connector-curvature="0" />
    <path
       d="m 653.76408,74506.649 v 394"
       id="path474"
       inkscape:connector-curvature="0" />
    <path
       d="m 653.76408,74562.649 28,-28 56,-28 h 85 l 56,28 28,56 v 310"
       id="path476"
       inkscape:connector-curvature="0" />
    <path
       d="m 1272.7641,74900.649 -56,-28 -29,-29 -28,-56 v -169 l 28,-56 29,-28 56,-28 h 84 l 56,28 29,28 28,56 v 169 l -28,56 -29,29 -56,28 h -84"
       id="path478"
       inkscape:connector-curvature="0" />
    <path
       d="m 1637.7641,74506.649 h 225"
       id="path480"
       inkscape:connector-curvature="0" />
    <path
       d="m 1722.7641,74309.649 v 506 l 28,57 56,28 h 56"
       id="path482"
       inkscape:connector-curvature="0" />
    <path
       d="m 2762.7641,74872.649 -56,28 h -113 l -56,-28 -28,-29 -28,-56 v -169 l 28,-56 28,-28 56,-28 h 113 l 56,28"
       id="path484"
       inkscape:connector-curvature="0" />
    <path
       d="m 3268.7641,74506.649 v 394"
       id="path486"
       inkscape:connector-curvature="0" />
    <path
       d="m 3015.7641,74506.649 v 309 l 28,57 57,28 h 84 l 56,-28 28,-29"
       id="path488"
       inkscape:connector-curvature="0" />
    <path
       d="m 3465.7641,74506.649 h 225"
       id="path490"
       inkscape:connector-curvature="0" />
    <path
       d="m 3550.7641,74309.649 v 506 l 28,57 56,28 h 56"
       id="path492"
       inkscape:connector-curvature="0" />
    <path
       d="m 4421.7641,74900.649 -56,-28 -28,-29 -28,-56 v -169 l 28,-56 28,-28 56,-28 h 85 l 56,28 28,28 28,56 v 169 l -28,56 -28,29 -56,28 h -85"
       id="path494"
       inkscape:connector-curvature="0" />
    <path
       d="m 4871.7641,74900.649 v -394"
       id="path496"
       inkscape:connector-curvature="0" />
    <path
       d="m 4871.7641,74618.649 28,-56 29,-28 56,-28 h 56"
       id="path498"
       inkscape:connector-curvature="0" />
    <path
       d="m 5912.7641,74872.649 -56,28 h -113 l -56,-28 -28,-57 v -225 l 28,-56 56,-28 h 113 l 56,28 28,56 v 57 l -281,56"
       id="path500"
       inkscape:connector-curvature="0" />
    <path
       d="m 6193.7641,74506.649 v 394"
       id="path502"
       inkscape:connector-curvature="0" />
    <path
       d="m 6193.7641,74562.649 28,-28 56,-28 h 85 l 56,28 28,56 v 310"
       id="path504"
       inkscape:connector-curvature="0" />
    <path
       d="m 6980.7641,74506.649 v 478 l -28,56 -28,28 -56,28 h -84 l -57,-28"
       id="path506"
       inkscape:connector-curvature="0" />
    <path
       d="m 6980.7641,74872.649 -56,28 h -112 l -57,-28 -28,-29 -28,-56 v -169 l 28,-56 28,-28 57,-28 h 112 l 56,28"
       id="path508"
       inkscape:connector-curvature="0" />
    <path
       d="m 7262.7641,74900.649 v -394"
       id="path510"
       inkscape:connector-curvature="0" />
    <path
       d="m 7262.7641,74618.649 28,-56 28,-28 56,-28 h 56"
       id="path512"
       inkscape:connector-curvature="0" />
    <path
       d="m 7880.7641,74900.649 v -310 l -28,-56 -56,-28 h -113 l -56,28"
       id="path514"
       inkscape:connector-curvature="0" />
    <path
       d="m 7880.7641,74872.649 -56,28 h -141 l -56,-28 -28,-57 v -56 l 28,-56 56,-28 h 141 l 56,-28"
       id="path516"
       inkscape:connector-curvature="0" />
    <path
       d="m 8105.7641,74506.649 141,394 141,-394"
       id="path518"
       inkscape:connector-curvature="0" />
    <path
       d="m 8836.7641,74872.649 -56,28 h -112 l -57,-28 -28,-57 v -225 l 28,-56 57,-28 h 112 l 56,28 29,56 v 57 l -282,56"
       id="path520"
       inkscape:connector-curvature="0" />
    <path
       d="m 9061.7641,75125.649 29,-29 56,-84 28,-56 28,-84 28,-141 v -113 l -28,-140 -28,-85 -28,-56 -56,-84 -29,-28"
       id="path522"
       inkscape:connector-curvature="0" />
  </g>
  <g
     style="fill:#da39c4;fill-opacity:0;stroke:#da39c4;stroke-width:20;stroke-linecap:round;stroke-linejoin:round;stroke-opacity:1"
     id="g534"
     transform="translate(-74972.374,8284.4193)">
    <path
       d="M 100810,60810 H 90810"
       id="path526"
       inkscape:connector-curvature="0" />
    <path
       d="M 100810,70810 V 60810"
       id="path528"
       inkscape:connector-curvature="0" />
    <path
       d="m 90810,70810 h 10000"
       id="path530"
       inkscape:connector-curvature="0" />
    <path
       d="M 90810,60810 V 70810"
       id="path532"
       inkscape:connector-curvature="0" />
  </g>
  <g
     style="fill:#000000;fill-opacity:0;stroke:#000000;stroke-width:20;stroke-linecap:round;stroke-linejoin:round;stroke-opacity:1"
     id="g536"
     transform="translate(16848.861,5962.7703)" />
  <g
     style="fill:#2659e6;fill-opacity:0;stroke:#2659e6;stroke-width:20;stroke-linecap:round;stroke-linejoin:round;stroke-opacity:1"
     id="g654"
     transform="translate(9999.9952,15481.533)">
    <path
       d="m 87060,4310 h 40750"
       id="path538"
       inkscape:connector-curvature="0" />
    <path
       d="M 80560,43310 H 54560"
       id="path540"
       inkscape:connector-curvature="0" />
    <path
       d="M 48060,43310 H 7310"
       id="path542"
       inkscape:connector-curvature="0" />
    <path
       d="m 61310,10 h 70750"
       id="path548"
       inkscape:connector-curvature="0" />
    <path
       d="M 61310,4310 H 80560"
       id="path550"
       inkscape:connector-curvature="0" />
    <path
       d="M 61310,10.0004 A 750,750 0 0 0 60560,760"
       id="path554"
       inkscape:connector-curvature="0" />
    <path
       d="M 55310,760 A 750,750 0 0 0 54560,10.0004"
       id="path556"
       inkscape:connector-curvature="0" />
    <path
       d="M 55310,3560 V 760"
       id="path558"
       inkscape:connector-curvature="0" />
    <path
       d="M 60560,3560 V 760"
       id="path560"
       inkscape:connector-curvature="0" />
    <path
       d="m 60560,3560 a 750,750 0 0 0 750,750"
       id="path562"
       inkscape:connector-curvature="0" />
    <path
       d="m 54560,4310 a 750,750 0 0 0 750,-750"
       id="path564"
       inkscape:connector-curvature="0" />
    <path
       d="M 86310,5310 V 5060"
       id="path566"
       inkscape:connector-curvature="0" />
    <path
       d="m 82060,6060 h 3500"
       id="path568"
       inkscape:connector-curvature="0" />
    <path
       d="m 81310,5060 v 250"
       id="path570"
       inkscape:connector-curvature="0" />
    <path
       d="m 53810,5060 v 250"
       id="path572"
       inkscape:connector-curvature="0" />
    <path
       d="m 49560,6060 h 3500"
       id="path574"
       inkscape:connector-curvature="0" />
    <path
       d="m 48810,5060 v 250"
       id="path576"
       inkscape:connector-curvature="0" />
    <path
       d="m 48810,42310 v 250"
       id="path578"
       inkscape:connector-curvature="0" />
    <path
       d="M 53060,41560 H 49560"
       id="path580"
       inkscape:connector-curvature="0" />
    <path
       d="m 53810,42310 v 250"
       id="path582"
       inkscape:connector-curvature="0" />
    <path
       d="m 86310,42310 v 250"
       id="path584"
       inkscape:connector-curvature="0" />
    <path
       d="m 82060,41560 h 3500"
       id="path586"
       inkscape:connector-curvature="0" />
    <path
       d="m 81310,42310 v 250"
       id="path588"
       inkscape:connector-curvature="0" />
    <path
       d="m 86310,42310 a 750,750 0 0 0 -750,-750"
       id="path590"
       inkscape:connector-curvature="0" />
    <path
       d="m 80560,43310 a 750,750 0 0 0 750,-750"
       id="path592"
       inkscape:connector-curvature="0" />
    <path
       d="m 86310,42560 a 750,750 0 0 0 750,750"
       id="path594"
       inkscape:connector-curvature="0" />
    <path
       d="m 82060,41560 a 750,750 0 0 0 -750,750"
       id="path596"
       inkscape:connector-curvature="0" />
    <path
       d="m 53810,42560 a 750,750 0 0 0 750,750"
       id="path598"
       inkscape:connector-curvature="0" />
    <path
       d="m 53810,42310 a 750,750 0 0 0 -750,-750"
       id="path600"
       inkscape:connector-curvature="0" />
    <path
       d="m 49560,41560 a 750,750 0 0 0 -750,750"
       id="path602"
       inkscape:connector-curvature="0" />
    <path
       d="m 48060,43310 a 750,750 0 0 0 750,-750"
       id="path604"
       inkscape:connector-curvature="0" />
    <path
       d="m 81310,5060 a 750,750 0 0 0 -750,-750"
       id="path606"
       inkscape:connector-curvature="0" />
    <path
       d="m 81310,5310 a 750,750 0 0 0 750,750"
       id="path608"
       inkscape:connector-curvature="0" />
    <path
       d="m 85560,6060 a 750,750 0 0 0 750,-750"
       id="path610"
       inkscape:connector-curvature="0" />
    <path
       d="m 87060,4310 a 750,750 0 0 0 -750,750"
       id="path612"
       inkscape:connector-curvature="0" />
    <path
       d="m 54560,4310 a 750,750 0 0 0 -750,750"
       id="path614"
       inkscape:connector-curvature="0" />
    <path
       d="m 53060,6060 a 750,750 0 0 0 750,-750"
       id="path616"
       inkscape:connector-curvature="0" />
    <path
       d="m 48810,5310 a 750,750 0 0 0 750,750"
       id="path618"
       inkscape:connector-curvature="0" />
    <path
       d="m 48810,5060 a 750,750 0 0 0 -750,-750"
       id="path620"
       inkscape:connector-curvature="0" />
    <path
       d="M 135110,3060 A 3050,3050 0 0 0 132060,10.0004"
       id="path622"
       inkscape:connector-curvature="0" />
    <path
       d="m 132060,47610 a 3050,3050 0 0 0 3050,-3050"
       id="path624"
       inkscape:connector-curvature="0" />
    <path
       d="M 10.0004,44560 A 3050,3050 0 0 0 3060,47610"
       id="path626"
       inkscape:connector-curvature="0" />
    <path
       d="M 3060,10.0004 A 3050,3050 0 0 0 10.0004,3060"
       id="path628"
       inkscape:connector-curvature="0" />
    <path
       d="M 4310,40310 V 7310"
       id="path630"
       inkscape:connector-curvature="0" />
    <path
       d="M 127810,43310 H 87060"
       id="path632"
       inkscape:connector-curvature="0" />
    <path
       d="M 130810,7310 V 40310"
       id="path634"
       inkscape:connector-curvature="0" />
    <path
       d="M 7310,4310 H 48060"
       id="path636"
       inkscape:connector-curvature="0" />
    <path
       d="M 7310,4310 A 3000,3000 0 0 0 4310,7310"
       id="path638"
       inkscape:connector-curvature="0" />
    <path
       d="M 130810,7310 A 3000,3000 0 0 0 127810,4310"
       id="path640"
       inkscape:connector-curvature="0" />
    <path
       d="m 127810,43310 a 3000,3000 0 0 0 3000,-3000"
       id="path642"
       inkscape:connector-curvature="0" />
    <path
       d="m 4310,40310 a 3000,3000 0 0 0 3000,3000"
       id="path644"
       inkscape:connector-curvature="0" />
    <path
       d="M 3060,10 H 54560"
       id="path646"
       inkscape:connector-curvature="0" />
    <path
       d="M 10,44560 V 3060"
       id="path648"
       inkscape:connector-curvature="0" />
    <path
       d="M 132060,47610 H 3060"
       id="path650"
       inkscape:connector-curvature="0" />
    <path
       d="M 135110,3060 V 44560"
       id="path652"
       inkscape:connector-curvature="0" />
  </g>
  <g
     style="fill:#2659e6;fill-opacity:0;stroke:#2659e6;stroke-width:118.11000061;stroke-linecap:round;stroke-linejoin:round;stroke-opacity:1"
     id="g696"
     transform="translate(-74972.374,8284.4193)">
    <path
       d="m 105571.74,65479.062 v -591"
       id="path656"
       inkscape:connector-curvature="0" />
    <path
       d="m 105571.74,65113.062 56,-28 h 113 l 56,28 28,28 28,56 v 169 l -28,56 -28,29 -56,28 h -113 l -56,-28"
       id="path658"
       inkscape:connector-curvature="0" />
    <path
       d="m 106190.74,65479.062 -57,-28 -28,-57 v -506"
       id="path660"
       inkscape:connector-curvature="0" />
    <path
       d="m 106668.74,65085.062 v 394"
       id="path662"
       inkscape:connector-curvature="0" />
    <path
       d="m 106415.74,65085.062 v 309 l 28,57 56,28 h 84 l 56,-28 29,-29"
       id="path664"
       inkscape:connector-curvature="0" />
    <path
       d="m 107174.74,65451.062 -56,28 h -113 l -56,-28 -28,-57 v -225 l 28,-56 56,-28 h 113 l 56,28 28,56 v 57 l -281,56"
       id="path666"
       inkscape:connector-curvature="0" />
    <path
       d="m 107989.74,65479.062 -56,-28 -28,-57 v -506"
       id="path668"
       inkscape:connector-curvature="0" />
    <path
       d="m 108214.74,65479.062 v -394"
       id="path670"
       inkscape:connector-curvature="0" />
    <path
       d="m 108214.74,64888.062 -28,28 28,28 28,-28 -28,-28 v 56"
       id="path672"
       inkscape:connector-curvature="0" />
    <path
       d="m 108496.74,65085.062 v 394"
       id="path674"
       inkscape:connector-curvature="0" />
    <path
       d="m 108496.74,65141.062 28,-28 56,-28 h 84 l 56,28 29,56 v 310"
       id="path676"
       inkscape:connector-curvature="0" />
    <path
       d="m 109255.74,65451.062 -56,28 h -113 l -56,-28 -28,-57 v -225 l 28,-56 56,-28 h 113 l 56,28 28,56 v 57 l -281,56"
       id="path678"
       inkscape:connector-curvature="0" />
    <path
       d="m 109508.74,65451.062 56,28 h 113 l 56,-28 28,-57 v -28 l -28,-56 -56,-28 h -85 l -56,-28 -28,-57 v -28 l 28,-56 56,-28 h 85 l 56,28"
       id="path680"
       inkscape:connector-curvature="0" />
    <path
       d="m 110014.74,65422.062 28,29 -28,28 -28,-28 28,-29 v 57"
       id="path682"
       inkscape:connector-curvature="0" />
    <path
       d="m 110014.74,65113.062 28,28 -28,28 -28,-28 28,-28 v 56"
       id="path684"
       inkscape:connector-curvature="0" />
    <path
       d="m 110998.74,65451.062 -56,28 h -112 l -57,-28 -28,-29 -28,-56 v -169 l 28,-56 28,-28 57,-28 h 112 l 56,28"
       id="path686"
       inkscape:connector-curvature="0" />
    <path
       d="m 111505.74,65085.062 v 394"
       id="path688"
       inkscape:connector-curvature="0" />
    <path
       d="m 111251.74,65085.062 v 309 l 29,57 56,28 h 84 l 56,-28 29,-29"
       id="path690"
       inkscape:connector-curvature="0" />
    <path
       d="m 111701.74,65085.062 h 225"
       id="path692"
       inkscape:connector-curvature="0" />
    <path
       d="m 111786.74,64888.062 v 506 l 28,57 56,28 h 56"
       id="path694"
       inkscape:connector-curvature="0" />
  </g>
  <g
     style="fill:#2659e6;fill-opacity:0;stroke:#2659e6;stroke-width:20;stroke-linecap:round;stroke-linejoin:round;stroke-opacity:1"
     id="g1994"
     transform="translate(9999.9952,15481.533)">
    <circle
       cx="51310"
       cy="3060"
       r="679.92102"
       id="circle698" />
    <circle
       cx="83810"
       cy="3060"
       r="679.92102"
       id="circle700" />
    <circle
       cx="83810"
       cy="44560"
       r="679.92102"
       id="circle702" />
    <circle
       cx="132060"
       cy="3060"
       r="679.92102"
       id="circle704" />
    <circle
       cx="132060"
       cy="44560"
       r="679.92102"
       id="circle706" />
    <circle
       cx="3060"
       cy="44560"
       r="679.92102"
       id="circle708" />
    <circle
       cx="3060"
       cy="3060"
       r="679.92102"
       id="circle710" />
    <circle
       cx="51310"
       cy="44560"
       r="679.92102"
       id="circle712" />
  </g>
  <g
     style="fill:#000000;fill-opacity:0;stroke:#000000;stroke-width:20;stroke-linecap:round;stroke-linejoin:round;stroke-opacity:1"
     id="g1996"
     transform="translate(16848.861,5962.7703)" />
</svg>
