M48
;DRILL file {KiCad 5.0.0-fee4fd1~66~ubuntu18.04.1} date Wed Sep 12 00:22:37 2018
;FORMAT={-:-/ absolute / inch / decimal}
FMAT,2
INCH,TZ
T1C0.0118
T2C0.0300
T3C0.0315
T4C0.0354
T5C0.0390
T6C0.0394
T7C0.0591
%
G90
G05
M72
T1
X3.2992Y-7.125
X4.7992Y-7.15
X6.2992Y-7.175
X6.75Y-4.675
X7.025Y-4.65
X7.05Y-4.6
X7.225Y-4.3
X7.225Y-5.025
X7.25Y-4.4
X7.25Y-5.1
X7.3Y-4.2
X7.3Y-4.3
X7.675Y-4.175
X7.725Y-4.425
X8.0492Y-7.2
X9.5492Y-7.225
X9.9Y-4.786
X9.925Y-4.664
X9.95Y-4.0862
X9.975Y-3.9
X10.2Y-7.125
X10.225Y-7.15
X10.25Y-7.175
X10.275Y-7.2
X10.3Y-7.225
X10.325Y-7.125
X10.35Y-7.15
X10.45Y-6.3
X10.475Y-6.9
X10.5Y-7.
X12.0492Y-7.15
X13.5492Y-7.125
T2
X7.15Y-3.8
X7.15Y-3.9
X7.15Y-4.
X7.15Y-4.1
T3
X11.125Y-4.175
X11.125Y-4.575
X9.375Y-4.175
X9.375Y-4.575
X12.625Y-4.175
X12.625Y-4.575
X6.95Y-3.8
X6.95Y-4.2
X7.15Y-4.2
X7.15Y-4.2984
X10.1Y-4.325
X10.1Y-4.425
X10.1Y-4.525
X10.1Y-4.625
X10.1Y-4.725
X10.1Y-4.825
X10.1Y-4.925
X10.1Y-5.025
X10.1Y-5.125
X10.1Y-5.225
X10.1Y-5.325
X10.1Y-5.425
X10.1Y-5.525
X10.1Y-5.625
X10.4Y-4.325
X10.4Y-4.425
X10.4Y-4.525
X10.4Y-4.625
X10.4Y-4.725
X10.4Y-4.825
X10.4Y-4.925
X10.4Y-5.025
X10.4Y-5.125
X10.4Y-5.225
X10.4Y-5.325
X10.4Y-5.425
X10.4Y-5.525
X10.4Y-5.625
X6.85Y-4.425
X6.85Y-4.525
X6.85Y-4.625
X6.85Y-4.725
X6.85Y-4.825
X6.85Y-4.925
X6.85Y-5.025
X7.15Y-4.425
X7.15Y-4.525
X7.15Y-4.625
X7.15Y-4.725
X7.15Y-4.825
X7.15Y-4.925
X7.15Y-5.025
X4.625Y-4.175
X4.625Y-4.575
X6.84Y-4.2016
X6.84Y-4.3
X9.8766Y-5.125
X9.975Y-5.125
X7.875Y-4.175
X7.875Y-4.575
X14.125Y-4.175
X14.125Y-4.575
X6.125Y-4.175
X6.125Y-4.575
X3.125Y-4.175
X3.125Y-4.575
T4
X3.35Y-5.125
X3.65Y-5.125
X7.35Y-5.125
X7.65Y-5.125
X12.1Y-7.375
X12.4Y-7.375
X8.1Y-5.875
X8.4Y-5.875
X8.85Y-6.625
X9.15Y-6.625
X12.1Y-6.625
X12.4Y-6.625
X10.6Y-7.375
X10.9Y-7.375
X13.6Y-6.625
X13.9Y-6.625
X6.35Y-4.375
X6.65Y-4.375
X13.6Y-5.875
X13.9Y-5.875
X9.45Y-5.125
X9.75Y-5.125
X2.6Y-6.625
X2.9Y-6.625
X8.1Y-5.125
X8.4Y-5.125
X9.6Y-5.875
X9.9Y-5.875
X14.35Y-7.375
X14.65Y-7.375
X12.1Y-5.125
X12.4Y-5.125
X4.85Y-4.375
X5.15Y-4.375
X12.85Y-5.875
X13.15Y-5.875
X2.6Y-5.875
X2.9Y-5.875
X5.6Y-4.375
X5.9Y-4.375
X12.85Y-7.375
X13.15Y-7.375
X14.35Y-6.625
X14.65Y-6.625
X3.35Y-5.875
X3.65Y-5.875
X3.35Y-7.375
X3.65Y-7.375
X8.85Y-7.375
X9.15Y-7.375
X4.85Y-6.625
X5.15Y-6.625
X10.6Y-5.125
X10.9Y-5.125
X4.1Y-6.625
X4.4Y-6.625
X14.35Y-4.375
X14.65Y-4.375
X9.6Y-4.375
X9.9Y-4.375
X4.1Y-4.375
X4.4Y-4.375
X13.6Y-4.375
X13.9Y-4.375
X4.1Y-7.375
X4.4Y-7.375
X11.35Y-5.875
X11.65Y-5.875
X9.6Y-6.625
X9.9Y-6.625
X4.85Y-5.875
X5.15Y-5.875
X2.6Y-5.125
X2.9Y-5.125
X6.35Y-6.625
X6.65Y-6.625
X14.35Y-5.875
X14.65Y-5.875
X12.1Y-4.375
X12.4Y-4.375
X8.1Y-7.375
X8.4Y-7.375
X12.85Y-5.125
X13.15Y-5.125
X7.35Y-6.625
X7.65Y-6.625
X11.35Y-7.375
X11.65Y-7.375
X5.6Y-5.125
X5.9Y-5.125
X10.6Y-4.375
X10.9Y-4.375
X5.6Y-6.625
X5.9Y-6.625
X8.85Y-4.375
X9.15Y-4.375
X7.35Y-5.875
X7.65Y-5.875
X12.85Y-6.625
X13.15Y-6.625
X3.35Y-4.375
X3.65Y-4.375
X10.6Y-6.625
X10.9Y-6.625
X12.85Y-4.375
X13.15Y-4.375
X14.35Y-5.125
X14.65Y-5.125
X10.6Y-5.875
X10.9Y-5.875
X8.85Y-5.875
X9.15Y-5.875
X6.35Y-5.125
X6.65Y-5.125
X5.6Y-5.875
X5.9Y-5.875
X7.35Y-4.375
X7.65Y-4.375
X4.1Y-5.125
X4.4Y-5.125
X8.85Y-5.125
X9.15Y-5.125
X11.35Y-4.375
X11.65Y-4.375
X13.6Y-7.375
X13.9Y-7.375
X6.35Y-7.375
X6.65Y-7.375
X8.1Y-6.625
X8.4Y-6.625
X4.1Y-5.875
X4.4Y-5.875
X13.6Y-5.125
X13.9Y-5.125
X4.85Y-7.375
X5.15Y-7.375
X11.35Y-6.625
X11.65Y-6.625
X2.6Y-4.375
X2.9Y-4.375
X4.85Y-5.125
X5.15Y-5.125
X11.35Y-5.125
X11.65Y-5.125
X7.35Y-7.375
X7.65Y-7.375
X8.1Y-4.375
X8.4Y-4.375
X2.6Y-7.375
X2.9Y-7.375
X9.6Y-7.375
X9.9Y-7.375
X3.35Y-6.625
X3.65Y-6.625
X5.6Y-7.375
X5.9Y-7.375
X12.1Y-5.875
X12.4Y-5.875
X6.35Y-5.875
X6.65Y-5.875
T5
X6.875Y-5.475
X6.875Y-5.6522
X7.1309Y-5.475
X7.1309Y-5.6522
T6
X7.125Y-5.2
X6.875Y-5.2
X6.8Y-5.875
X6.9Y-5.875
X7.Y-5.875
X7.1Y-5.875
X7.2Y-5.875
X7.Y-5.2
T7
X4.85Y-6.15
X5.1Y-6.05
X11.35Y-3.9
X11.6Y-3.8
X3.35Y-4.65
X3.6Y-4.55
X8.85Y-4.65
X9.1Y-4.55
X14.35Y-5.4
X14.6Y-5.3
X13.6Y-3.9
X13.85Y-3.8
X4.1Y-6.9
X4.35Y-6.8
X13.6Y-6.9
X13.85Y-6.8
X4.85Y-6.9
X5.1Y-6.8
X8.1Y-5.4
X8.35Y-5.3
X10.6Y-4.65
X10.85Y-4.55
X13.6Y-6.15
X13.85Y-6.05
X13.6Y-5.4
X13.85Y-5.3
X2.6Y-3.9
X2.85Y-3.8
X12.1Y-5.4
X12.35Y-5.3
X8.1Y-3.9
X8.35Y-3.8
X12.1Y-3.9
X12.35Y-3.8
X8.85Y-6.9
X9.1Y-6.8
X10.6Y-6.15
X10.85Y-6.05
X7.35Y-3.9
X7.6Y-3.8
X5.6Y-4.65
X5.85Y-4.55
X9.6Y-4.65
X9.85Y-4.55
X3.35Y-6.9
X3.6Y-6.8
X10.6Y-5.4
X10.85Y-5.3
X12.1Y-4.65
X12.35Y-4.55
X14.35Y-6.15
X14.6Y-6.05
X12.85Y-3.9
X13.1Y-3.8
X8.1Y-4.65
X8.35Y-4.55
X6.35Y-5.4
X6.6Y-5.3
X8.85Y-3.9
X9.1Y-3.8
X7.35Y-4.65
X7.6Y-4.55
X12.1Y-6.15
X12.35Y-6.05
X12.85Y-4.65
X13.1Y-4.55
X5.6Y-3.9
X5.85Y-3.8
X14.35Y-3.9
X14.6Y-3.8
X2.6Y-5.4
X2.85Y-5.3
X5.6Y-5.4
X5.85Y-5.3
X3.35Y-6.15
X3.6Y-6.05
X6.35Y-6.15
X6.6Y-6.05
X12.85Y-6.9
X13.1Y-6.8
X4.1Y-4.65
X4.35Y-4.55
X10.6Y-6.9
X10.85Y-6.8
X12.85Y-6.15
X13.1Y-6.05
X14.35Y-6.9
X14.6Y-6.8
X10.6Y-3.9
X10.85Y-3.8
X11.35Y-6.15
X11.6Y-6.05
X7.35Y-6.9
X7.6Y-6.8
X9.6Y-6.9
X9.85Y-6.8
X4.85Y-3.9
X5.1Y-3.8
X9.6Y-3.9
X9.85Y-3.8
X2.6Y-4.65
X2.85Y-4.55
X8.85Y-6.15
X9.1Y-6.05
X4.1Y-5.4
X4.35Y-5.3
X11.35Y-6.9
X11.6Y-6.8
X6.35Y-3.9
X6.6Y-3.8
X4.85Y-4.65
X5.1Y-4.55
X14.35Y-4.65
X14.6Y-4.55
X4.85Y-5.4
X5.1Y-5.3
X11.35Y-4.65
X11.6Y-4.55
X7.35Y-6.15
X7.6Y-6.05
X8.1Y-6.15
X8.35Y-6.05
X5.6Y-6.15
X5.85Y-6.05
X8.1Y-6.9
X8.35Y-6.8
X4.1Y-6.15
X4.35Y-6.05
X6.35Y-4.65
X6.6Y-4.55
X9.6Y-5.4
X9.85Y-5.3
X3.35Y-5.4
X3.6Y-5.3
X6.35Y-6.9
X6.6Y-6.8
X8.85Y-5.4
X9.1Y-5.3
X13.6Y-4.65
X13.85Y-4.55
X12.1Y-6.9
X12.35Y-6.8
X4.1Y-3.9
X4.35Y-3.8
X5.6Y-6.9
X5.85Y-6.8
X12.85Y-5.4
X13.1Y-5.3
X11.35Y-5.4
X11.6Y-5.3
X9.6Y-6.15
X9.85Y-6.05
X2.6Y-6.9
X2.85Y-6.8
X3.35Y-3.9
X3.6Y-3.8
X7.35Y-5.4
X7.6Y-5.3
X2.6Y-6.15
X2.85Y-6.05
T0
M30
