%TF.GenerationSoftware,KiCad,Pcbnew,5.0.0-fee4fd1~66~ubuntu18.04.1*%
%TF.CreationDate,2018-09-12T00:22:08-07:00*%
%TF.ProjectId,keyboard2018,6B6579626F617264323031382E6B6963,rev?*%
%TF.SameCoordinates,Original*%
%TF.FileFunction,Soldermask,Bot*%
%TF.FilePolarity,Negative*%
%FSLAX46Y46*%
G04 Gerber Fmt 4.6, Leading zero omitted, Abs format (unit mm)*
G04 Created by KiCad (PCBNEW 5.0.0-fee4fd1~66~ubuntu18.04.1) date Wed Sep 12 00:22:08 2018*
%MOMM*%
%LPD*%
G01*
G04 APERTURE LIST*
%ADD10C,0.050800*%
%ADD11C,3.301600*%
%ADD12C,4.101600*%
%ADD13C,2.301600*%
%ADD14O,1.901600X1.901600*%
%ADD15R,1.901600X1.901600*%
%ADD16O,1.701600X1.701600*%
%ADD17R,1.701600X1.701600*%
%ADD18C,1.625600*%
%ADD19C,1.601600*%
%ADD20C,5.181600*%
%ADD21C,1.701600*%
%ADD22O,1.801600X1.801600*%
%ADD23R,1.801600X1.801600*%
G04 APERTURE END LIST*
D10*
X47625000Y-86995000D02*
G75*
G02X55245000Y-79375000I7620000J0D01*
G01*
X55245000Y-200025000D02*
G75*
G02X47625000Y-192405000I0J7620000D01*
G01*
X390525000Y-192405000D02*
G75*
G02X382905000Y-200025000I-7620000J0D01*
G01*
X382905000Y-79375000D02*
G75*
G02X390525000Y-86995000I0J-7620000D01*
G01*
X382905000Y-79375000D02*
X55245000Y-79375000D01*
X390525000Y-192405000D02*
X390525000Y-86995000D01*
X55245000Y-200025000D02*
X382905000Y-200025000D01*
X47625000Y-86995000D02*
X47625000Y-192405000D01*
D11*
X177800000Y-86995000D03*
X260350000Y-86995000D03*
X260350000Y-192405000D03*
X382905000Y-86995000D03*
X382905000Y-192405000D03*
X55245000Y-192405000D03*
X55245000Y-86995000D03*
X177800000Y-192405000D03*
D12*
X165100000Y-101600000D03*
D13*
X161290000Y-99060000D03*
X167640000Y-96520000D03*
D12*
X247650000Y-177800000D03*
D13*
X243840000Y-175260000D03*
X250190000Y-172720000D03*
D12*
X209550000Y-120650000D03*
D13*
X205740000Y-118110000D03*
X212090000Y-115570000D03*
D12*
X247650000Y-120650000D03*
D13*
X243840000Y-118110000D03*
X250190000Y-115570000D03*
D12*
X368300000Y-101600000D03*
D13*
X364490000Y-99060000D03*
X370840000Y-96520000D03*
D12*
X69850000Y-177800000D03*
D13*
X66040000Y-175260000D03*
X72390000Y-172720000D03*
D12*
X88900000Y-177800000D03*
D13*
X85090000Y-175260000D03*
X91440000Y-172720000D03*
D12*
X107950000Y-177800000D03*
D13*
X104140000Y-175260000D03*
X110490000Y-172720000D03*
D12*
X127000000Y-177800000D03*
D13*
X123190000Y-175260000D03*
X129540000Y-172720000D03*
D12*
X146050000Y-177800000D03*
D13*
X142240000Y-175260000D03*
X148590000Y-172720000D03*
D12*
X190500000Y-177800000D03*
D13*
X186690000Y-175260000D03*
X193040000Y-172720000D03*
D12*
X209550000Y-177800000D03*
D13*
X205740000Y-175260000D03*
X212090000Y-172720000D03*
D12*
X228600000Y-177800000D03*
D13*
X224790000Y-175260000D03*
X231140000Y-172720000D03*
D12*
X273050000Y-177800000D03*
D13*
X269240000Y-175260000D03*
X275590000Y-172720000D03*
D12*
X292100000Y-177800000D03*
D13*
X288290000Y-175260000D03*
X294640000Y-172720000D03*
D12*
X311150000Y-177800000D03*
D13*
X307340000Y-175260000D03*
X313690000Y-172720000D03*
D12*
X330200000Y-177800000D03*
D13*
X326390000Y-175260000D03*
X332740000Y-172720000D03*
D12*
X349250000Y-177800000D03*
D13*
X345440000Y-175260000D03*
X351790000Y-172720000D03*
D12*
X368300000Y-177800000D03*
D13*
X364490000Y-175260000D03*
X370840000Y-172720000D03*
D12*
X69850000Y-158750000D03*
D13*
X66040000Y-156210000D03*
X72390000Y-153670000D03*
D12*
X88900000Y-158750000D03*
D13*
X85090000Y-156210000D03*
X91440000Y-153670000D03*
D12*
X107950000Y-158750000D03*
D13*
X104140000Y-156210000D03*
X110490000Y-153670000D03*
D12*
X127000000Y-158750000D03*
D13*
X123190000Y-156210000D03*
X129540000Y-153670000D03*
D12*
X146050000Y-158750000D03*
D13*
X142240000Y-156210000D03*
X148590000Y-153670000D03*
D12*
X190500000Y-158750000D03*
D13*
X186690000Y-156210000D03*
X193040000Y-153670000D03*
D12*
X209550000Y-158750000D03*
D13*
X205740000Y-156210000D03*
X212090000Y-153670000D03*
D12*
X228600000Y-158750000D03*
D13*
X224790000Y-156210000D03*
X231140000Y-153670000D03*
D12*
X247650000Y-158750000D03*
D13*
X243840000Y-156210000D03*
X250190000Y-153670000D03*
D12*
X273050000Y-158750000D03*
D13*
X269240000Y-156210000D03*
X275590000Y-153670000D03*
D12*
X292100000Y-158750000D03*
D13*
X288290000Y-156210000D03*
X294640000Y-153670000D03*
D12*
X311150000Y-158750000D03*
D13*
X307340000Y-156210000D03*
X313690000Y-153670000D03*
D12*
X330200000Y-158750000D03*
D13*
X326390000Y-156210000D03*
X332740000Y-153670000D03*
D12*
X349250000Y-158750000D03*
D13*
X345440000Y-156210000D03*
X351790000Y-153670000D03*
D12*
X368300000Y-158750000D03*
D13*
X364490000Y-156210000D03*
X370840000Y-153670000D03*
D12*
X69850000Y-139700000D03*
D13*
X66040000Y-137160000D03*
X72390000Y-134620000D03*
D12*
X88900000Y-139700000D03*
D13*
X85090000Y-137160000D03*
X91440000Y-134620000D03*
D12*
X107950000Y-139700000D03*
D13*
X104140000Y-137160000D03*
X110490000Y-134620000D03*
D12*
X127000000Y-139700000D03*
D13*
X123190000Y-137160000D03*
X129540000Y-134620000D03*
D12*
X146050000Y-139700000D03*
D13*
X142240000Y-137160000D03*
X148590000Y-134620000D03*
D12*
X190500000Y-139700000D03*
D13*
X186690000Y-137160000D03*
X193040000Y-134620000D03*
D12*
X209550000Y-139700000D03*
D13*
X205740000Y-137160000D03*
X212090000Y-134620000D03*
D12*
X228600000Y-139700000D03*
D13*
X224790000Y-137160000D03*
X231140000Y-134620000D03*
D12*
X247650000Y-139700000D03*
D13*
X243840000Y-137160000D03*
X250190000Y-134620000D03*
D12*
X273050000Y-139700000D03*
D13*
X269240000Y-137160000D03*
X275590000Y-134620000D03*
D12*
X292100000Y-139700000D03*
D13*
X288290000Y-137160000D03*
X294640000Y-134620000D03*
D12*
X311150000Y-139700000D03*
D13*
X307340000Y-137160000D03*
X313690000Y-134620000D03*
D12*
X330200000Y-139700000D03*
D13*
X326390000Y-137160000D03*
X332740000Y-134620000D03*
D12*
X349250000Y-139700000D03*
D13*
X345440000Y-137160000D03*
X351790000Y-134620000D03*
D12*
X368300000Y-139700000D03*
D13*
X364490000Y-137160000D03*
X370840000Y-134620000D03*
D12*
X69850000Y-120650000D03*
D13*
X66040000Y-118110000D03*
X72390000Y-115570000D03*
D12*
X88900000Y-120650000D03*
D13*
X85090000Y-118110000D03*
X91440000Y-115570000D03*
D12*
X107950000Y-120650000D03*
D13*
X104140000Y-118110000D03*
X110490000Y-115570000D03*
D12*
X127000000Y-120650000D03*
D13*
X123190000Y-118110000D03*
X129540000Y-115570000D03*
D12*
X146050000Y-120650000D03*
D13*
X142240000Y-118110000D03*
X148590000Y-115570000D03*
D12*
X190500000Y-120650000D03*
D13*
X186690000Y-118110000D03*
X193040000Y-115570000D03*
D12*
X228600000Y-120650000D03*
D13*
X224790000Y-118110000D03*
X231140000Y-115570000D03*
D12*
X273050000Y-120650000D03*
D13*
X269240000Y-118110000D03*
X275590000Y-115570000D03*
D12*
X292100000Y-120650000D03*
D13*
X288290000Y-118110000D03*
X294640000Y-115570000D03*
D12*
X311150000Y-120650000D03*
D13*
X307340000Y-118110000D03*
X313690000Y-115570000D03*
D12*
X330200000Y-120650000D03*
D13*
X326390000Y-118110000D03*
X332740000Y-115570000D03*
D12*
X349250000Y-120650000D03*
D13*
X345440000Y-118110000D03*
X351790000Y-115570000D03*
D12*
X368300000Y-120650000D03*
D13*
X364490000Y-118110000D03*
X370840000Y-115570000D03*
D12*
X69850000Y-101600000D03*
D13*
X66040000Y-99060000D03*
X72390000Y-96520000D03*
D12*
X88900000Y-101600000D03*
D13*
X85090000Y-99060000D03*
X91440000Y-96520000D03*
D12*
X107950000Y-101600000D03*
D13*
X104140000Y-99060000D03*
X110490000Y-96520000D03*
D12*
X127000000Y-101600000D03*
D13*
X123190000Y-99060000D03*
X129540000Y-96520000D03*
D12*
X146050000Y-101600000D03*
D13*
X142240000Y-99060000D03*
X148590000Y-96520000D03*
D12*
X190500000Y-101600000D03*
D13*
X186690000Y-99060000D03*
X193040000Y-96520000D03*
D12*
X209550000Y-101600000D03*
D13*
X205740000Y-99060000D03*
X212090000Y-96520000D03*
D12*
X228600000Y-101600000D03*
D13*
X224790000Y-99060000D03*
X231140000Y-96520000D03*
D12*
X247650000Y-101600000D03*
D13*
X243840000Y-99060000D03*
X250190000Y-96520000D03*
D12*
X273050000Y-101600000D03*
D13*
X269240000Y-99060000D03*
X275590000Y-96520000D03*
D12*
X292100000Y-101600000D03*
D13*
X288290000Y-99060000D03*
X294640000Y-96520000D03*
D12*
X311150000Y-101600000D03*
D13*
X307340000Y-99060000D03*
X313690000Y-96520000D03*
D12*
X330200000Y-101600000D03*
D13*
X326390000Y-99060000D03*
X332740000Y-96520000D03*
D12*
X349250000Y-101600000D03*
D13*
X345440000Y-99060000D03*
X351790000Y-96520000D03*
D12*
X165100000Y-177800000D03*
D13*
X161290000Y-175260000D03*
X167640000Y-172720000D03*
D12*
X165100000Y-158750000D03*
D13*
X161290000Y-156210000D03*
X167640000Y-153670000D03*
D12*
X165100000Y-139700000D03*
D13*
X161290000Y-137160000D03*
X167640000Y-134620000D03*
D12*
X165100000Y-120650000D03*
D13*
X161290000Y-118110000D03*
X167640000Y-115570000D03*
D14*
X73660000Y-187325000D03*
D15*
X66040000Y-187325000D03*
D16*
X256540000Y-109855000D03*
X264160000Y-142875000D03*
X256540000Y-112395000D03*
X264160000Y-140335000D03*
X256540000Y-114935000D03*
X264160000Y-137795000D03*
X256540000Y-117475000D03*
X264160000Y-135255000D03*
X256540000Y-120015000D03*
X264160000Y-132715000D03*
X256540000Y-122555000D03*
X264160000Y-130175000D03*
X256540000Y-125095000D03*
X264160000Y-127635000D03*
X256540000Y-127635000D03*
X264160000Y-125095000D03*
X256540000Y-130175000D03*
X264160000Y-122555000D03*
X256540000Y-132715000D03*
X264160000Y-120015000D03*
X256540000Y-135255000D03*
X264160000Y-117475000D03*
X256540000Y-137795000D03*
X264160000Y-114935000D03*
X256540000Y-140335000D03*
X264160000Y-112395000D03*
X256540000Y-142875000D03*
D17*
X264160000Y-109855000D03*
D18*
X181610000Y-99060000D03*
X181610000Y-104140000D03*
X181610000Y-101600000D03*
X181610000Y-96520000D03*
D19*
X180975000Y-132080000D03*
X177800000Y-132080000D03*
X174625000Y-132080000D03*
D20*
X189865000Y-87630000D03*
X199390000Y-87630000D03*
D21*
X181610000Y-106680000D03*
X181610000Y-109180000D03*
X173736000Y-109220000D03*
X173736000Y-106720000D03*
X253365000Y-130175000D03*
X250865000Y-130175000D03*
D15*
X85090000Y-187325000D03*
D14*
X92710000Y-187325000D03*
X111760000Y-187325000D03*
D15*
X104140000Y-187325000D03*
X123190000Y-187325000D03*
D14*
X130810000Y-187325000D03*
X149860000Y-187325000D03*
D15*
X142240000Y-187325000D03*
X161290000Y-187325000D03*
D14*
X168910000Y-187325000D03*
D15*
X186690000Y-187325000D03*
D14*
X194310000Y-187325000D03*
X213360000Y-187325000D03*
D15*
X205740000Y-187325000D03*
X224790000Y-187325000D03*
D14*
X232410000Y-187325000D03*
X251460000Y-187325000D03*
D15*
X243840000Y-187325000D03*
X269240000Y-187325000D03*
D14*
X276860000Y-187325000D03*
X295910000Y-187325000D03*
D15*
X288290000Y-187325000D03*
X307340000Y-187325000D03*
D14*
X314960000Y-187325000D03*
X334010000Y-187325000D03*
D15*
X326390000Y-187325000D03*
X345440000Y-187325000D03*
D14*
X353060000Y-187325000D03*
X372110000Y-187325000D03*
D15*
X364490000Y-187325000D03*
D14*
X73660000Y-168275000D03*
D15*
X66040000Y-168275000D03*
X85090000Y-168275000D03*
D14*
X92710000Y-168275000D03*
X111760000Y-168275000D03*
D15*
X104140000Y-168275000D03*
X123190000Y-168275000D03*
D14*
X130810000Y-168275000D03*
X149860000Y-168275000D03*
D15*
X142240000Y-168275000D03*
X161290000Y-168275000D03*
D14*
X168910000Y-168275000D03*
D15*
X186690000Y-168275000D03*
D14*
X194310000Y-168275000D03*
X213360000Y-168275000D03*
D15*
X205740000Y-168275000D03*
X224790000Y-168275000D03*
D14*
X232410000Y-168275000D03*
X251460000Y-168275000D03*
D15*
X243840000Y-168275000D03*
X269240000Y-168275000D03*
D14*
X276860000Y-168275000D03*
X295910000Y-168275000D03*
D15*
X288290000Y-168275000D03*
X307340000Y-168275000D03*
D14*
X314960000Y-168275000D03*
D15*
X326390000Y-168275000D03*
D14*
X334010000Y-168275000D03*
D15*
X345440000Y-168275000D03*
D14*
X353060000Y-168275000D03*
D15*
X364490000Y-168275000D03*
D14*
X372110000Y-168275000D03*
D15*
X66040000Y-149225000D03*
D14*
X73660000Y-149225000D03*
D15*
X85090000Y-149225000D03*
D14*
X92710000Y-149225000D03*
X111760000Y-149225000D03*
D15*
X104140000Y-149225000D03*
X123190000Y-149225000D03*
D14*
X130810000Y-149225000D03*
X149860000Y-149225000D03*
D15*
X142240000Y-149225000D03*
X161290000Y-149225000D03*
D14*
X168910000Y-149225000D03*
D15*
X186690000Y-149225000D03*
D14*
X194310000Y-149225000D03*
X213360000Y-149225000D03*
D15*
X205740000Y-149225000D03*
X224790000Y-149225000D03*
D14*
X232410000Y-149225000D03*
X251460000Y-149225000D03*
D15*
X243840000Y-149225000D03*
X269240000Y-149225000D03*
D14*
X276860000Y-149225000D03*
X295910000Y-149225000D03*
D15*
X288290000Y-149225000D03*
D14*
X314960000Y-149225000D03*
D15*
X307340000Y-149225000D03*
X326390000Y-149225000D03*
D14*
X334010000Y-149225000D03*
X353060000Y-149225000D03*
D15*
X345440000Y-149225000D03*
X364490000Y-149225000D03*
D14*
X372110000Y-149225000D03*
D15*
X66040000Y-130175000D03*
D14*
X73660000Y-130175000D03*
X92710000Y-130175000D03*
D15*
X85090000Y-130175000D03*
X104140000Y-130175000D03*
D14*
X111760000Y-130175000D03*
X130810000Y-130175000D03*
D15*
X123190000Y-130175000D03*
X142240000Y-130175000D03*
D14*
X149860000Y-130175000D03*
X168910000Y-130175000D03*
D15*
X161290000Y-130175000D03*
D14*
X194310000Y-130175000D03*
D15*
X186690000Y-130175000D03*
X205740000Y-130175000D03*
D14*
X213360000Y-130175000D03*
X232410000Y-130175000D03*
D15*
X224790000Y-130175000D03*
X240030000Y-130175000D03*
D14*
X247650000Y-130175000D03*
X276860000Y-130175000D03*
D15*
X269240000Y-130175000D03*
D14*
X295910000Y-130175000D03*
D15*
X288290000Y-130175000D03*
X307340000Y-130175000D03*
D14*
X314960000Y-130175000D03*
X334010000Y-130175000D03*
D15*
X326390000Y-130175000D03*
X345440000Y-130175000D03*
D14*
X353060000Y-130175000D03*
X372110000Y-130175000D03*
D15*
X364490000Y-130175000D03*
X66040000Y-111125000D03*
D14*
X73660000Y-111125000D03*
D15*
X85090000Y-111125000D03*
D14*
X92710000Y-111125000D03*
D15*
X104140000Y-111125000D03*
D14*
X111760000Y-111125000D03*
D15*
X123190000Y-111125000D03*
D14*
X130810000Y-111125000D03*
D15*
X142240000Y-111125000D03*
D14*
X149860000Y-111125000D03*
D15*
X161290000Y-111125000D03*
D14*
X168910000Y-111125000D03*
D15*
X186690000Y-111125000D03*
D14*
X194310000Y-111125000D03*
X213360000Y-111125000D03*
D15*
X205740000Y-111125000D03*
X224790000Y-111125000D03*
D14*
X232410000Y-111125000D03*
D15*
X243840000Y-111125000D03*
D14*
X251460000Y-111125000D03*
D15*
X269240000Y-111125000D03*
D14*
X276860000Y-111125000D03*
D15*
X288290000Y-111125000D03*
D14*
X295910000Y-111125000D03*
X314960000Y-111125000D03*
D15*
X307340000Y-111125000D03*
X326390000Y-111125000D03*
D14*
X334010000Y-111125000D03*
D15*
X345440000Y-111125000D03*
D14*
X353060000Y-111125000D03*
D15*
X364490000Y-111125000D03*
D14*
X372110000Y-111125000D03*
D22*
X182880000Y-149225000D03*
X180340000Y-149225000D03*
X177800000Y-149225000D03*
X175260000Y-149225000D03*
D23*
X172720000Y-149225000D03*
D21*
X79375000Y-106045000D03*
D16*
X79375000Y-116205000D03*
X117475000Y-116205000D03*
D21*
X117475000Y-106045000D03*
X155575000Y-106045000D03*
D16*
X155575000Y-116205000D03*
X200025000Y-116205000D03*
D21*
X200025000Y-106045000D03*
D16*
X238125000Y-116205000D03*
D21*
X238125000Y-106045000D03*
X282575000Y-106045000D03*
D16*
X282575000Y-116205000D03*
D21*
X320675000Y-106045000D03*
D16*
X320675000Y-116205000D03*
X358775000Y-116205000D03*
D21*
X358775000Y-106045000D03*
X176530000Y-96520000D03*
D16*
X176530000Y-106680000D03*
D21*
X181125000Y-143565000D03*
X181125000Y-139065000D03*
X174625000Y-143565000D03*
X174625000Y-139065000D03*
D16*
X173990000Y-112395000D03*
X181610000Y-127635000D03*
X173990000Y-114935000D03*
X181610000Y-125095000D03*
X173990000Y-117475000D03*
X181610000Y-122555000D03*
X173990000Y-120015000D03*
X181610000Y-120015000D03*
X173990000Y-122555000D03*
X181610000Y-117475000D03*
X173990000Y-125095000D03*
X181610000Y-114935000D03*
X173990000Y-127635000D03*
D17*
X181610000Y-112395000D03*
M02*
