%TF.GenerationSoftware,KiCad,Pcbnew,5.0.0-fee4fd1~66~ubuntu18.04.1*%
%TF.CreationDate,2018-09-12T00:22:08-07:00*%
%TF.ProjectId,keyboard2018,6B6579626F617264323031382E6B6963,rev?*%
%TF.SameCoordinates,Original*%
%TF.FileFunction,Legend,Top*%
%TF.FilePolarity,Positive*%
%FSLAX46Y46*%
G04 Gerber Fmt 4.6, Leading zero omitted, Abs format (unit mm)*
G04 Created by KiCad (PCBNEW 5.0.0-fee4fd1~66~ubuntu18.04.1) date Wed Sep 12 00:22:08 2018*
%MOMM*%
%LPD*%
G01*
G04 APERTURE LIST*
%ADD10C,0.406400*%
%ADD11C,0.050800*%
G04 APERTURE END LIST*
D10*
X66584285Y-85604047D02*
X66584285Y-83064047D01*
X66826190Y-84636428D02*
X67551904Y-85604047D01*
X67551904Y-83910714D02*
X66584285Y-84878333D01*
X68640476Y-85604047D02*
X68640476Y-83064047D01*
X68640476Y-84031666D02*
X68882380Y-83910714D01*
X69366190Y-83910714D01*
X69608095Y-84031666D01*
X69729047Y-84152619D01*
X69850000Y-84394523D01*
X69850000Y-85120238D01*
X69729047Y-85362142D01*
X69608095Y-85483095D01*
X69366190Y-85604047D01*
X68882380Y-85604047D01*
X68640476Y-85483095D01*
X70938571Y-85604047D02*
X70938571Y-83910714D01*
X70938571Y-83064047D02*
X70817619Y-83185000D01*
X70938571Y-83305952D01*
X71059523Y-83185000D01*
X70938571Y-83064047D01*
X70938571Y-83305952D01*
X73115714Y-85483095D02*
X72873809Y-85604047D01*
X72390000Y-85604047D01*
X72148095Y-85483095D01*
X72027142Y-85241190D01*
X72027142Y-84273571D01*
X72148095Y-84031666D01*
X72390000Y-83910714D01*
X72873809Y-83910714D01*
X73115714Y-84031666D01*
X73236666Y-84273571D01*
X73236666Y-84515476D01*
X72027142Y-84757380D01*
D11*
X47625000Y-86995000D02*
G75*
G02X55245000Y-79375000I7620000J0D01*
G01*
X55245000Y-200025000D02*
G75*
G02X47625000Y-192405000I0J7620000D01*
G01*
X390525000Y-192405000D02*
G75*
G02X382905000Y-200025000I-7620000J0D01*
G01*
X382905000Y-79375000D02*
G75*
G02X390525000Y-86995000I0J-7620000D01*
G01*
X382905000Y-79375000D02*
X55245000Y-79375000D01*
X390525000Y-192405000D02*
X390525000Y-86995000D01*
X55245000Y-200025000D02*
X382905000Y-200025000D01*
X47625000Y-86995000D02*
X47625000Y-192405000D01*
M02*
