M48
;DRILL file {KiCad 5.0.0-fee4fd1~66~ubuntu18.04.1} date Wed Sep 12 00:22:37 2018
;FORMAT={-:-/ absolute / inch / decimal}
FMAT,2
INCH,TZ
T1C0.1260
T2C0.1575
T3C0.2000
%
G90
G05
M72
T1
X10.25Y-7.575
X15.075Y-3.425
X15.075Y-7.575
X2.175Y-7.575
X7.Y-7.575
X7.Y-3.425
X10.25Y-3.425
X2.175Y-3.425
T2
X8.25Y-4.
X12.25Y-4.
X9.Y-7.
X10.75Y-6.25
X7.5Y-4.
X5.75Y-4.75
X9.75Y-4.75
X3.5Y-7.
X10.75Y-5.5
X12.25Y-4.75
X14.5Y-6.25
X13.Y-4.
X8.25Y-4.75
X6.5Y-5.5
X9.Y-4.
X7.5Y-4.75
X12.25Y-6.25
X13.Y-4.75
X5.75Y-4.
X14.5Y-4.
X2.75Y-5.5
X5.75Y-5.5
X3.5Y-6.25
X6.5Y-6.25
X13.Y-7.
X4.25Y-4.75
X10.75Y-7.
X13.Y-6.25
X14.5Y-7.
X10.75Y-4.
X11.5Y-6.25
X7.5Y-7.
X9.75Y-7.
X5.Y-4.
X9.75Y-4.
X2.75Y-4.75
X9.Y-6.25
X4.25Y-5.5
X11.5Y-7.
X6.5Y-4.
X5.Y-4.75
X14.5Y-4.75
X5.Y-5.5
X11.5Y-4.75
X7.5Y-6.25
X8.25Y-6.25
X5.75Y-6.25
X8.25Y-7.
X4.25Y-6.25
X6.5Y-4.75
X9.75Y-5.5
X3.5Y-5.5
X6.5Y-7.
X9.Y-5.5
X13.75Y-4.75
X12.25Y-7.
X4.25Y-4.
X5.75Y-7.
X13.Y-5.5
X11.5Y-5.5
X9.75Y-6.25
X2.75Y-7.
X3.5Y-4.
X7.5Y-5.5
X2.75Y-6.25
X5.Y-6.25
X11.5Y-4.
X3.5Y-4.75
X9.Y-4.75
X14.5Y-5.5
X13.75Y-4.
X4.25Y-7.
X13.75Y-7.
X5.Y-7.
X8.25Y-5.5
X10.75Y-4.75
X13.75Y-6.25
X13.75Y-5.5
X2.75Y-4.
X12.25Y-5.5
T3
X7.475Y-3.45
X7.85Y-3.45
T0
M30
