%TF.GenerationSoftware,KiCad,Pcbnew,5.0.0-fee4fd1~66~ubuntu18.04.1*%
%TF.CreationDate,2018-09-12T00:22:08-07:00*%
%TF.ProjectId,keyboard2018,6B6579626F617264323031382E6B6963,rev?*%
%TF.SameCoordinates,Original*%
%TF.FileFunction,Legend,Bot*%
%TF.FilePolarity,Positive*%
%FSLAX46Y46*%
G04 Gerber Fmt 4.6, Leading zero omitted, Abs format (unit mm)*
G04 Created by KiCad (PCBNEW 5.0.0-fee4fd1~66~ubuntu18.04.1) date Wed Sep 12 00:22:08 2018*
%MOMM*%
%LPD*%
G01*
G04 APERTURE LIST*
%ADD10C,0.406400*%
%ADD11C,0.203200*%
%ADD12C,0.050800*%
%ADD13C,0.120000*%
G04 APERTURE END LIST*
D10*
X263555238Y-178949047D02*
X263555238Y-176409047D01*
X262708571Y-178223333D01*
X261861904Y-176409047D01*
X261861904Y-178949047D01*
X260652380Y-178949047D02*
X260652380Y-176409047D01*
X259200952Y-178949047D02*
X260289523Y-177497619D01*
X259200952Y-176409047D02*
X260652380Y-177860476D01*
X257265714Y-177618571D02*
X258112380Y-177618571D01*
X258112380Y-178949047D02*
X258112380Y-176409047D01*
X256902857Y-176409047D01*
D11*
X184150000Y-147320000D02*
X182880000Y-147320000D01*
X182880000Y-146050000D02*
X184150000Y-147320000D01*
X181610000Y-147320000D02*
X182880000Y-146050000D01*
X182880000Y-147320000D02*
X181610000Y-147320000D01*
X182880000Y-147955000D02*
X182880000Y-147320000D01*
D10*
X263615714Y-159899047D02*
X263615714Y-157359047D01*
X263373809Y-158931428D02*
X262648095Y-159899047D01*
X262648095Y-158205714D02*
X263615714Y-159173333D01*
X261559523Y-159899047D02*
X261559523Y-157359047D01*
X261559523Y-158326666D02*
X261317619Y-158205714D01*
X260833809Y-158205714D01*
X260591904Y-158326666D01*
X260470952Y-158447619D01*
X260350000Y-158689523D01*
X260350000Y-159415238D01*
X260470952Y-159657142D01*
X260591904Y-159778095D01*
X260833809Y-159899047D01*
X261317619Y-159899047D01*
X261559523Y-159778095D01*
X259261428Y-159899047D02*
X259261428Y-158205714D01*
X259261428Y-157359047D02*
X259382380Y-157480000D01*
X259261428Y-157600952D01*
X259140476Y-157480000D01*
X259261428Y-157359047D01*
X259261428Y-157600952D01*
X257084285Y-159778095D02*
X257326190Y-159899047D01*
X257810000Y-159899047D01*
X258051904Y-159778095D01*
X258172857Y-159536190D01*
X258172857Y-158568571D01*
X258051904Y-158326666D01*
X257810000Y-158205714D01*
X257326190Y-158205714D01*
X257084285Y-158326666D01*
X256963333Y-158568571D01*
X256963333Y-158810476D01*
X258172857Y-159052380D01*
D12*
X47625000Y-86995000D02*
G75*
G02X55245000Y-79375000I7620000J0D01*
G01*
X55245000Y-200025000D02*
G75*
G02X47625000Y-192405000I0J7620000D01*
G01*
X390525000Y-192405000D02*
G75*
G02X382905000Y-200025000I-7620000J0D01*
G01*
X382905000Y-79375000D02*
G75*
G02X390525000Y-86995000I0J-7620000D01*
G01*
X382905000Y-79375000D02*
X55245000Y-79375000D01*
X390525000Y-192405000D02*
X390525000Y-86995000D01*
X55245000Y-200025000D02*
X382905000Y-200025000D01*
X47625000Y-86995000D02*
X47625000Y-192405000D01*
D13*
X67910000Y-188795000D02*
X67910000Y-185855000D01*
X68150000Y-188795000D02*
X68150000Y-185855000D01*
X68030000Y-188795000D02*
X68030000Y-185855000D01*
X72570000Y-185855000D02*
X72570000Y-186185000D01*
X67130000Y-185855000D02*
X72570000Y-185855000D01*
X67130000Y-186185000D02*
X67130000Y-185855000D01*
X72570000Y-188795000D02*
X72570000Y-188465000D01*
X67130000Y-188795000D02*
X72570000Y-188795000D01*
X67130000Y-188465000D02*
X67130000Y-188795000D01*
X255210000Y-108465000D02*
X265490000Y-108465000D01*
X255210000Y-144265000D02*
X255210000Y-108465000D01*
X265490000Y-144265000D02*
X255210000Y-144265000D01*
X265490000Y-108465000D02*
X265490000Y-144265000D01*
X257700000Y-108525000D02*
X259350000Y-108525000D01*
X257700000Y-144205000D02*
X257700000Y-108525000D01*
X263000000Y-144205000D02*
X257700000Y-144205000D01*
X263000000Y-108525000D02*
X263000000Y-144205000D01*
X261350000Y-108525000D02*
X263000000Y-108525000D01*
X259350000Y-108525000D02*
G75*
G03X261350000Y-108525000I1000000J0D01*
G01*
X180690000Y-107301000D02*
X180690000Y-108559000D01*
X182530000Y-107301000D02*
X182530000Y-108559000D01*
X174656000Y-107341000D02*
X174656000Y-108599000D01*
X172816000Y-107341000D02*
X172816000Y-108599000D01*
X251486000Y-129255000D02*
X252744000Y-129255000D01*
X251486000Y-131095000D02*
X252744000Y-131095000D01*
X86180000Y-188465000D02*
X86180000Y-188795000D01*
X86180000Y-188795000D02*
X91620000Y-188795000D01*
X91620000Y-188795000D02*
X91620000Y-188465000D01*
X86180000Y-186185000D02*
X86180000Y-185855000D01*
X86180000Y-185855000D02*
X91620000Y-185855000D01*
X91620000Y-185855000D02*
X91620000Y-186185000D01*
X87080000Y-188795000D02*
X87080000Y-185855000D01*
X87200000Y-188795000D02*
X87200000Y-185855000D01*
X86960000Y-188795000D02*
X86960000Y-185855000D01*
X106010000Y-188795000D02*
X106010000Y-185855000D01*
X106250000Y-188795000D02*
X106250000Y-185855000D01*
X106130000Y-188795000D02*
X106130000Y-185855000D01*
X110670000Y-185855000D02*
X110670000Y-186185000D01*
X105230000Y-185855000D02*
X110670000Y-185855000D01*
X105230000Y-186185000D02*
X105230000Y-185855000D01*
X110670000Y-188795000D02*
X110670000Y-188465000D01*
X105230000Y-188795000D02*
X110670000Y-188795000D01*
X105230000Y-188465000D02*
X105230000Y-188795000D01*
X124280000Y-188465000D02*
X124280000Y-188795000D01*
X124280000Y-188795000D02*
X129720000Y-188795000D01*
X129720000Y-188795000D02*
X129720000Y-188465000D01*
X124280000Y-186185000D02*
X124280000Y-185855000D01*
X124280000Y-185855000D02*
X129720000Y-185855000D01*
X129720000Y-185855000D02*
X129720000Y-186185000D01*
X125180000Y-188795000D02*
X125180000Y-185855000D01*
X125300000Y-188795000D02*
X125300000Y-185855000D01*
X125060000Y-188795000D02*
X125060000Y-185855000D01*
X144110000Y-188795000D02*
X144110000Y-185855000D01*
X144350000Y-188795000D02*
X144350000Y-185855000D01*
X144230000Y-188795000D02*
X144230000Y-185855000D01*
X148770000Y-185855000D02*
X148770000Y-186185000D01*
X143330000Y-185855000D02*
X148770000Y-185855000D01*
X143330000Y-186185000D02*
X143330000Y-185855000D01*
X148770000Y-188795000D02*
X148770000Y-188465000D01*
X143330000Y-188795000D02*
X148770000Y-188795000D01*
X143330000Y-188465000D02*
X143330000Y-188795000D01*
X162380000Y-188465000D02*
X162380000Y-188795000D01*
X162380000Y-188795000D02*
X167820000Y-188795000D01*
X167820000Y-188795000D02*
X167820000Y-188465000D01*
X162380000Y-186185000D02*
X162380000Y-185855000D01*
X162380000Y-185855000D02*
X167820000Y-185855000D01*
X167820000Y-185855000D02*
X167820000Y-186185000D01*
X163280000Y-188795000D02*
X163280000Y-185855000D01*
X163400000Y-188795000D02*
X163400000Y-185855000D01*
X163160000Y-188795000D02*
X163160000Y-185855000D01*
X187780000Y-188465000D02*
X187780000Y-188795000D01*
X187780000Y-188795000D02*
X193220000Y-188795000D01*
X193220000Y-188795000D02*
X193220000Y-188465000D01*
X187780000Y-186185000D02*
X187780000Y-185855000D01*
X187780000Y-185855000D02*
X193220000Y-185855000D01*
X193220000Y-185855000D02*
X193220000Y-186185000D01*
X188680000Y-188795000D02*
X188680000Y-185855000D01*
X188800000Y-188795000D02*
X188800000Y-185855000D01*
X188560000Y-188795000D02*
X188560000Y-185855000D01*
X207610000Y-188795000D02*
X207610000Y-185855000D01*
X207850000Y-188795000D02*
X207850000Y-185855000D01*
X207730000Y-188795000D02*
X207730000Y-185855000D01*
X212270000Y-185855000D02*
X212270000Y-186185000D01*
X206830000Y-185855000D02*
X212270000Y-185855000D01*
X206830000Y-186185000D02*
X206830000Y-185855000D01*
X212270000Y-188795000D02*
X212270000Y-188465000D01*
X206830000Y-188795000D02*
X212270000Y-188795000D01*
X206830000Y-188465000D02*
X206830000Y-188795000D01*
X225880000Y-188465000D02*
X225880000Y-188795000D01*
X225880000Y-188795000D02*
X231320000Y-188795000D01*
X231320000Y-188795000D02*
X231320000Y-188465000D01*
X225880000Y-186185000D02*
X225880000Y-185855000D01*
X225880000Y-185855000D02*
X231320000Y-185855000D01*
X231320000Y-185855000D02*
X231320000Y-186185000D01*
X226780000Y-188795000D02*
X226780000Y-185855000D01*
X226900000Y-188795000D02*
X226900000Y-185855000D01*
X226660000Y-188795000D02*
X226660000Y-185855000D01*
X245710000Y-188795000D02*
X245710000Y-185855000D01*
X245950000Y-188795000D02*
X245950000Y-185855000D01*
X245830000Y-188795000D02*
X245830000Y-185855000D01*
X250370000Y-185855000D02*
X250370000Y-186185000D01*
X244930000Y-185855000D02*
X250370000Y-185855000D01*
X244930000Y-186185000D02*
X244930000Y-185855000D01*
X250370000Y-188795000D02*
X250370000Y-188465000D01*
X244930000Y-188795000D02*
X250370000Y-188795000D01*
X244930000Y-188465000D02*
X244930000Y-188795000D01*
X270330000Y-188465000D02*
X270330000Y-188795000D01*
X270330000Y-188795000D02*
X275770000Y-188795000D01*
X275770000Y-188795000D02*
X275770000Y-188465000D01*
X270330000Y-186185000D02*
X270330000Y-185855000D01*
X270330000Y-185855000D02*
X275770000Y-185855000D01*
X275770000Y-185855000D02*
X275770000Y-186185000D01*
X271230000Y-188795000D02*
X271230000Y-185855000D01*
X271350000Y-188795000D02*
X271350000Y-185855000D01*
X271110000Y-188795000D02*
X271110000Y-185855000D01*
X290160000Y-188795000D02*
X290160000Y-185855000D01*
X290400000Y-188795000D02*
X290400000Y-185855000D01*
X290280000Y-188795000D02*
X290280000Y-185855000D01*
X294820000Y-185855000D02*
X294820000Y-186185000D01*
X289380000Y-185855000D02*
X294820000Y-185855000D01*
X289380000Y-186185000D02*
X289380000Y-185855000D01*
X294820000Y-188795000D02*
X294820000Y-188465000D01*
X289380000Y-188795000D02*
X294820000Y-188795000D01*
X289380000Y-188465000D02*
X289380000Y-188795000D01*
X308430000Y-188465000D02*
X308430000Y-188795000D01*
X308430000Y-188795000D02*
X313870000Y-188795000D01*
X313870000Y-188795000D02*
X313870000Y-188465000D01*
X308430000Y-186185000D02*
X308430000Y-185855000D01*
X308430000Y-185855000D02*
X313870000Y-185855000D01*
X313870000Y-185855000D02*
X313870000Y-186185000D01*
X309330000Y-188795000D02*
X309330000Y-185855000D01*
X309450000Y-188795000D02*
X309450000Y-185855000D01*
X309210000Y-188795000D02*
X309210000Y-185855000D01*
X328260000Y-188795000D02*
X328260000Y-185855000D01*
X328500000Y-188795000D02*
X328500000Y-185855000D01*
X328380000Y-188795000D02*
X328380000Y-185855000D01*
X332920000Y-185855000D02*
X332920000Y-186185000D01*
X327480000Y-185855000D02*
X332920000Y-185855000D01*
X327480000Y-186185000D02*
X327480000Y-185855000D01*
X332920000Y-188795000D02*
X332920000Y-188465000D01*
X327480000Y-188795000D02*
X332920000Y-188795000D01*
X327480000Y-188465000D02*
X327480000Y-188795000D01*
X346530000Y-188465000D02*
X346530000Y-188795000D01*
X346530000Y-188795000D02*
X351970000Y-188795000D01*
X351970000Y-188795000D02*
X351970000Y-188465000D01*
X346530000Y-186185000D02*
X346530000Y-185855000D01*
X346530000Y-185855000D02*
X351970000Y-185855000D01*
X351970000Y-185855000D02*
X351970000Y-186185000D01*
X347430000Y-188795000D02*
X347430000Y-185855000D01*
X347550000Y-188795000D02*
X347550000Y-185855000D01*
X347310000Y-188795000D02*
X347310000Y-185855000D01*
X366360000Y-188795000D02*
X366360000Y-185855000D01*
X366600000Y-188795000D02*
X366600000Y-185855000D01*
X366480000Y-188795000D02*
X366480000Y-185855000D01*
X371020000Y-185855000D02*
X371020000Y-186185000D01*
X365580000Y-185855000D02*
X371020000Y-185855000D01*
X365580000Y-186185000D02*
X365580000Y-185855000D01*
X371020000Y-188795000D02*
X371020000Y-188465000D01*
X365580000Y-188795000D02*
X371020000Y-188795000D01*
X365580000Y-188465000D02*
X365580000Y-188795000D01*
X67910000Y-169745000D02*
X67910000Y-166805000D01*
X68150000Y-169745000D02*
X68150000Y-166805000D01*
X68030000Y-169745000D02*
X68030000Y-166805000D01*
X72570000Y-166805000D02*
X72570000Y-167135000D01*
X67130000Y-166805000D02*
X72570000Y-166805000D01*
X67130000Y-167135000D02*
X67130000Y-166805000D01*
X72570000Y-169745000D02*
X72570000Y-169415000D01*
X67130000Y-169745000D02*
X72570000Y-169745000D01*
X67130000Y-169415000D02*
X67130000Y-169745000D01*
X86180000Y-169415000D02*
X86180000Y-169745000D01*
X86180000Y-169745000D02*
X91620000Y-169745000D01*
X91620000Y-169745000D02*
X91620000Y-169415000D01*
X86180000Y-167135000D02*
X86180000Y-166805000D01*
X86180000Y-166805000D02*
X91620000Y-166805000D01*
X91620000Y-166805000D02*
X91620000Y-167135000D01*
X87080000Y-169745000D02*
X87080000Y-166805000D01*
X87200000Y-169745000D02*
X87200000Y-166805000D01*
X86960000Y-169745000D02*
X86960000Y-166805000D01*
X106010000Y-169745000D02*
X106010000Y-166805000D01*
X106250000Y-169745000D02*
X106250000Y-166805000D01*
X106130000Y-169745000D02*
X106130000Y-166805000D01*
X110670000Y-166805000D02*
X110670000Y-167135000D01*
X105230000Y-166805000D02*
X110670000Y-166805000D01*
X105230000Y-167135000D02*
X105230000Y-166805000D01*
X110670000Y-169745000D02*
X110670000Y-169415000D01*
X105230000Y-169745000D02*
X110670000Y-169745000D01*
X105230000Y-169415000D02*
X105230000Y-169745000D01*
X124280000Y-169415000D02*
X124280000Y-169745000D01*
X124280000Y-169745000D02*
X129720000Y-169745000D01*
X129720000Y-169745000D02*
X129720000Y-169415000D01*
X124280000Y-167135000D02*
X124280000Y-166805000D01*
X124280000Y-166805000D02*
X129720000Y-166805000D01*
X129720000Y-166805000D02*
X129720000Y-167135000D01*
X125180000Y-169745000D02*
X125180000Y-166805000D01*
X125300000Y-169745000D02*
X125300000Y-166805000D01*
X125060000Y-169745000D02*
X125060000Y-166805000D01*
X144110000Y-169745000D02*
X144110000Y-166805000D01*
X144350000Y-169745000D02*
X144350000Y-166805000D01*
X144230000Y-169745000D02*
X144230000Y-166805000D01*
X148770000Y-166805000D02*
X148770000Y-167135000D01*
X143330000Y-166805000D02*
X148770000Y-166805000D01*
X143330000Y-167135000D02*
X143330000Y-166805000D01*
X148770000Y-169745000D02*
X148770000Y-169415000D01*
X143330000Y-169745000D02*
X148770000Y-169745000D01*
X143330000Y-169415000D02*
X143330000Y-169745000D01*
X162380000Y-169415000D02*
X162380000Y-169745000D01*
X162380000Y-169745000D02*
X167820000Y-169745000D01*
X167820000Y-169745000D02*
X167820000Y-169415000D01*
X162380000Y-167135000D02*
X162380000Y-166805000D01*
X162380000Y-166805000D02*
X167820000Y-166805000D01*
X167820000Y-166805000D02*
X167820000Y-167135000D01*
X163280000Y-169745000D02*
X163280000Y-166805000D01*
X163400000Y-169745000D02*
X163400000Y-166805000D01*
X163160000Y-169745000D02*
X163160000Y-166805000D01*
X187780000Y-169415000D02*
X187780000Y-169745000D01*
X187780000Y-169745000D02*
X193220000Y-169745000D01*
X193220000Y-169745000D02*
X193220000Y-169415000D01*
X187780000Y-167135000D02*
X187780000Y-166805000D01*
X187780000Y-166805000D02*
X193220000Y-166805000D01*
X193220000Y-166805000D02*
X193220000Y-167135000D01*
X188680000Y-169745000D02*
X188680000Y-166805000D01*
X188800000Y-169745000D02*
X188800000Y-166805000D01*
X188560000Y-169745000D02*
X188560000Y-166805000D01*
X207610000Y-169745000D02*
X207610000Y-166805000D01*
X207850000Y-169745000D02*
X207850000Y-166805000D01*
X207730000Y-169745000D02*
X207730000Y-166805000D01*
X212270000Y-166805000D02*
X212270000Y-167135000D01*
X206830000Y-166805000D02*
X212270000Y-166805000D01*
X206830000Y-167135000D02*
X206830000Y-166805000D01*
X212270000Y-169745000D02*
X212270000Y-169415000D01*
X206830000Y-169745000D02*
X212270000Y-169745000D01*
X206830000Y-169415000D02*
X206830000Y-169745000D01*
X225880000Y-169415000D02*
X225880000Y-169745000D01*
X225880000Y-169745000D02*
X231320000Y-169745000D01*
X231320000Y-169745000D02*
X231320000Y-169415000D01*
X225880000Y-167135000D02*
X225880000Y-166805000D01*
X225880000Y-166805000D02*
X231320000Y-166805000D01*
X231320000Y-166805000D02*
X231320000Y-167135000D01*
X226780000Y-169745000D02*
X226780000Y-166805000D01*
X226900000Y-169745000D02*
X226900000Y-166805000D01*
X226660000Y-169745000D02*
X226660000Y-166805000D01*
X245710000Y-169745000D02*
X245710000Y-166805000D01*
X245950000Y-169745000D02*
X245950000Y-166805000D01*
X245830000Y-169745000D02*
X245830000Y-166805000D01*
X250370000Y-166805000D02*
X250370000Y-167135000D01*
X244930000Y-166805000D02*
X250370000Y-166805000D01*
X244930000Y-167135000D02*
X244930000Y-166805000D01*
X250370000Y-169745000D02*
X250370000Y-169415000D01*
X244930000Y-169745000D02*
X250370000Y-169745000D01*
X244930000Y-169415000D02*
X244930000Y-169745000D01*
X270330000Y-169415000D02*
X270330000Y-169745000D01*
X270330000Y-169745000D02*
X275770000Y-169745000D01*
X275770000Y-169745000D02*
X275770000Y-169415000D01*
X270330000Y-167135000D02*
X270330000Y-166805000D01*
X270330000Y-166805000D02*
X275770000Y-166805000D01*
X275770000Y-166805000D02*
X275770000Y-167135000D01*
X271230000Y-169745000D02*
X271230000Y-166805000D01*
X271350000Y-169745000D02*
X271350000Y-166805000D01*
X271110000Y-169745000D02*
X271110000Y-166805000D01*
X290160000Y-169745000D02*
X290160000Y-166805000D01*
X290400000Y-169745000D02*
X290400000Y-166805000D01*
X290280000Y-169745000D02*
X290280000Y-166805000D01*
X294820000Y-166805000D02*
X294820000Y-167135000D01*
X289380000Y-166805000D02*
X294820000Y-166805000D01*
X289380000Y-167135000D02*
X289380000Y-166805000D01*
X294820000Y-169745000D02*
X294820000Y-169415000D01*
X289380000Y-169745000D02*
X294820000Y-169745000D01*
X289380000Y-169415000D02*
X289380000Y-169745000D01*
X308430000Y-169415000D02*
X308430000Y-169745000D01*
X308430000Y-169745000D02*
X313870000Y-169745000D01*
X313870000Y-169745000D02*
X313870000Y-169415000D01*
X308430000Y-167135000D02*
X308430000Y-166805000D01*
X308430000Y-166805000D02*
X313870000Y-166805000D01*
X313870000Y-166805000D02*
X313870000Y-167135000D01*
X309330000Y-169745000D02*
X309330000Y-166805000D01*
X309450000Y-169745000D02*
X309450000Y-166805000D01*
X309210000Y-169745000D02*
X309210000Y-166805000D01*
X327480000Y-169415000D02*
X327480000Y-169745000D01*
X327480000Y-169745000D02*
X332920000Y-169745000D01*
X332920000Y-169745000D02*
X332920000Y-169415000D01*
X327480000Y-167135000D02*
X327480000Y-166805000D01*
X327480000Y-166805000D02*
X332920000Y-166805000D01*
X332920000Y-166805000D02*
X332920000Y-167135000D01*
X328380000Y-169745000D02*
X328380000Y-166805000D01*
X328500000Y-169745000D02*
X328500000Y-166805000D01*
X328260000Y-169745000D02*
X328260000Y-166805000D01*
X346530000Y-169415000D02*
X346530000Y-169745000D01*
X346530000Y-169745000D02*
X351970000Y-169745000D01*
X351970000Y-169745000D02*
X351970000Y-169415000D01*
X346530000Y-167135000D02*
X346530000Y-166805000D01*
X346530000Y-166805000D02*
X351970000Y-166805000D01*
X351970000Y-166805000D02*
X351970000Y-167135000D01*
X347430000Y-169745000D02*
X347430000Y-166805000D01*
X347550000Y-169745000D02*
X347550000Y-166805000D01*
X347310000Y-169745000D02*
X347310000Y-166805000D01*
X365580000Y-169415000D02*
X365580000Y-169745000D01*
X365580000Y-169745000D02*
X371020000Y-169745000D01*
X371020000Y-169745000D02*
X371020000Y-169415000D01*
X365580000Y-167135000D02*
X365580000Y-166805000D01*
X365580000Y-166805000D02*
X371020000Y-166805000D01*
X371020000Y-166805000D02*
X371020000Y-167135000D01*
X366480000Y-169745000D02*
X366480000Y-166805000D01*
X366600000Y-169745000D02*
X366600000Y-166805000D01*
X366360000Y-169745000D02*
X366360000Y-166805000D01*
X67130000Y-150365000D02*
X67130000Y-150695000D01*
X67130000Y-150695000D02*
X72570000Y-150695000D01*
X72570000Y-150695000D02*
X72570000Y-150365000D01*
X67130000Y-148085000D02*
X67130000Y-147755000D01*
X67130000Y-147755000D02*
X72570000Y-147755000D01*
X72570000Y-147755000D02*
X72570000Y-148085000D01*
X68030000Y-150695000D02*
X68030000Y-147755000D01*
X68150000Y-150695000D02*
X68150000Y-147755000D01*
X67910000Y-150695000D02*
X67910000Y-147755000D01*
X86180000Y-150365000D02*
X86180000Y-150695000D01*
X86180000Y-150695000D02*
X91620000Y-150695000D01*
X91620000Y-150695000D02*
X91620000Y-150365000D01*
X86180000Y-148085000D02*
X86180000Y-147755000D01*
X86180000Y-147755000D02*
X91620000Y-147755000D01*
X91620000Y-147755000D02*
X91620000Y-148085000D01*
X87080000Y-150695000D02*
X87080000Y-147755000D01*
X87200000Y-150695000D02*
X87200000Y-147755000D01*
X86960000Y-150695000D02*
X86960000Y-147755000D01*
X106010000Y-150695000D02*
X106010000Y-147755000D01*
X106250000Y-150695000D02*
X106250000Y-147755000D01*
X106130000Y-150695000D02*
X106130000Y-147755000D01*
X110670000Y-147755000D02*
X110670000Y-148085000D01*
X105230000Y-147755000D02*
X110670000Y-147755000D01*
X105230000Y-148085000D02*
X105230000Y-147755000D01*
X110670000Y-150695000D02*
X110670000Y-150365000D01*
X105230000Y-150695000D02*
X110670000Y-150695000D01*
X105230000Y-150365000D02*
X105230000Y-150695000D01*
X124280000Y-150365000D02*
X124280000Y-150695000D01*
X124280000Y-150695000D02*
X129720000Y-150695000D01*
X129720000Y-150695000D02*
X129720000Y-150365000D01*
X124280000Y-148085000D02*
X124280000Y-147755000D01*
X124280000Y-147755000D02*
X129720000Y-147755000D01*
X129720000Y-147755000D02*
X129720000Y-148085000D01*
X125180000Y-150695000D02*
X125180000Y-147755000D01*
X125300000Y-150695000D02*
X125300000Y-147755000D01*
X125060000Y-150695000D02*
X125060000Y-147755000D01*
X144110000Y-150695000D02*
X144110000Y-147755000D01*
X144350000Y-150695000D02*
X144350000Y-147755000D01*
X144230000Y-150695000D02*
X144230000Y-147755000D01*
X148770000Y-147755000D02*
X148770000Y-148085000D01*
X143330000Y-147755000D02*
X148770000Y-147755000D01*
X143330000Y-148085000D02*
X143330000Y-147755000D01*
X148770000Y-150695000D02*
X148770000Y-150365000D01*
X143330000Y-150695000D02*
X148770000Y-150695000D01*
X143330000Y-150365000D02*
X143330000Y-150695000D01*
X162380000Y-150365000D02*
X162380000Y-150695000D01*
X162380000Y-150695000D02*
X167820000Y-150695000D01*
X167820000Y-150695000D02*
X167820000Y-150365000D01*
X162380000Y-148085000D02*
X162380000Y-147755000D01*
X162380000Y-147755000D02*
X167820000Y-147755000D01*
X167820000Y-147755000D02*
X167820000Y-148085000D01*
X163280000Y-150695000D02*
X163280000Y-147755000D01*
X163400000Y-150695000D02*
X163400000Y-147755000D01*
X163160000Y-150695000D02*
X163160000Y-147755000D01*
X187780000Y-150365000D02*
X187780000Y-150695000D01*
X187780000Y-150695000D02*
X193220000Y-150695000D01*
X193220000Y-150695000D02*
X193220000Y-150365000D01*
X187780000Y-148085000D02*
X187780000Y-147755000D01*
X187780000Y-147755000D02*
X193220000Y-147755000D01*
X193220000Y-147755000D02*
X193220000Y-148085000D01*
X188680000Y-150695000D02*
X188680000Y-147755000D01*
X188800000Y-150695000D02*
X188800000Y-147755000D01*
X188560000Y-150695000D02*
X188560000Y-147755000D01*
X207610000Y-150695000D02*
X207610000Y-147755000D01*
X207850000Y-150695000D02*
X207850000Y-147755000D01*
X207730000Y-150695000D02*
X207730000Y-147755000D01*
X212270000Y-147755000D02*
X212270000Y-148085000D01*
X206830000Y-147755000D02*
X212270000Y-147755000D01*
X206830000Y-148085000D02*
X206830000Y-147755000D01*
X212270000Y-150695000D02*
X212270000Y-150365000D01*
X206830000Y-150695000D02*
X212270000Y-150695000D01*
X206830000Y-150365000D02*
X206830000Y-150695000D01*
X225880000Y-150365000D02*
X225880000Y-150695000D01*
X225880000Y-150695000D02*
X231320000Y-150695000D01*
X231320000Y-150695000D02*
X231320000Y-150365000D01*
X225880000Y-148085000D02*
X225880000Y-147755000D01*
X225880000Y-147755000D02*
X231320000Y-147755000D01*
X231320000Y-147755000D02*
X231320000Y-148085000D01*
X226780000Y-150695000D02*
X226780000Y-147755000D01*
X226900000Y-150695000D02*
X226900000Y-147755000D01*
X226660000Y-150695000D02*
X226660000Y-147755000D01*
X245710000Y-150695000D02*
X245710000Y-147755000D01*
X245950000Y-150695000D02*
X245950000Y-147755000D01*
X245830000Y-150695000D02*
X245830000Y-147755000D01*
X250370000Y-147755000D02*
X250370000Y-148085000D01*
X244930000Y-147755000D02*
X250370000Y-147755000D01*
X244930000Y-148085000D02*
X244930000Y-147755000D01*
X250370000Y-150695000D02*
X250370000Y-150365000D01*
X244930000Y-150695000D02*
X250370000Y-150695000D01*
X244930000Y-150365000D02*
X244930000Y-150695000D01*
X270330000Y-150365000D02*
X270330000Y-150695000D01*
X270330000Y-150695000D02*
X275770000Y-150695000D01*
X275770000Y-150695000D02*
X275770000Y-150365000D01*
X270330000Y-148085000D02*
X270330000Y-147755000D01*
X270330000Y-147755000D02*
X275770000Y-147755000D01*
X275770000Y-147755000D02*
X275770000Y-148085000D01*
X271230000Y-150695000D02*
X271230000Y-147755000D01*
X271350000Y-150695000D02*
X271350000Y-147755000D01*
X271110000Y-150695000D02*
X271110000Y-147755000D01*
X290160000Y-150695000D02*
X290160000Y-147755000D01*
X290400000Y-150695000D02*
X290400000Y-147755000D01*
X290280000Y-150695000D02*
X290280000Y-147755000D01*
X294820000Y-147755000D02*
X294820000Y-148085000D01*
X289380000Y-147755000D02*
X294820000Y-147755000D01*
X289380000Y-148085000D02*
X289380000Y-147755000D01*
X294820000Y-150695000D02*
X294820000Y-150365000D01*
X289380000Y-150695000D02*
X294820000Y-150695000D01*
X289380000Y-150365000D02*
X289380000Y-150695000D01*
X309210000Y-150695000D02*
X309210000Y-147755000D01*
X309450000Y-150695000D02*
X309450000Y-147755000D01*
X309330000Y-150695000D02*
X309330000Y-147755000D01*
X313870000Y-147755000D02*
X313870000Y-148085000D01*
X308430000Y-147755000D02*
X313870000Y-147755000D01*
X308430000Y-148085000D02*
X308430000Y-147755000D01*
X313870000Y-150695000D02*
X313870000Y-150365000D01*
X308430000Y-150695000D02*
X313870000Y-150695000D01*
X308430000Y-150365000D02*
X308430000Y-150695000D01*
X327480000Y-150365000D02*
X327480000Y-150695000D01*
X327480000Y-150695000D02*
X332920000Y-150695000D01*
X332920000Y-150695000D02*
X332920000Y-150365000D01*
X327480000Y-148085000D02*
X327480000Y-147755000D01*
X327480000Y-147755000D02*
X332920000Y-147755000D01*
X332920000Y-147755000D02*
X332920000Y-148085000D01*
X328380000Y-150695000D02*
X328380000Y-147755000D01*
X328500000Y-150695000D02*
X328500000Y-147755000D01*
X328260000Y-150695000D02*
X328260000Y-147755000D01*
X347310000Y-150695000D02*
X347310000Y-147755000D01*
X347550000Y-150695000D02*
X347550000Y-147755000D01*
X347430000Y-150695000D02*
X347430000Y-147755000D01*
X351970000Y-147755000D02*
X351970000Y-148085000D01*
X346530000Y-147755000D02*
X351970000Y-147755000D01*
X346530000Y-148085000D02*
X346530000Y-147755000D01*
X351970000Y-150695000D02*
X351970000Y-150365000D01*
X346530000Y-150695000D02*
X351970000Y-150695000D01*
X346530000Y-150365000D02*
X346530000Y-150695000D01*
X365580000Y-150365000D02*
X365580000Y-150695000D01*
X365580000Y-150695000D02*
X371020000Y-150695000D01*
X371020000Y-150695000D02*
X371020000Y-150365000D01*
X365580000Y-148085000D02*
X365580000Y-147755000D01*
X365580000Y-147755000D02*
X371020000Y-147755000D01*
X371020000Y-147755000D02*
X371020000Y-148085000D01*
X366480000Y-150695000D02*
X366480000Y-147755000D01*
X366600000Y-150695000D02*
X366600000Y-147755000D01*
X366360000Y-150695000D02*
X366360000Y-147755000D01*
X67130000Y-131315000D02*
X67130000Y-131645000D01*
X67130000Y-131645000D02*
X72570000Y-131645000D01*
X72570000Y-131645000D02*
X72570000Y-131315000D01*
X67130000Y-129035000D02*
X67130000Y-128705000D01*
X67130000Y-128705000D02*
X72570000Y-128705000D01*
X72570000Y-128705000D02*
X72570000Y-129035000D01*
X68030000Y-131645000D02*
X68030000Y-128705000D01*
X68150000Y-131645000D02*
X68150000Y-128705000D01*
X67910000Y-131645000D02*
X67910000Y-128705000D01*
X86960000Y-131645000D02*
X86960000Y-128705000D01*
X87200000Y-131645000D02*
X87200000Y-128705000D01*
X87080000Y-131645000D02*
X87080000Y-128705000D01*
X91620000Y-128705000D02*
X91620000Y-129035000D01*
X86180000Y-128705000D02*
X91620000Y-128705000D01*
X86180000Y-129035000D02*
X86180000Y-128705000D01*
X91620000Y-131645000D02*
X91620000Y-131315000D01*
X86180000Y-131645000D02*
X91620000Y-131645000D01*
X86180000Y-131315000D02*
X86180000Y-131645000D01*
X105230000Y-131315000D02*
X105230000Y-131645000D01*
X105230000Y-131645000D02*
X110670000Y-131645000D01*
X110670000Y-131645000D02*
X110670000Y-131315000D01*
X105230000Y-129035000D02*
X105230000Y-128705000D01*
X105230000Y-128705000D02*
X110670000Y-128705000D01*
X110670000Y-128705000D02*
X110670000Y-129035000D01*
X106130000Y-131645000D02*
X106130000Y-128705000D01*
X106250000Y-131645000D02*
X106250000Y-128705000D01*
X106010000Y-131645000D02*
X106010000Y-128705000D01*
X125060000Y-131645000D02*
X125060000Y-128705000D01*
X125300000Y-131645000D02*
X125300000Y-128705000D01*
X125180000Y-131645000D02*
X125180000Y-128705000D01*
X129720000Y-128705000D02*
X129720000Y-129035000D01*
X124280000Y-128705000D02*
X129720000Y-128705000D01*
X124280000Y-129035000D02*
X124280000Y-128705000D01*
X129720000Y-131645000D02*
X129720000Y-131315000D01*
X124280000Y-131645000D02*
X129720000Y-131645000D01*
X124280000Y-131315000D02*
X124280000Y-131645000D01*
X143330000Y-131315000D02*
X143330000Y-131645000D01*
X143330000Y-131645000D02*
X148770000Y-131645000D01*
X148770000Y-131645000D02*
X148770000Y-131315000D01*
X143330000Y-129035000D02*
X143330000Y-128705000D01*
X143330000Y-128705000D02*
X148770000Y-128705000D01*
X148770000Y-128705000D02*
X148770000Y-129035000D01*
X144230000Y-131645000D02*
X144230000Y-128705000D01*
X144350000Y-131645000D02*
X144350000Y-128705000D01*
X144110000Y-131645000D02*
X144110000Y-128705000D01*
X163160000Y-131645000D02*
X163160000Y-128705000D01*
X163400000Y-131645000D02*
X163400000Y-128705000D01*
X163280000Y-131645000D02*
X163280000Y-128705000D01*
X167820000Y-128705000D02*
X167820000Y-129035000D01*
X162380000Y-128705000D02*
X167820000Y-128705000D01*
X162380000Y-129035000D02*
X162380000Y-128705000D01*
X167820000Y-131645000D02*
X167820000Y-131315000D01*
X162380000Y-131645000D02*
X167820000Y-131645000D01*
X162380000Y-131315000D02*
X162380000Y-131645000D01*
X188560000Y-131645000D02*
X188560000Y-128705000D01*
X188800000Y-131645000D02*
X188800000Y-128705000D01*
X188680000Y-131645000D02*
X188680000Y-128705000D01*
X193220000Y-128705000D02*
X193220000Y-129035000D01*
X187780000Y-128705000D02*
X193220000Y-128705000D01*
X187780000Y-129035000D02*
X187780000Y-128705000D01*
X193220000Y-131645000D02*
X193220000Y-131315000D01*
X187780000Y-131645000D02*
X193220000Y-131645000D01*
X187780000Y-131315000D02*
X187780000Y-131645000D01*
X206830000Y-131315000D02*
X206830000Y-131645000D01*
X206830000Y-131645000D02*
X212270000Y-131645000D01*
X212270000Y-131645000D02*
X212270000Y-131315000D01*
X206830000Y-129035000D02*
X206830000Y-128705000D01*
X206830000Y-128705000D02*
X212270000Y-128705000D01*
X212270000Y-128705000D02*
X212270000Y-129035000D01*
X207730000Y-131645000D02*
X207730000Y-128705000D01*
X207850000Y-131645000D02*
X207850000Y-128705000D01*
X207610000Y-131645000D02*
X207610000Y-128705000D01*
X226660000Y-131645000D02*
X226660000Y-128705000D01*
X226900000Y-131645000D02*
X226900000Y-128705000D01*
X226780000Y-131645000D02*
X226780000Y-128705000D01*
X231320000Y-128705000D02*
X231320000Y-129035000D01*
X225880000Y-128705000D02*
X231320000Y-128705000D01*
X225880000Y-129035000D02*
X225880000Y-128705000D01*
X231320000Y-131645000D02*
X231320000Y-131315000D01*
X225880000Y-131645000D02*
X231320000Y-131645000D01*
X225880000Y-131315000D02*
X225880000Y-131645000D01*
X241120000Y-131315000D02*
X241120000Y-131645000D01*
X241120000Y-131645000D02*
X246560000Y-131645000D01*
X246560000Y-131645000D02*
X246560000Y-131315000D01*
X241120000Y-129035000D02*
X241120000Y-128705000D01*
X241120000Y-128705000D02*
X246560000Y-128705000D01*
X246560000Y-128705000D02*
X246560000Y-129035000D01*
X242020000Y-131645000D02*
X242020000Y-128705000D01*
X242140000Y-131645000D02*
X242140000Y-128705000D01*
X241900000Y-131645000D02*
X241900000Y-128705000D01*
X271110000Y-131645000D02*
X271110000Y-128705000D01*
X271350000Y-131645000D02*
X271350000Y-128705000D01*
X271230000Y-131645000D02*
X271230000Y-128705000D01*
X275770000Y-128705000D02*
X275770000Y-129035000D01*
X270330000Y-128705000D02*
X275770000Y-128705000D01*
X270330000Y-129035000D02*
X270330000Y-128705000D01*
X275770000Y-131645000D02*
X275770000Y-131315000D01*
X270330000Y-131645000D02*
X275770000Y-131645000D01*
X270330000Y-131315000D02*
X270330000Y-131645000D01*
X290160000Y-131645000D02*
X290160000Y-128705000D01*
X290400000Y-131645000D02*
X290400000Y-128705000D01*
X290280000Y-131645000D02*
X290280000Y-128705000D01*
X294820000Y-128705000D02*
X294820000Y-129035000D01*
X289380000Y-128705000D02*
X294820000Y-128705000D01*
X289380000Y-129035000D02*
X289380000Y-128705000D01*
X294820000Y-131645000D02*
X294820000Y-131315000D01*
X289380000Y-131645000D02*
X294820000Y-131645000D01*
X289380000Y-131315000D02*
X289380000Y-131645000D01*
X308430000Y-131315000D02*
X308430000Y-131645000D01*
X308430000Y-131645000D02*
X313870000Y-131645000D01*
X313870000Y-131645000D02*
X313870000Y-131315000D01*
X308430000Y-129035000D02*
X308430000Y-128705000D01*
X308430000Y-128705000D02*
X313870000Y-128705000D01*
X313870000Y-128705000D02*
X313870000Y-129035000D01*
X309330000Y-131645000D02*
X309330000Y-128705000D01*
X309450000Y-131645000D02*
X309450000Y-128705000D01*
X309210000Y-131645000D02*
X309210000Y-128705000D01*
X328260000Y-131645000D02*
X328260000Y-128705000D01*
X328500000Y-131645000D02*
X328500000Y-128705000D01*
X328380000Y-131645000D02*
X328380000Y-128705000D01*
X332920000Y-128705000D02*
X332920000Y-129035000D01*
X327480000Y-128705000D02*
X332920000Y-128705000D01*
X327480000Y-129035000D02*
X327480000Y-128705000D01*
X332920000Y-131645000D02*
X332920000Y-131315000D01*
X327480000Y-131645000D02*
X332920000Y-131645000D01*
X327480000Y-131315000D02*
X327480000Y-131645000D01*
X346530000Y-131315000D02*
X346530000Y-131645000D01*
X346530000Y-131645000D02*
X351970000Y-131645000D01*
X351970000Y-131645000D02*
X351970000Y-131315000D01*
X346530000Y-129035000D02*
X346530000Y-128705000D01*
X346530000Y-128705000D02*
X351970000Y-128705000D01*
X351970000Y-128705000D02*
X351970000Y-129035000D01*
X347430000Y-131645000D02*
X347430000Y-128705000D01*
X347550000Y-131645000D02*
X347550000Y-128705000D01*
X347310000Y-131645000D02*
X347310000Y-128705000D01*
X366360000Y-131645000D02*
X366360000Y-128705000D01*
X366600000Y-131645000D02*
X366600000Y-128705000D01*
X366480000Y-131645000D02*
X366480000Y-128705000D01*
X371020000Y-128705000D02*
X371020000Y-129035000D01*
X365580000Y-128705000D02*
X371020000Y-128705000D01*
X365580000Y-129035000D02*
X365580000Y-128705000D01*
X371020000Y-131645000D02*
X371020000Y-131315000D01*
X365580000Y-131645000D02*
X371020000Y-131645000D01*
X365580000Y-131315000D02*
X365580000Y-131645000D01*
X67130000Y-112265000D02*
X67130000Y-112595000D01*
X67130000Y-112595000D02*
X72570000Y-112595000D01*
X72570000Y-112595000D02*
X72570000Y-112265000D01*
X67130000Y-109985000D02*
X67130000Y-109655000D01*
X67130000Y-109655000D02*
X72570000Y-109655000D01*
X72570000Y-109655000D02*
X72570000Y-109985000D01*
X68030000Y-112595000D02*
X68030000Y-109655000D01*
X68150000Y-112595000D02*
X68150000Y-109655000D01*
X67910000Y-112595000D02*
X67910000Y-109655000D01*
X86180000Y-112265000D02*
X86180000Y-112595000D01*
X86180000Y-112595000D02*
X91620000Y-112595000D01*
X91620000Y-112595000D02*
X91620000Y-112265000D01*
X86180000Y-109985000D02*
X86180000Y-109655000D01*
X86180000Y-109655000D02*
X91620000Y-109655000D01*
X91620000Y-109655000D02*
X91620000Y-109985000D01*
X87080000Y-112595000D02*
X87080000Y-109655000D01*
X87200000Y-112595000D02*
X87200000Y-109655000D01*
X86960000Y-112595000D02*
X86960000Y-109655000D01*
X105230000Y-112265000D02*
X105230000Y-112595000D01*
X105230000Y-112595000D02*
X110670000Y-112595000D01*
X110670000Y-112595000D02*
X110670000Y-112265000D01*
X105230000Y-109985000D02*
X105230000Y-109655000D01*
X105230000Y-109655000D02*
X110670000Y-109655000D01*
X110670000Y-109655000D02*
X110670000Y-109985000D01*
X106130000Y-112595000D02*
X106130000Y-109655000D01*
X106250000Y-112595000D02*
X106250000Y-109655000D01*
X106010000Y-112595000D02*
X106010000Y-109655000D01*
X124280000Y-112265000D02*
X124280000Y-112595000D01*
X124280000Y-112595000D02*
X129720000Y-112595000D01*
X129720000Y-112595000D02*
X129720000Y-112265000D01*
X124280000Y-109985000D02*
X124280000Y-109655000D01*
X124280000Y-109655000D02*
X129720000Y-109655000D01*
X129720000Y-109655000D02*
X129720000Y-109985000D01*
X125180000Y-112595000D02*
X125180000Y-109655000D01*
X125300000Y-112595000D02*
X125300000Y-109655000D01*
X125060000Y-112595000D02*
X125060000Y-109655000D01*
X143330000Y-112265000D02*
X143330000Y-112595000D01*
X143330000Y-112595000D02*
X148770000Y-112595000D01*
X148770000Y-112595000D02*
X148770000Y-112265000D01*
X143330000Y-109985000D02*
X143330000Y-109655000D01*
X143330000Y-109655000D02*
X148770000Y-109655000D01*
X148770000Y-109655000D02*
X148770000Y-109985000D01*
X144230000Y-112595000D02*
X144230000Y-109655000D01*
X144350000Y-112595000D02*
X144350000Y-109655000D01*
X144110000Y-112595000D02*
X144110000Y-109655000D01*
X162380000Y-112265000D02*
X162380000Y-112595000D01*
X162380000Y-112595000D02*
X167820000Y-112595000D01*
X167820000Y-112595000D02*
X167820000Y-112265000D01*
X162380000Y-109985000D02*
X162380000Y-109655000D01*
X162380000Y-109655000D02*
X167820000Y-109655000D01*
X167820000Y-109655000D02*
X167820000Y-109985000D01*
X163280000Y-112595000D02*
X163280000Y-109655000D01*
X163400000Y-112595000D02*
X163400000Y-109655000D01*
X163160000Y-112595000D02*
X163160000Y-109655000D01*
X187780000Y-112265000D02*
X187780000Y-112595000D01*
X187780000Y-112595000D02*
X193220000Y-112595000D01*
X193220000Y-112595000D02*
X193220000Y-112265000D01*
X187780000Y-109985000D02*
X187780000Y-109655000D01*
X187780000Y-109655000D02*
X193220000Y-109655000D01*
X193220000Y-109655000D02*
X193220000Y-109985000D01*
X188680000Y-112595000D02*
X188680000Y-109655000D01*
X188800000Y-112595000D02*
X188800000Y-109655000D01*
X188560000Y-112595000D02*
X188560000Y-109655000D01*
X207610000Y-112595000D02*
X207610000Y-109655000D01*
X207850000Y-112595000D02*
X207850000Y-109655000D01*
X207730000Y-112595000D02*
X207730000Y-109655000D01*
X212270000Y-109655000D02*
X212270000Y-109985000D01*
X206830000Y-109655000D02*
X212270000Y-109655000D01*
X206830000Y-109985000D02*
X206830000Y-109655000D01*
X212270000Y-112595000D02*
X212270000Y-112265000D01*
X206830000Y-112595000D02*
X212270000Y-112595000D01*
X206830000Y-112265000D02*
X206830000Y-112595000D01*
X225880000Y-112265000D02*
X225880000Y-112595000D01*
X225880000Y-112595000D02*
X231320000Y-112595000D01*
X231320000Y-112595000D02*
X231320000Y-112265000D01*
X225880000Y-109985000D02*
X225880000Y-109655000D01*
X225880000Y-109655000D02*
X231320000Y-109655000D01*
X231320000Y-109655000D02*
X231320000Y-109985000D01*
X226780000Y-112595000D02*
X226780000Y-109655000D01*
X226900000Y-112595000D02*
X226900000Y-109655000D01*
X226660000Y-112595000D02*
X226660000Y-109655000D01*
X244930000Y-112265000D02*
X244930000Y-112595000D01*
X244930000Y-112595000D02*
X250370000Y-112595000D01*
X250370000Y-112595000D02*
X250370000Y-112265000D01*
X244930000Y-109985000D02*
X244930000Y-109655000D01*
X244930000Y-109655000D02*
X250370000Y-109655000D01*
X250370000Y-109655000D02*
X250370000Y-109985000D01*
X245830000Y-112595000D02*
X245830000Y-109655000D01*
X245950000Y-112595000D02*
X245950000Y-109655000D01*
X245710000Y-112595000D02*
X245710000Y-109655000D01*
X270330000Y-112265000D02*
X270330000Y-112595000D01*
X270330000Y-112595000D02*
X275770000Y-112595000D01*
X275770000Y-112595000D02*
X275770000Y-112265000D01*
X270330000Y-109985000D02*
X270330000Y-109655000D01*
X270330000Y-109655000D02*
X275770000Y-109655000D01*
X275770000Y-109655000D02*
X275770000Y-109985000D01*
X271230000Y-112595000D02*
X271230000Y-109655000D01*
X271350000Y-112595000D02*
X271350000Y-109655000D01*
X271110000Y-112595000D02*
X271110000Y-109655000D01*
X289380000Y-112265000D02*
X289380000Y-112595000D01*
X289380000Y-112595000D02*
X294820000Y-112595000D01*
X294820000Y-112595000D02*
X294820000Y-112265000D01*
X289380000Y-109985000D02*
X289380000Y-109655000D01*
X289380000Y-109655000D02*
X294820000Y-109655000D01*
X294820000Y-109655000D02*
X294820000Y-109985000D01*
X290280000Y-112595000D02*
X290280000Y-109655000D01*
X290400000Y-112595000D02*
X290400000Y-109655000D01*
X290160000Y-112595000D02*
X290160000Y-109655000D01*
X309210000Y-112595000D02*
X309210000Y-109655000D01*
X309450000Y-112595000D02*
X309450000Y-109655000D01*
X309330000Y-112595000D02*
X309330000Y-109655000D01*
X313870000Y-109655000D02*
X313870000Y-109985000D01*
X308430000Y-109655000D02*
X313870000Y-109655000D01*
X308430000Y-109985000D02*
X308430000Y-109655000D01*
X313870000Y-112595000D02*
X313870000Y-112265000D01*
X308430000Y-112595000D02*
X313870000Y-112595000D01*
X308430000Y-112265000D02*
X308430000Y-112595000D01*
X327480000Y-112265000D02*
X327480000Y-112595000D01*
X327480000Y-112595000D02*
X332920000Y-112595000D01*
X332920000Y-112595000D02*
X332920000Y-112265000D01*
X327480000Y-109985000D02*
X327480000Y-109655000D01*
X327480000Y-109655000D02*
X332920000Y-109655000D01*
X332920000Y-109655000D02*
X332920000Y-109985000D01*
X328380000Y-112595000D02*
X328380000Y-109655000D01*
X328500000Y-112595000D02*
X328500000Y-109655000D01*
X328260000Y-112595000D02*
X328260000Y-109655000D01*
X346530000Y-112265000D02*
X346530000Y-112595000D01*
X346530000Y-112595000D02*
X351970000Y-112595000D01*
X351970000Y-112595000D02*
X351970000Y-112265000D01*
X346530000Y-109985000D02*
X346530000Y-109655000D01*
X346530000Y-109655000D02*
X351970000Y-109655000D01*
X351970000Y-109655000D02*
X351970000Y-109985000D01*
X347430000Y-112595000D02*
X347430000Y-109655000D01*
X347550000Y-112595000D02*
X347550000Y-109655000D01*
X347310000Y-112595000D02*
X347310000Y-109655000D01*
X365580000Y-112265000D02*
X365580000Y-112595000D01*
X365580000Y-112595000D02*
X371020000Y-112595000D01*
X371020000Y-112595000D02*
X371020000Y-112265000D01*
X365580000Y-109985000D02*
X365580000Y-109655000D01*
X365580000Y-109655000D02*
X371020000Y-109655000D01*
X371020000Y-109655000D02*
X371020000Y-109985000D01*
X366480000Y-112595000D02*
X366480000Y-109655000D01*
X366600000Y-112595000D02*
X366600000Y-109655000D01*
X366360000Y-112595000D02*
X366360000Y-109655000D01*
X171450000Y-147955000D02*
X171450000Y-149225000D01*
X172720000Y-147955000D02*
X171450000Y-147955000D01*
X183260000Y-150267929D02*
X183260000Y-150665000D01*
X182500000Y-150267929D02*
X182500000Y-150665000D01*
X183260000Y-159325000D02*
X183260000Y-153325000D01*
X182500000Y-159325000D02*
X183260000Y-159325000D01*
X182500000Y-153325000D02*
X182500000Y-159325000D01*
X181610000Y-150665000D02*
X181610000Y-153325000D01*
X180720000Y-150267929D02*
X180720000Y-150665000D01*
X179960000Y-150267929D02*
X179960000Y-150665000D01*
X180720000Y-159325000D02*
X180720000Y-153325000D01*
X179960000Y-159325000D02*
X180720000Y-159325000D01*
X179960000Y-153325000D02*
X179960000Y-159325000D01*
X179070000Y-150665000D02*
X179070000Y-153325000D01*
X178180000Y-150267929D02*
X178180000Y-150665000D01*
X177420000Y-150267929D02*
X177420000Y-150665000D01*
X178180000Y-159325000D02*
X178180000Y-153325000D01*
X177420000Y-159325000D02*
X178180000Y-159325000D01*
X177420000Y-153325000D02*
X177420000Y-159325000D01*
X176530000Y-150665000D02*
X176530000Y-153325000D01*
X175640000Y-150267929D02*
X175640000Y-150665000D01*
X174880000Y-150267929D02*
X174880000Y-150665000D01*
X175640000Y-159325000D02*
X175640000Y-153325000D01*
X174880000Y-159325000D02*
X175640000Y-159325000D01*
X174880000Y-153325000D02*
X174880000Y-159325000D01*
X173990000Y-150665000D02*
X173990000Y-153325000D01*
X173100000Y-150335000D02*
X173100000Y-150665000D01*
X172340000Y-150335000D02*
X172340000Y-150665000D01*
X173000000Y-153325000D02*
X173000000Y-159325000D01*
X172880000Y-153325000D02*
X172880000Y-159325000D01*
X172760000Y-153325000D02*
X172760000Y-159325000D01*
X172640000Y-153325000D02*
X172640000Y-159325000D01*
X172520000Y-153325000D02*
X172520000Y-159325000D01*
X172400000Y-153325000D02*
X172400000Y-159325000D01*
X173100000Y-159325000D02*
X173100000Y-153325000D01*
X172340000Y-159325000D02*
X173100000Y-159325000D01*
X172340000Y-153325000D02*
X172340000Y-159325000D01*
X171390000Y-153325000D02*
X171390000Y-150665000D01*
X184210000Y-153325000D02*
X171390000Y-153325000D01*
X184210000Y-150665000D02*
X184210000Y-153325000D01*
X171390000Y-150665000D02*
X184210000Y-150665000D01*
X78005000Y-107855000D02*
X80745000Y-107855000D01*
X80745000Y-107855000D02*
X80745000Y-114395000D01*
X80745000Y-114395000D02*
X78005000Y-114395000D01*
X78005000Y-114395000D02*
X78005000Y-107855000D01*
X79375000Y-107085000D02*
X79375000Y-107855000D01*
X79375000Y-115165000D02*
X79375000Y-114395000D01*
X117475000Y-115165000D02*
X117475000Y-114395000D01*
X117475000Y-107085000D02*
X117475000Y-107855000D01*
X116105000Y-114395000D02*
X116105000Y-107855000D01*
X118845000Y-114395000D02*
X116105000Y-114395000D01*
X118845000Y-107855000D02*
X118845000Y-114395000D01*
X116105000Y-107855000D02*
X118845000Y-107855000D01*
X154205000Y-107855000D02*
X156945000Y-107855000D01*
X156945000Y-107855000D02*
X156945000Y-114395000D01*
X156945000Y-114395000D02*
X154205000Y-114395000D01*
X154205000Y-114395000D02*
X154205000Y-107855000D01*
X155575000Y-107085000D02*
X155575000Y-107855000D01*
X155575000Y-115165000D02*
X155575000Y-114395000D01*
X200025000Y-115165000D02*
X200025000Y-114395000D01*
X200025000Y-107085000D02*
X200025000Y-107855000D01*
X198655000Y-114395000D02*
X198655000Y-107855000D01*
X201395000Y-114395000D02*
X198655000Y-114395000D01*
X201395000Y-107855000D02*
X201395000Y-114395000D01*
X198655000Y-107855000D02*
X201395000Y-107855000D01*
X238125000Y-115165000D02*
X238125000Y-114395000D01*
X238125000Y-107085000D02*
X238125000Y-107855000D01*
X236755000Y-114395000D02*
X236755000Y-107855000D01*
X239495000Y-114395000D02*
X236755000Y-114395000D01*
X239495000Y-107855000D02*
X239495000Y-114395000D01*
X236755000Y-107855000D02*
X239495000Y-107855000D01*
X281205000Y-107855000D02*
X283945000Y-107855000D01*
X283945000Y-107855000D02*
X283945000Y-114395000D01*
X283945000Y-114395000D02*
X281205000Y-114395000D01*
X281205000Y-114395000D02*
X281205000Y-107855000D01*
X282575000Y-107085000D02*
X282575000Y-107855000D01*
X282575000Y-115165000D02*
X282575000Y-114395000D01*
X319305000Y-107855000D02*
X322045000Y-107855000D01*
X322045000Y-107855000D02*
X322045000Y-114395000D01*
X322045000Y-114395000D02*
X319305000Y-114395000D01*
X319305000Y-114395000D02*
X319305000Y-107855000D01*
X320675000Y-107085000D02*
X320675000Y-107855000D01*
X320675000Y-115165000D02*
X320675000Y-114395000D01*
X358775000Y-115165000D02*
X358775000Y-114395000D01*
X358775000Y-107085000D02*
X358775000Y-107855000D01*
X357405000Y-114395000D02*
X357405000Y-107855000D01*
X360145000Y-114395000D02*
X357405000Y-114395000D01*
X360145000Y-107855000D02*
X360145000Y-114395000D01*
X357405000Y-107855000D02*
X360145000Y-107855000D01*
X175160000Y-98330000D02*
X177900000Y-98330000D01*
X177900000Y-98330000D02*
X177900000Y-104870000D01*
X177900000Y-104870000D02*
X175160000Y-104870000D01*
X175160000Y-104870000D02*
X175160000Y-98330000D01*
X176530000Y-97560000D02*
X176530000Y-98330000D01*
X176530000Y-105640000D02*
X176530000Y-104870000D01*
X172660000Y-111005000D02*
X182940000Y-111005000D01*
X172660000Y-129025000D02*
X172660000Y-111005000D01*
X182940000Y-129025000D02*
X172660000Y-129025000D01*
X182940000Y-111005000D02*
X182940000Y-129025000D01*
X175150000Y-111065000D02*
X176800000Y-111065000D01*
X175150000Y-128965000D02*
X175150000Y-111065000D01*
X180450000Y-128965000D02*
X175150000Y-128965000D01*
X180450000Y-111065000D02*
X180450000Y-128965000D01*
X178800000Y-111065000D02*
X180450000Y-111065000D01*
X176800000Y-111065000D02*
G75*
G03X178800000Y-111065000I1000000J0D01*
G01*
D11*
X71397619Y-185237380D02*
X71397619Y-184237380D01*
X71159523Y-184237380D01*
X71016666Y-184285000D01*
X70921428Y-184380238D01*
X70873809Y-184475476D01*
X70826190Y-184665952D01*
X70826190Y-184808809D01*
X70873809Y-184999285D01*
X70921428Y-185094523D01*
X71016666Y-185189761D01*
X71159523Y-185237380D01*
X71397619Y-185237380D01*
X70635714Y-185332619D02*
X69873809Y-185332619D01*
X69683333Y-184951666D02*
X69207142Y-184951666D01*
X69778571Y-185237380D02*
X69445238Y-184237380D01*
X69111904Y-185237380D01*
X68254761Y-185237380D02*
X68826190Y-185237380D01*
X68540476Y-185237380D02*
X68540476Y-184237380D01*
X68635714Y-184380238D01*
X68730952Y-184475476D01*
X68826190Y-184523095D01*
X261111904Y-106767380D02*
X261111904Y-107576904D01*
X261064285Y-107672142D01*
X261016666Y-107719761D01*
X260921428Y-107767380D01*
X260730952Y-107767380D01*
X260635714Y-107719761D01*
X260588095Y-107672142D01*
X260540476Y-107576904D01*
X260540476Y-106767380D01*
X260111904Y-106862619D02*
X260064285Y-106815000D01*
X259969047Y-106767380D01*
X259730952Y-106767380D01*
X259635714Y-106815000D01*
X259588095Y-106862619D01*
X259540476Y-106957857D01*
X259540476Y-107053095D01*
X259588095Y-107195952D01*
X260159523Y-107767380D01*
X259540476Y-107767380D01*
X179157380Y-99996666D02*
X179871666Y-99996666D01*
X180014523Y-99949047D01*
X180109761Y-99853809D01*
X180157380Y-99710952D01*
X180157380Y-99615714D01*
X180157380Y-100996666D02*
X180157380Y-100425238D01*
X180157380Y-100710952D02*
X179157380Y-100710952D01*
X179300238Y-100615714D01*
X179395476Y-100520476D01*
X179443095Y-100425238D01*
X182236904Y-134072380D02*
X181665476Y-134072380D01*
X181951190Y-135072380D02*
X181951190Y-134072380D01*
X181332142Y-135072380D02*
X181332142Y-134072380D01*
X180951190Y-134072380D01*
X180855952Y-134120000D01*
X180808333Y-134167619D01*
X180760714Y-134262857D01*
X180760714Y-134405714D01*
X180808333Y-134500952D01*
X180855952Y-134548571D01*
X180951190Y-134596190D01*
X181332142Y-134596190D01*
X179808333Y-135072380D02*
X180379761Y-135072380D01*
X180094047Y-135072380D02*
X180094047Y-134072380D01*
X180189285Y-134215238D01*
X180284523Y-134310476D01*
X180379761Y-134358095D01*
X179061904Y-134072380D02*
X178490476Y-134072380D01*
X178776190Y-135072380D02*
X178776190Y-134072380D01*
X178157142Y-135072380D02*
X178157142Y-134072380D01*
X177776190Y-134072380D01*
X177680952Y-134120000D01*
X177633333Y-134167619D01*
X177585714Y-134262857D01*
X177585714Y-134405714D01*
X177633333Y-134500952D01*
X177680952Y-134548571D01*
X177776190Y-134596190D01*
X178157142Y-134596190D01*
X177204761Y-134167619D02*
X177157142Y-134120000D01*
X177061904Y-134072380D01*
X176823809Y-134072380D01*
X176728571Y-134120000D01*
X176680952Y-134167619D01*
X176633333Y-134262857D01*
X176633333Y-134358095D01*
X176680952Y-134500952D01*
X177252380Y-135072380D01*
X176633333Y-135072380D01*
X175886904Y-134072380D02*
X175315476Y-134072380D01*
X175601190Y-135072380D02*
X175601190Y-134072380D01*
X174982142Y-135072380D02*
X174982142Y-134072380D01*
X174601190Y-134072380D01*
X174505952Y-134120000D01*
X174458333Y-134167619D01*
X174410714Y-134262857D01*
X174410714Y-134405714D01*
X174458333Y-134500952D01*
X174505952Y-134548571D01*
X174601190Y-134596190D01*
X174982142Y-134596190D01*
X174077380Y-134072380D02*
X173458333Y-134072380D01*
X173791666Y-134453333D01*
X173648809Y-134453333D01*
X173553571Y-134500952D01*
X173505952Y-134548571D01*
X173458333Y-134643809D01*
X173458333Y-134881904D01*
X173505952Y-134977142D01*
X173553571Y-135024761D01*
X173648809Y-135072380D01*
X173934523Y-135072380D01*
X174029761Y-135024761D01*
X174077380Y-134977142D01*
X180062142Y-107783333D02*
X180109761Y-107735714D01*
X180157380Y-107592857D01*
X180157380Y-107497619D01*
X180109761Y-107354761D01*
X180014523Y-107259523D01*
X179919285Y-107211904D01*
X179728809Y-107164285D01*
X179585952Y-107164285D01*
X179395476Y-107211904D01*
X179300238Y-107259523D01*
X179205000Y-107354761D01*
X179157380Y-107497619D01*
X179157380Y-107592857D01*
X179205000Y-107735714D01*
X179252619Y-107783333D01*
X180157380Y-108735714D02*
X180157380Y-108164285D01*
X180157380Y-108450000D02*
X179157380Y-108450000D01*
X179300238Y-108354761D01*
X179395476Y-108259523D01*
X179443095Y-108164285D01*
X172188142Y-107823333D02*
X172235761Y-107775714D01*
X172283380Y-107632857D01*
X172283380Y-107537619D01*
X172235761Y-107394761D01*
X172140523Y-107299523D01*
X172045285Y-107251904D01*
X171854809Y-107204285D01*
X171711952Y-107204285D01*
X171521476Y-107251904D01*
X171426238Y-107299523D01*
X171331000Y-107394761D01*
X171283380Y-107537619D01*
X171283380Y-107632857D01*
X171331000Y-107775714D01*
X171378619Y-107823333D01*
X171378619Y-108204285D02*
X171331000Y-108251904D01*
X171283380Y-108347142D01*
X171283380Y-108585238D01*
X171331000Y-108680476D01*
X171378619Y-108728095D01*
X171473857Y-108775714D01*
X171569095Y-108775714D01*
X171711952Y-108728095D01*
X172283380Y-108156666D01*
X172283380Y-108775714D01*
X252261666Y-128627142D02*
X252309285Y-128674761D01*
X252452142Y-128722380D01*
X252547380Y-128722380D01*
X252690238Y-128674761D01*
X252785476Y-128579523D01*
X252833095Y-128484285D01*
X252880714Y-128293809D01*
X252880714Y-128150952D01*
X252833095Y-127960476D01*
X252785476Y-127865238D01*
X252690238Y-127770000D01*
X252547380Y-127722380D01*
X252452142Y-127722380D01*
X252309285Y-127770000D01*
X252261666Y-127817619D01*
X251928333Y-127722380D02*
X251309285Y-127722380D01*
X251642619Y-128103333D01*
X251499761Y-128103333D01*
X251404523Y-128150952D01*
X251356904Y-128198571D01*
X251309285Y-128293809D01*
X251309285Y-128531904D01*
X251356904Y-128627142D01*
X251404523Y-128674761D01*
X251499761Y-128722380D01*
X251785476Y-128722380D01*
X251880714Y-128674761D01*
X251928333Y-128627142D01*
X90447619Y-185237380D02*
X90447619Y-184237380D01*
X90209523Y-184237380D01*
X90066666Y-184285000D01*
X89971428Y-184380238D01*
X89923809Y-184475476D01*
X89876190Y-184665952D01*
X89876190Y-184808809D01*
X89923809Y-184999285D01*
X89971428Y-185094523D01*
X90066666Y-185189761D01*
X90209523Y-185237380D01*
X90447619Y-185237380D01*
X89685714Y-185332619D02*
X88923809Y-185332619D01*
X88733333Y-184951666D02*
X88257142Y-184951666D01*
X88828571Y-185237380D02*
X88495238Y-184237380D01*
X88161904Y-185237380D01*
X87876190Y-184332619D02*
X87828571Y-184285000D01*
X87733333Y-184237380D01*
X87495238Y-184237380D01*
X87400000Y-184285000D01*
X87352380Y-184332619D01*
X87304761Y-184427857D01*
X87304761Y-184523095D01*
X87352380Y-184665952D01*
X87923809Y-185237380D01*
X87304761Y-185237380D01*
X109497619Y-185237380D02*
X109497619Y-184237380D01*
X109259523Y-184237380D01*
X109116666Y-184285000D01*
X109021428Y-184380238D01*
X108973809Y-184475476D01*
X108926190Y-184665952D01*
X108926190Y-184808809D01*
X108973809Y-184999285D01*
X109021428Y-185094523D01*
X109116666Y-185189761D01*
X109259523Y-185237380D01*
X109497619Y-185237380D01*
X108735714Y-185332619D02*
X107973809Y-185332619D01*
X107783333Y-184951666D02*
X107307142Y-184951666D01*
X107878571Y-185237380D02*
X107545238Y-184237380D01*
X107211904Y-185237380D01*
X106973809Y-184237380D02*
X106354761Y-184237380D01*
X106688095Y-184618333D01*
X106545238Y-184618333D01*
X106450000Y-184665952D01*
X106402380Y-184713571D01*
X106354761Y-184808809D01*
X106354761Y-185046904D01*
X106402380Y-185142142D01*
X106450000Y-185189761D01*
X106545238Y-185237380D01*
X106830952Y-185237380D01*
X106926190Y-185189761D01*
X106973809Y-185142142D01*
X128547619Y-185237380D02*
X128547619Y-184237380D01*
X128309523Y-184237380D01*
X128166666Y-184285000D01*
X128071428Y-184380238D01*
X128023809Y-184475476D01*
X127976190Y-184665952D01*
X127976190Y-184808809D01*
X128023809Y-184999285D01*
X128071428Y-185094523D01*
X128166666Y-185189761D01*
X128309523Y-185237380D01*
X128547619Y-185237380D01*
X127785714Y-185332619D02*
X127023809Y-185332619D01*
X126833333Y-184951666D02*
X126357142Y-184951666D01*
X126928571Y-185237380D02*
X126595238Y-184237380D01*
X126261904Y-185237380D01*
X125500000Y-184570714D02*
X125500000Y-185237380D01*
X125738095Y-184189761D02*
X125976190Y-184904047D01*
X125357142Y-184904047D01*
X147597619Y-185237380D02*
X147597619Y-184237380D01*
X147359523Y-184237380D01*
X147216666Y-184285000D01*
X147121428Y-184380238D01*
X147073809Y-184475476D01*
X147026190Y-184665952D01*
X147026190Y-184808809D01*
X147073809Y-184999285D01*
X147121428Y-185094523D01*
X147216666Y-185189761D01*
X147359523Y-185237380D01*
X147597619Y-185237380D01*
X146835714Y-185332619D02*
X146073809Y-185332619D01*
X145883333Y-184951666D02*
X145407142Y-184951666D01*
X145978571Y-185237380D02*
X145645238Y-184237380D01*
X145311904Y-185237380D01*
X144502380Y-184237380D02*
X144978571Y-184237380D01*
X145026190Y-184713571D01*
X144978571Y-184665952D01*
X144883333Y-184618333D01*
X144645238Y-184618333D01*
X144550000Y-184665952D01*
X144502380Y-184713571D01*
X144454761Y-184808809D01*
X144454761Y-185046904D01*
X144502380Y-185142142D01*
X144550000Y-185189761D01*
X144645238Y-185237380D01*
X144883333Y-185237380D01*
X144978571Y-185189761D01*
X145026190Y-185142142D01*
X166647619Y-185237380D02*
X166647619Y-184237380D01*
X166409523Y-184237380D01*
X166266666Y-184285000D01*
X166171428Y-184380238D01*
X166123809Y-184475476D01*
X166076190Y-184665952D01*
X166076190Y-184808809D01*
X166123809Y-184999285D01*
X166171428Y-185094523D01*
X166266666Y-185189761D01*
X166409523Y-185237380D01*
X166647619Y-185237380D01*
X165885714Y-185332619D02*
X165123809Y-185332619D01*
X164933333Y-184951666D02*
X164457142Y-184951666D01*
X165028571Y-185237380D02*
X164695238Y-184237380D01*
X164361904Y-185237380D01*
X163600000Y-184237380D02*
X163790476Y-184237380D01*
X163885714Y-184285000D01*
X163933333Y-184332619D01*
X164028571Y-184475476D01*
X164076190Y-184665952D01*
X164076190Y-185046904D01*
X164028571Y-185142142D01*
X163980952Y-185189761D01*
X163885714Y-185237380D01*
X163695238Y-185237380D01*
X163600000Y-185189761D01*
X163552380Y-185142142D01*
X163504761Y-185046904D01*
X163504761Y-184808809D01*
X163552380Y-184713571D01*
X163600000Y-184665952D01*
X163695238Y-184618333D01*
X163885714Y-184618333D01*
X163980952Y-184665952D01*
X164028571Y-184713571D01*
X164076190Y-184808809D01*
X192047619Y-185237380D02*
X192047619Y-184237380D01*
X191809523Y-184237380D01*
X191666666Y-184285000D01*
X191571428Y-184380238D01*
X191523809Y-184475476D01*
X191476190Y-184665952D01*
X191476190Y-184808809D01*
X191523809Y-184999285D01*
X191571428Y-185094523D01*
X191666666Y-185189761D01*
X191809523Y-185237380D01*
X192047619Y-185237380D01*
X191285714Y-185332619D02*
X190523809Y-185332619D01*
X190333333Y-184951666D02*
X189857142Y-184951666D01*
X190428571Y-185237380D02*
X190095238Y-184237380D01*
X189761904Y-185237380D01*
X189523809Y-184237380D02*
X188857142Y-184237380D01*
X189285714Y-185237380D01*
X211097619Y-185237380D02*
X211097619Y-184237380D01*
X210859523Y-184237380D01*
X210716666Y-184285000D01*
X210621428Y-184380238D01*
X210573809Y-184475476D01*
X210526190Y-184665952D01*
X210526190Y-184808809D01*
X210573809Y-184999285D01*
X210621428Y-185094523D01*
X210716666Y-185189761D01*
X210859523Y-185237380D01*
X211097619Y-185237380D01*
X210335714Y-185332619D02*
X209573809Y-185332619D01*
X209383333Y-184951666D02*
X208907142Y-184951666D01*
X209478571Y-185237380D02*
X209145238Y-184237380D01*
X208811904Y-185237380D01*
X208335714Y-184665952D02*
X208430952Y-184618333D01*
X208478571Y-184570714D01*
X208526190Y-184475476D01*
X208526190Y-184427857D01*
X208478571Y-184332619D01*
X208430952Y-184285000D01*
X208335714Y-184237380D01*
X208145238Y-184237380D01*
X208050000Y-184285000D01*
X208002380Y-184332619D01*
X207954761Y-184427857D01*
X207954761Y-184475476D01*
X208002380Y-184570714D01*
X208050000Y-184618333D01*
X208145238Y-184665952D01*
X208335714Y-184665952D01*
X208430952Y-184713571D01*
X208478571Y-184761190D01*
X208526190Y-184856428D01*
X208526190Y-185046904D01*
X208478571Y-185142142D01*
X208430952Y-185189761D01*
X208335714Y-185237380D01*
X208145238Y-185237380D01*
X208050000Y-185189761D01*
X208002380Y-185142142D01*
X207954761Y-185046904D01*
X207954761Y-184856428D01*
X208002380Y-184761190D01*
X208050000Y-184713571D01*
X208145238Y-184665952D01*
X230147619Y-185237380D02*
X230147619Y-184237380D01*
X229909523Y-184237380D01*
X229766666Y-184285000D01*
X229671428Y-184380238D01*
X229623809Y-184475476D01*
X229576190Y-184665952D01*
X229576190Y-184808809D01*
X229623809Y-184999285D01*
X229671428Y-185094523D01*
X229766666Y-185189761D01*
X229909523Y-185237380D01*
X230147619Y-185237380D01*
X229385714Y-185332619D02*
X228623809Y-185332619D01*
X228433333Y-184951666D02*
X227957142Y-184951666D01*
X228528571Y-185237380D02*
X228195238Y-184237380D01*
X227861904Y-185237380D01*
X227480952Y-185237380D02*
X227290476Y-185237380D01*
X227195238Y-185189761D01*
X227147619Y-185142142D01*
X227052380Y-184999285D01*
X227004761Y-184808809D01*
X227004761Y-184427857D01*
X227052380Y-184332619D01*
X227100000Y-184285000D01*
X227195238Y-184237380D01*
X227385714Y-184237380D01*
X227480952Y-184285000D01*
X227528571Y-184332619D01*
X227576190Y-184427857D01*
X227576190Y-184665952D01*
X227528571Y-184761190D01*
X227480952Y-184808809D01*
X227385714Y-184856428D01*
X227195238Y-184856428D01*
X227100000Y-184808809D01*
X227052380Y-184761190D01*
X227004761Y-184665952D01*
X249673809Y-185237380D02*
X249673809Y-184237380D01*
X249435714Y-184237380D01*
X249292857Y-184285000D01*
X249197619Y-184380238D01*
X249150000Y-184475476D01*
X249102380Y-184665952D01*
X249102380Y-184808809D01*
X249150000Y-184999285D01*
X249197619Y-185094523D01*
X249292857Y-185189761D01*
X249435714Y-185237380D01*
X249673809Y-185237380D01*
X248911904Y-185332619D02*
X248150000Y-185332619D01*
X247959523Y-184951666D02*
X247483333Y-184951666D01*
X248054761Y-185237380D02*
X247721428Y-184237380D01*
X247388095Y-185237380D01*
X246530952Y-185237380D02*
X247102380Y-185237380D01*
X246816666Y-185237380D02*
X246816666Y-184237380D01*
X246911904Y-184380238D01*
X247007142Y-184475476D01*
X247102380Y-184523095D01*
X245911904Y-184237380D02*
X245816666Y-184237380D01*
X245721428Y-184285000D01*
X245673809Y-184332619D01*
X245626190Y-184427857D01*
X245578571Y-184618333D01*
X245578571Y-184856428D01*
X245626190Y-185046904D01*
X245673809Y-185142142D01*
X245721428Y-185189761D01*
X245816666Y-185237380D01*
X245911904Y-185237380D01*
X246007142Y-185189761D01*
X246054761Y-185142142D01*
X246102380Y-185046904D01*
X246150000Y-184856428D01*
X246150000Y-184618333D01*
X246102380Y-184427857D01*
X246054761Y-184332619D01*
X246007142Y-184285000D01*
X245911904Y-184237380D01*
X275073809Y-185237380D02*
X275073809Y-184237380D01*
X274835714Y-184237380D01*
X274692857Y-184285000D01*
X274597619Y-184380238D01*
X274550000Y-184475476D01*
X274502380Y-184665952D01*
X274502380Y-184808809D01*
X274550000Y-184999285D01*
X274597619Y-185094523D01*
X274692857Y-185189761D01*
X274835714Y-185237380D01*
X275073809Y-185237380D01*
X274311904Y-185332619D02*
X273550000Y-185332619D01*
X273359523Y-184951666D02*
X272883333Y-184951666D01*
X273454761Y-185237380D02*
X273121428Y-184237380D01*
X272788095Y-185237380D01*
X271930952Y-185237380D02*
X272502380Y-185237380D01*
X272216666Y-185237380D02*
X272216666Y-184237380D01*
X272311904Y-184380238D01*
X272407142Y-184475476D01*
X272502380Y-184523095D01*
X270978571Y-185237380D02*
X271550000Y-185237380D01*
X271264285Y-185237380D02*
X271264285Y-184237380D01*
X271359523Y-184380238D01*
X271454761Y-184475476D01*
X271550000Y-184523095D01*
X294123809Y-185237380D02*
X294123809Y-184237380D01*
X293885714Y-184237380D01*
X293742857Y-184285000D01*
X293647619Y-184380238D01*
X293600000Y-184475476D01*
X293552380Y-184665952D01*
X293552380Y-184808809D01*
X293600000Y-184999285D01*
X293647619Y-185094523D01*
X293742857Y-185189761D01*
X293885714Y-185237380D01*
X294123809Y-185237380D01*
X293361904Y-185332619D02*
X292600000Y-185332619D01*
X292409523Y-184951666D02*
X291933333Y-184951666D01*
X292504761Y-185237380D02*
X292171428Y-184237380D01*
X291838095Y-185237380D01*
X290980952Y-185237380D02*
X291552380Y-185237380D01*
X291266666Y-185237380D02*
X291266666Y-184237380D01*
X291361904Y-184380238D01*
X291457142Y-184475476D01*
X291552380Y-184523095D01*
X290600000Y-184332619D02*
X290552380Y-184285000D01*
X290457142Y-184237380D01*
X290219047Y-184237380D01*
X290123809Y-184285000D01*
X290076190Y-184332619D01*
X290028571Y-184427857D01*
X290028571Y-184523095D01*
X290076190Y-184665952D01*
X290647619Y-185237380D01*
X290028571Y-185237380D01*
X313173809Y-185237380D02*
X313173809Y-184237380D01*
X312935714Y-184237380D01*
X312792857Y-184285000D01*
X312697619Y-184380238D01*
X312650000Y-184475476D01*
X312602380Y-184665952D01*
X312602380Y-184808809D01*
X312650000Y-184999285D01*
X312697619Y-185094523D01*
X312792857Y-185189761D01*
X312935714Y-185237380D01*
X313173809Y-185237380D01*
X312411904Y-185332619D02*
X311650000Y-185332619D01*
X311459523Y-184951666D02*
X310983333Y-184951666D01*
X311554761Y-185237380D02*
X311221428Y-184237380D01*
X310888095Y-185237380D01*
X310030952Y-185237380D02*
X310602380Y-185237380D01*
X310316666Y-185237380D02*
X310316666Y-184237380D01*
X310411904Y-184380238D01*
X310507142Y-184475476D01*
X310602380Y-184523095D01*
X309697619Y-184237380D02*
X309078571Y-184237380D01*
X309411904Y-184618333D01*
X309269047Y-184618333D01*
X309173809Y-184665952D01*
X309126190Y-184713571D01*
X309078571Y-184808809D01*
X309078571Y-185046904D01*
X309126190Y-185142142D01*
X309173809Y-185189761D01*
X309269047Y-185237380D01*
X309554761Y-185237380D01*
X309650000Y-185189761D01*
X309697619Y-185142142D01*
X332223809Y-185237380D02*
X332223809Y-184237380D01*
X331985714Y-184237380D01*
X331842857Y-184285000D01*
X331747619Y-184380238D01*
X331700000Y-184475476D01*
X331652380Y-184665952D01*
X331652380Y-184808809D01*
X331700000Y-184999285D01*
X331747619Y-185094523D01*
X331842857Y-185189761D01*
X331985714Y-185237380D01*
X332223809Y-185237380D01*
X331461904Y-185332619D02*
X330700000Y-185332619D01*
X330509523Y-184951666D02*
X330033333Y-184951666D01*
X330604761Y-185237380D02*
X330271428Y-184237380D01*
X329938095Y-185237380D01*
X329080952Y-185237380D02*
X329652380Y-185237380D01*
X329366666Y-185237380D02*
X329366666Y-184237380D01*
X329461904Y-184380238D01*
X329557142Y-184475476D01*
X329652380Y-184523095D01*
X328223809Y-184570714D02*
X328223809Y-185237380D01*
X328461904Y-184189761D02*
X328700000Y-184904047D01*
X328080952Y-184904047D01*
X351273809Y-185237380D02*
X351273809Y-184237380D01*
X351035714Y-184237380D01*
X350892857Y-184285000D01*
X350797619Y-184380238D01*
X350750000Y-184475476D01*
X350702380Y-184665952D01*
X350702380Y-184808809D01*
X350750000Y-184999285D01*
X350797619Y-185094523D01*
X350892857Y-185189761D01*
X351035714Y-185237380D01*
X351273809Y-185237380D01*
X350511904Y-185332619D02*
X349750000Y-185332619D01*
X349559523Y-184951666D02*
X349083333Y-184951666D01*
X349654761Y-185237380D02*
X349321428Y-184237380D01*
X348988095Y-185237380D01*
X348130952Y-185237380D02*
X348702380Y-185237380D01*
X348416666Y-185237380D02*
X348416666Y-184237380D01*
X348511904Y-184380238D01*
X348607142Y-184475476D01*
X348702380Y-184523095D01*
X347226190Y-184237380D02*
X347702380Y-184237380D01*
X347750000Y-184713571D01*
X347702380Y-184665952D01*
X347607142Y-184618333D01*
X347369047Y-184618333D01*
X347273809Y-184665952D01*
X347226190Y-184713571D01*
X347178571Y-184808809D01*
X347178571Y-185046904D01*
X347226190Y-185142142D01*
X347273809Y-185189761D01*
X347369047Y-185237380D01*
X347607142Y-185237380D01*
X347702380Y-185189761D01*
X347750000Y-185142142D01*
X370323809Y-185237380D02*
X370323809Y-184237380D01*
X370085714Y-184237380D01*
X369942857Y-184285000D01*
X369847619Y-184380238D01*
X369800000Y-184475476D01*
X369752380Y-184665952D01*
X369752380Y-184808809D01*
X369800000Y-184999285D01*
X369847619Y-185094523D01*
X369942857Y-185189761D01*
X370085714Y-185237380D01*
X370323809Y-185237380D01*
X369561904Y-185332619D02*
X368800000Y-185332619D01*
X368609523Y-184951666D02*
X368133333Y-184951666D01*
X368704761Y-185237380D02*
X368371428Y-184237380D01*
X368038095Y-185237380D01*
X367180952Y-185237380D02*
X367752380Y-185237380D01*
X367466666Y-185237380D02*
X367466666Y-184237380D01*
X367561904Y-184380238D01*
X367657142Y-184475476D01*
X367752380Y-184523095D01*
X366323809Y-184237380D02*
X366514285Y-184237380D01*
X366609523Y-184285000D01*
X366657142Y-184332619D01*
X366752380Y-184475476D01*
X366800000Y-184665952D01*
X366800000Y-185046904D01*
X366752380Y-185142142D01*
X366704761Y-185189761D01*
X366609523Y-185237380D01*
X366419047Y-185237380D01*
X366323809Y-185189761D01*
X366276190Y-185142142D01*
X366228571Y-185046904D01*
X366228571Y-184808809D01*
X366276190Y-184713571D01*
X366323809Y-184665952D01*
X366419047Y-184618333D01*
X366609523Y-184618333D01*
X366704761Y-184665952D01*
X366752380Y-184713571D01*
X366800000Y-184808809D01*
X71469047Y-166187380D02*
X71469047Y-165187380D01*
X71230952Y-165187380D01*
X71088095Y-165235000D01*
X70992857Y-165330238D01*
X70945238Y-165425476D01*
X70897619Y-165615952D01*
X70897619Y-165758809D01*
X70945238Y-165949285D01*
X70992857Y-166044523D01*
X71088095Y-166139761D01*
X71230952Y-166187380D01*
X71469047Y-166187380D01*
X70707142Y-166282619D02*
X69945238Y-166282619D01*
X69373809Y-165663571D02*
X69230952Y-165711190D01*
X69183333Y-165758809D01*
X69135714Y-165854047D01*
X69135714Y-165996904D01*
X69183333Y-166092142D01*
X69230952Y-166139761D01*
X69326190Y-166187380D01*
X69707142Y-166187380D01*
X69707142Y-165187380D01*
X69373809Y-165187380D01*
X69278571Y-165235000D01*
X69230952Y-165282619D01*
X69183333Y-165377857D01*
X69183333Y-165473095D01*
X69230952Y-165568333D01*
X69278571Y-165615952D01*
X69373809Y-165663571D01*
X69707142Y-165663571D01*
X68183333Y-166187380D02*
X68754761Y-166187380D01*
X68469047Y-166187380D02*
X68469047Y-165187380D01*
X68564285Y-165330238D01*
X68659523Y-165425476D01*
X68754761Y-165473095D01*
X90519047Y-166187380D02*
X90519047Y-165187380D01*
X90280952Y-165187380D01*
X90138095Y-165235000D01*
X90042857Y-165330238D01*
X89995238Y-165425476D01*
X89947619Y-165615952D01*
X89947619Y-165758809D01*
X89995238Y-165949285D01*
X90042857Y-166044523D01*
X90138095Y-166139761D01*
X90280952Y-166187380D01*
X90519047Y-166187380D01*
X89757142Y-166282619D02*
X88995238Y-166282619D01*
X88423809Y-165663571D02*
X88280952Y-165711190D01*
X88233333Y-165758809D01*
X88185714Y-165854047D01*
X88185714Y-165996904D01*
X88233333Y-166092142D01*
X88280952Y-166139761D01*
X88376190Y-166187380D01*
X88757142Y-166187380D01*
X88757142Y-165187380D01*
X88423809Y-165187380D01*
X88328571Y-165235000D01*
X88280952Y-165282619D01*
X88233333Y-165377857D01*
X88233333Y-165473095D01*
X88280952Y-165568333D01*
X88328571Y-165615952D01*
X88423809Y-165663571D01*
X88757142Y-165663571D01*
X87804761Y-165282619D02*
X87757142Y-165235000D01*
X87661904Y-165187380D01*
X87423809Y-165187380D01*
X87328571Y-165235000D01*
X87280952Y-165282619D01*
X87233333Y-165377857D01*
X87233333Y-165473095D01*
X87280952Y-165615952D01*
X87852380Y-166187380D01*
X87233333Y-166187380D01*
X109569047Y-166187380D02*
X109569047Y-165187380D01*
X109330952Y-165187380D01*
X109188095Y-165235000D01*
X109092857Y-165330238D01*
X109045238Y-165425476D01*
X108997619Y-165615952D01*
X108997619Y-165758809D01*
X109045238Y-165949285D01*
X109092857Y-166044523D01*
X109188095Y-166139761D01*
X109330952Y-166187380D01*
X109569047Y-166187380D01*
X108807142Y-166282619D02*
X108045238Y-166282619D01*
X107473809Y-165663571D02*
X107330952Y-165711190D01*
X107283333Y-165758809D01*
X107235714Y-165854047D01*
X107235714Y-165996904D01*
X107283333Y-166092142D01*
X107330952Y-166139761D01*
X107426190Y-166187380D01*
X107807142Y-166187380D01*
X107807142Y-165187380D01*
X107473809Y-165187380D01*
X107378571Y-165235000D01*
X107330952Y-165282619D01*
X107283333Y-165377857D01*
X107283333Y-165473095D01*
X107330952Y-165568333D01*
X107378571Y-165615952D01*
X107473809Y-165663571D01*
X107807142Y-165663571D01*
X106902380Y-165187380D02*
X106283333Y-165187380D01*
X106616666Y-165568333D01*
X106473809Y-165568333D01*
X106378571Y-165615952D01*
X106330952Y-165663571D01*
X106283333Y-165758809D01*
X106283333Y-165996904D01*
X106330952Y-166092142D01*
X106378571Y-166139761D01*
X106473809Y-166187380D01*
X106759523Y-166187380D01*
X106854761Y-166139761D01*
X106902380Y-166092142D01*
X128619047Y-166187380D02*
X128619047Y-165187380D01*
X128380952Y-165187380D01*
X128238095Y-165235000D01*
X128142857Y-165330238D01*
X128095238Y-165425476D01*
X128047619Y-165615952D01*
X128047619Y-165758809D01*
X128095238Y-165949285D01*
X128142857Y-166044523D01*
X128238095Y-166139761D01*
X128380952Y-166187380D01*
X128619047Y-166187380D01*
X127857142Y-166282619D02*
X127095238Y-166282619D01*
X126523809Y-165663571D02*
X126380952Y-165711190D01*
X126333333Y-165758809D01*
X126285714Y-165854047D01*
X126285714Y-165996904D01*
X126333333Y-166092142D01*
X126380952Y-166139761D01*
X126476190Y-166187380D01*
X126857142Y-166187380D01*
X126857142Y-165187380D01*
X126523809Y-165187380D01*
X126428571Y-165235000D01*
X126380952Y-165282619D01*
X126333333Y-165377857D01*
X126333333Y-165473095D01*
X126380952Y-165568333D01*
X126428571Y-165615952D01*
X126523809Y-165663571D01*
X126857142Y-165663571D01*
X125428571Y-165520714D02*
X125428571Y-166187380D01*
X125666666Y-165139761D02*
X125904761Y-165854047D01*
X125285714Y-165854047D01*
X147669047Y-166187380D02*
X147669047Y-165187380D01*
X147430952Y-165187380D01*
X147288095Y-165235000D01*
X147192857Y-165330238D01*
X147145238Y-165425476D01*
X147097619Y-165615952D01*
X147097619Y-165758809D01*
X147145238Y-165949285D01*
X147192857Y-166044523D01*
X147288095Y-166139761D01*
X147430952Y-166187380D01*
X147669047Y-166187380D01*
X146907142Y-166282619D02*
X146145238Y-166282619D01*
X145573809Y-165663571D02*
X145430952Y-165711190D01*
X145383333Y-165758809D01*
X145335714Y-165854047D01*
X145335714Y-165996904D01*
X145383333Y-166092142D01*
X145430952Y-166139761D01*
X145526190Y-166187380D01*
X145907142Y-166187380D01*
X145907142Y-165187380D01*
X145573809Y-165187380D01*
X145478571Y-165235000D01*
X145430952Y-165282619D01*
X145383333Y-165377857D01*
X145383333Y-165473095D01*
X145430952Y-165568333D01*
X145478571Y-165615952D01*
X145573809Y-165663571D01*
X145907142Y-165663571D01*
X144430952Y-165187380D02*
X144907142Y-165187380D01*
X144954761Y-165663571D01*
X144907142Y-165615952D01*
X144811904Y-165568333D01*
X144573809Y-165568333D01*
X144478571Y-165615952D01*
X144430952Y-165663571D01*
X144383333Y-165758809D01*
X144383333Y-165996904D01*
X144430952Y-166092142D01*
X144478571Y-166139761D01*
X144573809Y-166187380D01*
X144811904Y-166187380D01*
X144907142Y-166139761D01*
X144954761Y-166092142D01*
X166719047Y-166187380D02*
X166719047Y-165187380D01*
X166480952Y-165187380D01*
X166338095Y-165235000D01*
X166242857Y-165330238D01*
X166195238Y-165425476D01*
X166147619Y-165615952D01*
X166147619Y-165758809D01*
X166195238Y-165949285D01*
X166242857Y-166044523D01*
X166338095Y-166139761D01*
X166480952Y-166187380D01*
X166719047Y-166187380D01*
X165957142Y-166282619D02*
X165195238Y-166282619D01*
X164623809Y-165663571D02*
X164480952Y-165711190D01*
X164433333Y-165758809D01*
X164385714Y-165854047D01*
X164385714Y-165996904D01*
X164433333Y-166092142D01*
X164480952Y-166139761D01*
X164576190Y-166187380D01*
X164957142Y-166187380D01*
X164957142Y-165187380D01*
X164623809Y-165187380D01*
X164528571Y-165235000D01*
X164480952Y-165282619D01*
X164433333Y-165377857D01*
X164433333Y-165473095D01*
X164480952Y-165568333D01*
X164528571Y-165615952D01*
X164623809Y-165663571D01*
X164957142Y-165663571D01*
X163528571Y-165187380D02*
X163719047Y-165187380D01*
X163814285Y-165235000D01*
X163861904Y-165282619D01*
X163957142Y-165425476D01*
X164004761Y-165615952D01*
X164004761Y-165996904D01*
X163957142Y-166092142D01*
X163909523Y-166139761D01*
X163814285Y-166187380D01*
X163623809Y-166187380D01*
X163528571Y-166139761D01*
X163480952Y-166092142D01*
X163433333Y-165996904D01*
X163433333Y-165758809D01*
X163480952Y-165663571D01*
X163528571Y-165615952D01*
X163623809Y-165568333D01*
X163814285Y-165568333D01*
X163909523Y-165615952D01*
X163957142Y-165663571D01*
X164004761Y-165758809D01*
X192119047Y-166187380D02*
X192119047Y-165187380D01*
X191880952Y-165187380D01*
X191738095Y-165235000D01*
X191642857Y-165330238D01*
X191595238Y-165425476D01*
X191547619Y-165615952D01*
X191547619Y-165758809D01*
X191595238Y-165949285D01*
X191642857Y-166044523D01*
X191738095Y-166139761D01*
X191880952Y-166187380D01*
X192119047Y-166187380D01*
X191357142Y-166282619D02*
X190595238Y-166282619D01*
X190023809Y-165663571D02*
X189880952Y-165711190D01*
X189833333Y-165758809D01*
X189785714Y-165854047D01*
X189785714Y-165996904D01*
X189833333Y-166092142D01*
X189880952Y-166139761D01*
X189976190Y-166187380D01*
X190357142Y-166187380D01*
X190357142Y-165187380D01*
X190023809Y-165187380D01*
X189928571Y-165235000D01*
X189880952Y-165282619D01*
X189833333Y-165377857D01*
X189833333Y-165473095D01*
X189880952Y-165568333D01*
X189928571Y-165615952D01*
X190023809Y-165663571D01*
X190357142Y-165663571D01*
X189452380Y-165187380D02*
X188785714Y-165187380D01*
X189214285Y-166187380D01*
X211169047Y-166187380D02*
X211169047Y-165187380D01*
X210930952Y-165187380D01*
X210788095Y-165235000D01*
X210692857Y-165330238D01*
X210645238Y-165425476D01*
X210597619Y-165615952D01*
X210597619Y-165758809D01*
X210645238Y-165949285D01*
X210692857Y-166044523D01*
X210788095Y-166139761D01*
X210930952Y-166187380D01*
X211169047Y-166187380D01*
X210407142Y-166282619D02*
X209645238Y-166282619D01*
X209073809Y-165663571D02*
X208930952Y-165711190D01*
X208883333Y-165758809D01*
X208835714Y-165854047D01*
X208835714Y-165996904D01*
X208883333Y-166092142D01*
X208930952Y-166139761D01*
X209026190Y-166187380D01*
X209407142Y-166187380D01*
X209407142Y-165187380D01*
X209073809Y-165187380D01*
X208978571Y-165235000D01*
X208930952Y-165282619D01*
X208883333Y-165377857D01*
X208883333Y-165473095D01*
X208930952Y-165568333D01*
X208978571Y-165615952D01*
X209073809Y-165663571D01*
X209407142Y-165663571D01*
X208264285Y-165615952D02*
X208359523Y-165568333D01*
X208407142Y-165520714D01*
X208454761Y-165425476D01*
X208454761Y-165377857D01*
X208407142Y-165282619D01*
X208359523Y-165235000D01*
X208264285Y-165187380D01*
X208073809Y-165187380D01*
X207978571Y-165235000D01*
X207930952Y-165282619D01*
X207883333Y-165377857D01*
X207883333Y-165425476D01*
X207930952Y-165520714D01*
X207978571Y-165568333D01*
X208073809Y-165615952D01*
X208264285Y-165615952D01*
X208359523Y-165663571D01*
X208407142Y-165711190D01*
X208454761Y-165806428D01*
X208454761Y-165996904D01*
X208407142Y-166092142D01*
X208359523Y-166139761D01*
X208264285Y-166187380D01*
X208073809Y-166187380D01*
X207978571Y-166139761D01*
X207930952Y-166092142D01*
X207883333Y-165996904D01*
X207883333Y-165806428D01*
X207930952Y-165711190D01*
X207978571Y-165663571D01*
X208073809Y-165615952D01*
X230219047Y-166187380D02*
X230219047Y-165187380D01*
X229980952Y-165187380D01*
X229838095Y-165235000D01*
X229742857Y-165330238D01*
X229695238Y-165425476D01*
X229647619Y-165615952D01*
X229647619Y-165758809D01*
X229695238Y-165949285D01*
X229742857Y-166044523D01*
X229838095Y-166139761D01*
X229980952Y-166187380D01*
X230219047Y-166187380D01*
X229457142Y-166282619D02*
X228695238Y-166282619D01*
X228123809Y-165663571D02*
X227980952Y-165711190D01*
X227933333Y-165758809D01*
X227885714Y-165854047D01*
X227885714Y-165996904D01*
X227933333Y-166092142D01*
X227980952Y-166139761D01*
X228076190Y-166187380D01*
X228457142Y-166187380D01*
X228457142Y-165187380D01*
X228123809Y-165187380D01*
X228028571Y-165235000D01*
X227980952Y-165282619D01*
X227933333Y-165377857D01*
X227933333Y-165473095D01*
X227980952Y-165568333D01*
X228028571Y-165615952D01*
X228123809Y-165663571D01*
X228457142Y-165663571D01*
X227409523Y-166187380D02*
X227219047Y-166187380D01*
X227123809Y-166139761D01*
X227076190Y-166092142D01*
X226980952Y-165949285D01*
X226933333Y-165758809D01*
X226933333Y-165377857D01*
X226980952Y-165282619D01*
X227028571Y-165235000D01*
X227123809Y-165187380D01*
X227314285Y-165187380D01*
X227409523Y-165235000D01*
X227457142Y-165282619D01*
X227504761Y-165377857D01*
X227504761Y-165615952D01*
X227457142Y-165711190D01*
X227409523Y-165758809D01*
X227314285Y-165806428D01*
X227123809Y-165806428D01*
X227028571Y-165758809D01*
X226980952Y-165711190D01*
X226933333Y-165615952D01*
X249745238Y-166187380D02*
X249745238Y-165187380D01*
X249507142Y-165187380D01*
X249364285Y-165235000D01*
X249269047Y-165330238D01*
X249221428Y-165425476D01*
X249173809Y-165615952D01*
X249173809Y-165758809D01*
X249221428Y-165949285D01*
X249269047Y-166044523D01*
X249364285Y-166139761D01*
X249507142Y-166187380D01*
X249745238Y-166187380D01*
X248983333Y-166282619D02*
X248221428Y-166282619D01*
X247650000Y-165663571D02*
X247507142Y-165711190D01*
X247459523Y-165758809D01*
X247411904Y-165854047D01*
X247411904Y-165996904D01*
X247459523Y-166092142D01*
X247507142Y-166139761D01*
X247602380Y-166187380D01*
X247983333Y-166187380D01*
X247983333Y-165187380D01*
X247650000Y-165187380D01*
X247554761Y-165235000D01*
X247507142Y-165282619D01*
X247459523Y-165377857D01*
X247459523Y-165473095D01*
X247507142Y-165568333D01*
X247554761Y-165615952D01*
X247650000Y-165663571D01*
X247983333Y-165663571D01*
X246459523Y-166187380D02*
X247030952Y-166187380D01*
X246745238Y-166187380D02*
X246745238Y-165187380D01*
X246840476Y-165330238D01*
X246935714Y-165425476D01*
X247030952Y-165473095D01*
X245840476Y-165187380D02*
X245745238Y-165187380D01*
X245650000Y-165235000D01*
X245602380Y-165282619D01*
X245554761Y-165377857D01*
X245507142Y-165568333D01*
X245507142Y-165806428D01*
X245554761Y-165996904D01*
X245602380Y-166092142D01*
X245650000Y-166139761D01*
X245745238Y-166187380D01*
X245840476Y-166187380D01*
X245935714Y-166139761D01*
X245983333Y-166092142D01*
X246030952Y-165996904D01*
X246078571Y-165806428D01*
X246078571Y-165568333D01*
X246030952Y-165377857D01*
X245983333Y-165282619D01*
X245935714Y-165235000D01*
X245840476Y-165187380D01*
X275145238Y-166187380D02*
X275145238Y-165187380D01*
X274907142Y-165187380D01*
X274764285Y-165235000D01*
X274669047Y-165330238D01*
X274621428Y-165425476D01*
X274573809Y-165615952D01*
X274573809Y-165758809D01*
X274621428Y-165949285D01*
X274669047Y-166044523D01*
X274764285Y-166139761D01*
X274907142Y-166187380D01*
X275145238Y-166187380D01*
X274383333Y-166282619D02*
X273621428Y-166282619D01*
X273050000Y-165663571D02*
X272907142Y-165711190D01*
X272859523Y-165758809D01*
X272811904Y-165854047D01*
X272811904Y-165996904D01*
X272859523Y-166092142D01*
X272907142Y-166139761D01*
X273002380Y-166187380D01*
X273383333Y-166187380D01*
X273383333Y-165187380D01*
X273050000Y-165187380D01*
X272954761Y-165235000D01*
X272907142Y-165282619D01*
X272859523Y-165377857D01*
X272859523Y-165473095D01*
X272907142Y-165568333D01*
X272954761Y-165615952D01*
X273050000Y-165663571D01*
X273383333Y-165663571D01*
X271859523Y-166187380D02*
X272430952Y-166187380D01*
X272145238Y-166187380D02*
X272145238Y-165187380D01*
X272240476Y-165330238D01*
X272335714Y-165425476D01*
X272430952Y-165473095D01*
X270907142Y-166187380D02*
X271478571Y-166187380D01*
X271192857Y-166187380D02*
X271192857Y-165187380D01*
X271288095Y-165330238D01*
X271383333Y-165425476D01*
X271478571Y-165473095D01*
X294195238Y-166187380D02*
X294195238Y-165187380D01*
X293957142Y-165187380D01*
X293814285Y-165235000D01*
X293719047Y-165330238D01*
X293671428Y-165425476D01*
X293623809Y-165615952D01*
X293623809Y-165758809D01*
X293671428Y-165949285D01*
X293719047Y-166044523D01*
X293814285Y-166139761D01*
X293957142Y-166187380D01*
X294195238Y-166187380D01*
X293433333Y-166282619D02*
X292671428Y-166282619D01*
X292100000Y-165663571D02*
X291957142Y-165711190D01*
X291909523Y-165758809D01*
X291861904Y-165854047D01*
X291861904Y-165996904D01*
X291909523Y-166092142D01*
X291957142Y-166139761D01*
X292052380Y-166187380D01*
X292433333Y-166187380D01*
X292433333Y-165187380D01*
X292100000Y-165187380D01*
X292004761Y-165235000D01*
X291957142Y-165282619D01*
X291909523Y-165377857D01*
X291909523Y-165473095D01*
X291957142Y-165568333D01*
X292004761Y-165615952D01*
X292100000Y-165663571D01*
X292433333Y-165663571D01*
X290909523Y-166187380D02*
X291480952Y-166187380D01*
X291195238Y-166187380D02*
X291195238Y-165187380D01*
X291290476Y-165330238D01*
X291385714Y-165425476D01*
X291480952Y-165473095D01*
X290528571Y-165282619D02*
X290480952Y-165235000D01*
X290385714Y-165187380D01*
X290147619Y-165187380D01*
X290052380Y-165235000D01*
X290004761Y-165282619D01*
X289957142Y-165377857D01*
X289957142Y-165473095D01*
X290004761Y-165615952D01*
X290576190Y-166187380D01*
X289957142Y-166187380D01*
X313245238Y-166187380D02*
X313245238Y-165187380D01*
X313007142Y-165187380D01*
X312864285Y-165235000D01*
X312769047Y-165330238D01*
X312721428Y-165425476D01*
X312673809Y-165615952D01*
X312673809Y-165758809D01*
X312721428Y-165949285D01*
X312769047Y-166044523D01*
X312864285Y-166139761D01*
X313007142Y-166187380D01*
X313245238Y-166187380D01*
X312483333Y-166282619D02*
X311721428Y-166282619D01*
X311150000Y-165663571D02*
X311007142Y-165711190D01*
X310959523Y-165758809D01*
X310911904Y-165854047D01*
X310911904Y-165996904D01*
X310959523Y-166092142D01*
X311007142Y-166139761D01*
X311102380Y-166187380D01*
X311483333Y-166187380D01*
X311483333Y-165187380D01*
X311150000Y-165187380D01*
X311054761Y-165235000D01*
X311007142Y-165282619D01*
X310959523Y-165377857D01*
X310959523Y-165473095D01*
X311007142Y-165568333D01*
X311054761Y-165615952D01*
X311150000Y-165663571D01*
X311483333Y-165663571D01*
X309959523Y-166187380D02*
X310530952Y-166187380D01*
X310245238Y-166187380D02*
X310245238Y-165187380D01*
X310340476Y-165330238D01*
X310435714Y-165425476D01*
X310530952Y-165473095D01*
X309626190Y-165187380D02*
X309007142Y-165187380D01*
X309340476Y-165568333D01*
X309197619Y-165568333D01*
X309102380Y-165615952D01*
X309054761Y-165663571D01*
X309007142Y-165758809D01*
X309007142Y-165996904D01*
X309054761Y-166092142D01*
X309102380Y-166139761D01*
X309197619Y-166187380D01*
X309483333Y-166187380D01*
X309578571Y-166139761D01*
X309626190Y-166092142D01*
X332295238Y-166187380D02*
X332295238Y-165187380D01*
X332057142Y-165187380D01*
X331914285Y-165235000D01*
X331819047Y-165330238D01*
X331771428Y-165425476D01*
X331723809Y-165615952D01*
X331723809Y-165758809D01*
X331771428Y-165949285D01*
X331819047Y-166044523D01*
X331914285Y-166139761D01*
X332057142Y-166187380D01*
X332295238Y-166187380D01*
X331533333Y-166282619D02*
X330771428Y-166282619D01*
X330200000Y-165663571D02*
X330057142Y-165711190D01*
X330009523Y-165758809D01*
X329961904Y-165854047D01*
X329961904Y-165996904D01*
X330009523Y-166092142D01*
X330057142Y-166139761D01*
X330152380Y-166187380D01*
X330533333Y-166187380D01*
X330533333Y-165187380D01*
X330200000Y-165187380D01*
X330104761Y-165235000D01*
X330057142Y-165282619D01*
X330009523Y-165377857D01*
X330009523Y-165473095D01*
X330057142Y-165568333D01*
X330104761Y-165615952D01*
X330200000Y-165663571D01*
X330533333Y-165663571D01*
X329009523Y-166187380D02*
X329580952Y-166187380D01*
X329295238Y-166187380D02*
X329295238Y-165187380D01*
X329390476Y-165330238D01*
X329485714Y-165425476D01*
X329580952Y-165473095D01*
X328152380Y-165520714D02*
X328152380Y-166187380D01*
X328390476Y-165139761D02*
X328628571Y-165854047D01*
X328009523Y-165854047D01*
X351345238Y-166187380D02*
X351345238Y-165187380D01*
X351107142Y-165187380D01*
X350964285Y-165235000D01*
X350869047Y-165330238D01*
X350821428Y-165425476D01*
X350773809Y-165615952D01*
X350773809Y-165758809D01*
X350821428Y-165949285D01*
X350869047Y-166044523D01*
X350964285Y-166139761D01*
X351107142Y-166187380D01*
X351345238Y-166187380D01*
X350583333Y-166282619D02*
X349821428Y-166282619D01*
X349250000Y-165663571D02*
X349107142Y-165711190D01*
X349059523Y-165758809D01*
X349011904Y-165854047D01*
X349011904Y-165996904D01*
X349059523Y-166092142D01*
X349107142Y-166139761D01*
X349202380Y-166187380D01*
X349583333Y-166187380D01*
X349583333Y-165187380D01*
X349250000Y-165187380D01*
X349154761Y-165235000D01*
X349107142Y-165282619D01*
X349059523Y-165377857D01*
X349059523Y-165473095D01*
X349107142Y-165568333D01*
X349154761Y-165615952D01*
X349250000Y-165663571D01*
X349583333Y-165663571D01*
X348059523Y-166187380D02*
X348630952Y-166187380D01*
X348345238Y-166187380D02*
X348345238Y-165187380D01*
X348440476Y-165330238D01*
X348535714Y-165425476D01*
X348630952Y-165473095D01*
X347154761Y-165187380D02*
X347630952Y-165187380D01*
X347678571Y-165663571D01*
X347630952Y-165615952D01*
X347535714Y-165568333D01*
X347297619Y-165568333D01*
X347202380Y-165615952D01*
X347154761Y-165663571D01*
X347107142Y-165758809D01*
X347107142Y-165996904D01*
X347154761Y-166092142D01*
X347202380Y-166139761D01*
X347297619Y-166187380D01*
X347535714Y-166187380D01*
X347630952Y-166139761D01*
X347678571Y-166092142D01*
X370395238Y-166187380D02*
X370395238Y-165187380D01*
X370157142Y-165187380D01*
X370014285Y-165235000D01*
X369919047Y-165330238D01*
X369871428Y-165425476D01*
X369823809Y-165615952D01*
X369823809Y-165758809D01*
X369871428Y-165949285D01*
X369919047Y-166044523D01*
X370014285Y-166139761D01*
X370157142Y-166187380D01*
X370395238Y-166187380D01*
X369633333Y-166282619D02*
X368871428Y-166282619D01*
X368300000Y-165663571D02*
X368157142Y-165711190D01*
X368109523Y-165758809D01*
X368061904Y-165854047D01*
X368061904Y-165996904D01*
X368109523Y-166092142D01*
X368157142Y-166139761D01*
X368252380Y-166187380D01*
X368633333Y-166187380D01*
X368633333Y-165187380D01*
X368300000Y-165187380D01*
X368204761Y-165235000D01*
X368157142Y-165282619D01*
X368109523Y-165377857D01*
X368109523Y-165473095D01*
X368157142Y-165568333D01*
X368204761Y-165615952D01*
X368300000Y-165663571D01*
X368633333Y-165663571D01*
X367109523Y-166187380D02*
X367680952Y-166187380D01*
X367395238Y-166187380D02*
X367395238Y-165187380D01*
X367490476Y-165330238D01*
X367585714Y-165425476D01*
X367680952Y-165473095D01*
X366252380Y-165187380D02*
X366442857Y-165187380D01*
X366538095Y-165235000D01*
X366585714Y-165282619D01*
X366680952Y-165425476D01*
X366728571Y-165615952D01*
X366728571Y-165996904D01*
X366680952Y-166092142D01*
X366633333Y-166139761D01*
X366538095Y-166187380D01*
X366347619Y-166187380D01*
X366252380Y-166139761D01*
X366204761Y-166092142D01*
X366157142Y-165996904D01*
X366157142Y-165758809D01*
X366204761Y-165663571D01*
X366252380Y-165615952D01*
X366347619Y-165568333D01*
X366538095Y-165568333D01*
X366633333Y-165615952D01*
X366680952Y-165663571D01*
X366728571Y-165758809D01*
X71469047Y-147137380D02*
X71469047Y-146137380D01*
X71230952Y-146137380D01*
X71088095Y-146185000D01*
X70992857Y-146280238D01*
X70945238Y-146375476D01*
X70897619Y-146565952D01*
X70897619Y-146708809D01*
X70945238Y-146899285D01*
X70992857Y-146994523D01*
X71088095Y-147089761D01*
X71230952Y-147137380D01*
X71469047Y-147137380D01*
X70707142Y-147232619D02*
X69945238Y-147232619D01*
X69135714Y-147042142D02*
X69183333Y-147089761D01*
X69326190Y-147137380D01*
X69421428Y-147137380D01*
X69564285Y-147089761D01*
X69659523Y-146994523D01*
X69707142Y-146899285D01*
X69754761Y-146708809D01*
X69754761Y-146565952D01*
X69707142Y-146375476D01*
X69659523Y-146280238D01*
X69564285Y-146185000D01*
X69421428Y-146137380D01*
X69326190Y-146137380D01*
X69183333Y-146185000D01*
X69135714Y-146232619D01*
X68183333Y-147137380D02*
X68754761Y-147137380D01*
X68469047Y-147137380D02*
X68469047Y-146137380D01*
X68564285Y-146280238D01*
X68659523Y-146375476D01*
X68754761Y-146423095D01*
X90519047Y-147137380D02*
X90519047Y-146137380D01*
X90280952Y-146137380D01*
X90138095Y-146185000D01*
X90042857Y-146280238D01*
X89995238Y-146375476D01*
X89947619Y-146565952D01*
X89947619Y-146708809D01*
X89995238Y-146899285D01*
X90042857Y-146994523D01*
X90138095Y-147089761D01*
X90280952Y-147137380D01*
X90519047Y-147137380D01*
X89757142Y-147232619D02*
X88995238Y-147232619D01*
X88185714Y-147042142D02*
X88233333Y-147089761D01*
X88376190Y-147137380D01*
X88471428Y-147137380D01*
X88614285Y-147089761D01*
X88709523Y-146994523D01*
X88757142Y-146899285D01*
X88804761Y-146708809D01*
X88804761Y-146565952D01*
X88757142Y-146375476D01*
X88709523Y-146280238D01*
X88614285Y-146185000D01*
X88471428Y-146137380D01*
X88376190Y-146137380D01*
X88233333Y-146185000D01*
X88185714Y-146232619D01*
X87804761Y-146232619D02*
X87757142Y-146185000D01*
X87661904Y-146137380D01*
X87423809Y-146137380D01*
X87328571Y-146185000D01*
X87280952Y-146232619D01*
X87233333Y-146327857D01*
X87233333Y-146423095D01*
X87280952Y-146565952D01*
X87852380Y-147137380D01*
X87233333Y-147137380D01*
X109569047Y-147137380D02*
X109569047Y-146137380D01*
X109330952Y-146137380D01*
X109188095Y-146185000D01*
X109092857Y-146280238D01*
X109045238Y-146375476D01*
X108997619Y-146565952D01*
X108997619Y-146708809D01*
X109045238Y-146899285D01*
X109092857Y-146994523D01*
X109188095Y-147089761D01*
X109330952Y-147137380D01*
X109569047Y-147137380D01*
X108807142Y-147232619D02*
X108045238Y-147232619D01*
X107235714Y-147042142D02*
X107283333Y-147089761D01*
X107426190Y-147137380D01*
X107521428Y-147137380D01*
X107664285Y-147089761D01*
X107759523Y-146994523D01*
X107807142Y-146899285D01*
X107854761Y-146708809D01*
X107854761Y-146565952D01*
X107807142Y-146375476D01*
X107759523Y-146280238D01*
X107664285Y-146185000D01*
X107521428Y-146137380D01*
X107426190Y-146137380D01*
X107283333Y-146185000D01*
X107235714Y-146232619D01*
X106902380Y-146137380D02*
X106283333Y-146137380D01*
X106616666Y-146518333D01*
X106473809Y-146518333D01*
X106378571Y-146565952D01*
X106330952Y-146613571D01*
X106283333Y-146708809D01*
X106283333Y-146946904D01*
X106330952Y-147042142D01*
X106378571Y-147089761D01*
X106473809Y-147137380D01*
X106759523Y-147137380D01*
X106854761Y-147089761D01*
X106902380Y-147042142D01*
X128619047Y-147137380D02*
X128619047Y-146137380D01*
X128380952Y-146137380D01*
X128238095Y-146185000D01*
X128142857Y-146280238D01*
X128095238Y-146375476D01*
X128047619Y-146565952D01*
X128047619Y-146708809D01*
X128095238Y-146899285D01*
X128142857Y-146994523D01*
X128238095Y-147089761D01*
X128380952Y-147137380D01*
X128619047Y-147137380D01*
X127857142Y-147232619D02*
X127095238Y-147232619D01*
X126285714Y-147042142D02*
X126333333Y-147089761D01*
X126476190Y-147137380D01*
X126571428Y-147137380D01*
X126714285Y-147089761D01*
X126809523Y-146994523D01*
X126857142Y-146899285D01*
X126904761Y-146708809D01*
X126904761Y-146565952D01*
X126857142Y-146375476D01*
X126809523Y-146280238D01*
X126714285Y-146185000D01*
X126571428Y-146137380D01*
X126476190Y-146137380D01*
X126333333Y-146185000D01*
X126285714Y-146232619D01*
X125428571Y-146470714D02*
X125428571Y-147137380D01*
X125666666Y-146089761D02*
X125904761Y-146804047D01*
X125285714Y-146804047D01*
X147669047Y-147137380D02*
X147669047Y-146137380D01*
X147430952Y-146137380D01*
X147288095Y-146185000D01*
X147192857Y-146280238D01*
X147145238Y-146375476D01*
X147097619Y-146565952D01*
X147097619Y-146708809D01*
X147145238Y-146899285D01*
X147192857Y-146994523D01*
X147288095Y-147089761D01*
X147430952Y-147137380D01*
X147669047Y-147137380D01*
X146907142Y-147232619D02*
X146145238Y-147232619D01*
X145335714Y-147042142D02*
X145383333Y-147089761D01*
X145526190Y-147137380D01*
X145621428Y-147137380D01*
X145764285Y-147089761D01*
X145859523Y-146994523D01*
X145907142Y-146899285D01*
X145954761Y-146708809D01*
X145954761Y-146565952D01*
X145907142Y-146375476D01*
X145859523Y-146280238D01*
X145764285Y-146185000D01*
X145621428Y-146137380D01*
X145526190Y-146137380D01*
X145383333Y-146185000D01*
X145335714Y-146232619D01*
X144430952Y-146137380D02*
X144907142Y-146137380D01*
X144954761Y-146613571D01*
X144907142Y-146565952D01*
X144811904Y-146518333D01*
X144573809Y-146518333D01*
X144478571Y-146565952D01*
X144430952Y-146613571D01*
X144383333Y-146708809D01*
X144383333Y-146946904D01*
X144430952Y-147042142D01*
X144478571Y-147089761D01*
X144573809Y-147137380D01*
X144811904Y-147137380D01*
X144907142Y-147089761D01*
X144954761Y-147042142D01*
X166719047Y-147137380D02*
X166719047Y-146137380D01*
X166480952Y-146137380D01*
X166338095Y-146185000D01*
X166242857Y-146280238D01*
X166195238Y-146375476D01*
X166147619Y-146565952D01*
X166147619Y-146708809D01*
X166195238Y-146899285D01*
X166242857Y-146994523D01*
X166338095Y-147089761D01*
X166480952Y-147137380D01*
X166719047Y-147137380D01*
X165957142Y-147232619D02*
X165195238Y-147232619D01*
X164385714Y-147042142D02*
X164433333Y-147089761D01*
X164576190Y-147137380D01*
X164671428Y-147137380D01*
X164814285Y-147089761D01*
X164909523Y-146994523D01*
X164957142Y-146899285D01*
X165004761Y-146708809D01*
X165004761Y-146565952D01*
X164957142Y-146375476D01*
X164909523Y-146280238D01*
X164814285Y-146185000D01*
X164671428Y-146137380D01*
X164576190Y-146137380D01*
X164433333Y-146185000D01*
X164385714Y-146232619D01*
X163528571Y-146137380D02*
X163719047Y-146137380D01*
X163814285Y-146185000D01*
X163861904Y-146232619D01*
X163957142Y-146375476D01*
X164004761Y-146565952D01*
X164004761Y-146946904D01*
X163957142Y-147042142D01*
X163909523Y-147089761D01*
X163814285Y-147137380D01*
X163623809Y-147137380D01*
X163528571Y-147089761D01*
X163480952Y-147042142D01*
X163433333Y-146946904D01*
X163433333Y-146708809D01*
X163480952Y-146613571D01*
X163528571Y-146565952D01*
X163623809Y-146518333D01*
X163814285Y-146518333D01*
X163909523Y-146565952D01*
X163957142Y-146613571D01*
X164004761Y-146708809D01*
X192119047Y-147137380D02*
X192119047Y-146137380D01*
X191880952Y-146137380D01*
X191738095Y-146185000D01*
X191642857Y-146280238D01*
X191595238Y-146375476D01*
X191547619Y-146565952D01*
X191547619Y-146708809D01*
X191595238Y-146899285D01*
X191642857Y-146994523D01*
X191738095Y-147089761D01*
X191880952Y-147137380D01*
X192119047Y-147137380D01*
X191357142Y-147232619D02*
X190595238Y-147232619D01*
X189785714Y-147042142D02*
X189833333Y-147089761D01*
X189976190Y-147137380D01*
X190071428Y-147137380D01*
X190214285Y-147089761D01*
X190309523Y-146994523D01*
X190357142Y-146899285D01*
X190404761Y-146708809D01*
X190404761Y-146565952D01*
X190357142Y-146375476D01*
X190309523Y-146280238D01*
X190214285Y-146185000D01*
X190071428Y-146137380D01*
X189976190Y-146137380D01*
X189833333Y-146185000D01*
X189785714Y-146232619D01*
X189452380Y-146137380D02*
X188785714Y-146137380D01*
X189214285Y-147137380D01*
X211169047Y-147137380D02*
X211169047Y-146137380D01*
X210930952Y-146137380D01*
X210788095Y-146185000D01*
X210692857Y-146280238D01*
X210645238Y-146375476D01*
X210597619Y-146565952D01*
X210597619Y-146708809D01*
X210645238Y-146899285D01*
X210692857Y-146994523D01*
X210788095Y-147089761D01*
X210930952Y-147137380D01*
X211169047Y-147137380D01*
X210407142Y-147232619D02*
X209645238Y-147232619D01*
X208835714Y-147042142D02*
X208883333Y-147089761D01*
X209026190Y-147137380D01*
X209121428Y-147137380D01*
X209264285Y-147089761D01*
X209359523Y-146994523D01*
X209407142Y-146899285D01*
X209454761Y-146708809D01*
X209454761Y-146565952D01*
X209407142Y-146375476D01*
X209359523Y-146280238D01*
X209264285Y-146185000D01*
X209121428Y-146137380D01*
X209026190Y-146137380D01*
X208883333Y-146185000D01*
X208835714Y-146232619D01*
X208264285Y-146565952D02*
X208359523Y-146518333D01*
X208407142Y-146470714D01*
X208454761Y-146375476D01*
X208454761Y-146327857D01*
X208407142Y-146232619D01*
X208359523Y-146185000D01*
X208264285Y-146137380D01*
X208073809Y-146137380D01*
X207978571Y-146185000D01*
X207930952Y-146232619D01*
X207883333Y-146327857D01*
X207883333Y-146375476D01*
X207930952Y-146470714D01*
X207978571Y-146518333D01*
X208073809Y-146565952D01*
X208264285Y-146565952D01*
X208359523Y-146613571D01*
X208407142Y-146661190D01*
X208454761Y-146756428D01*
X208454761Y-146946904D01*
X208407142Y-147042142D01*
X208359523Y-147089761D01*
X208264285Y-147137380D01*
X208073809Y-147137380D01*
X207978571Y-147089761D01*
X207930952Y-147042142D01*
X207883333Y-146946904D01*
X207883333Y-146756428D01*
X207930952Y-146661190D01*
X207978571Y-146613571D01*
X208073809Y-146565952D01*
X230219047Y-147137380D02*
X230219047Y-146137380D01*
X229980952Y-146137380D01*
X229838095Y-146185000D01*
X229742857Y-146280238D01*
X229695238Y-146375476D01*
X229647619Y-146565952D01*
X229647619Y-146708809D01*
X229695238Y-146899285D01*
X229742857Y-146994523D01*
X229838095Y-147089761D01*
X229980952Y-147137380D01*
X230219047Y-147137380D01*
X229457142Y-147232619D02*
X228695238Y-147232619D01*
X227885714Y-147042142D02*
X227933333Y-147089761D01*
X228076190Y-147137380D01*
X228171428Y-147137380D01*
X228314285Y-147089761D01*
X228409523Y-146994523D01*
X228457142Y-146899285D01*
X228504761Y-146708809D01*
X228504761Y-146565952D01*
X228457142Y-146375476D01*
X228409523Y-146280238D01*
X228314285Y-146185000D01*
X228171428Y-146137380D01*
X228076190Y-146137380D01*
X227933333Y-146185000D01*
X227885714Y-146232619D01*
X227409523Y-147137380D02*
X227219047Y-147137380D01*
X227123809Y-147089761D01*
X227076190Y-147042142D01*
X226980952Y-146899285D01*
X226933333Y-146708809D01*
X226933333Y-146327857D01*
X226980952Y-146232619D01*
X227028571Y-146185000D01*
X227123809Y-146137380D01*
X227314285Y-146137380D01*
X227409523Y-146185000D01*
X227457142Y-146232619D01*
X227504761Y-146327857D01*
X227504761Y-146565952D01*
X227457142Y-146661190D01*
X227409523Y-146708809D01*
X227314285Y-146756428D01*
X227123809Y-146756428D01*
X227028571Y-146708809D01*
X226980952Y-146661190D01*
X226933333Y-146565952D01*
X249745238Y-147137380D02*
X249745238Y-146137380D01*
X249507142Y-146137380D01*
X249364285Y-146185000D01*
X249269047Y-146280238D01*
X249221428Y-146375476D01*
X249173809Y-146565952D01*
X249173809Y-146708809D01*
X249221428Y-146899285D01*
X249269047Y-146994523D01*
X249364285Y-147089761D01*
X249507142Y-147137380D01*
X249745238Y-147137380D01*
X248983333Y-147232619D02*
X248221428Y-147232619D01*
X247411904Y-147042142D02*
X247459523Y-147089761D01*
X247602380Y-147137380D01*
X247697619Y-147137380D01*
X247840476Y-147089761D01*
X247935714Y-146994523D01*
X247983333Y-146899285D01*
X248030952Y-146708809D01*
X248030952Y-146565952D01*
X247983333Y-146375476D01*
X247935714Y-146280238D01*
X247840476Y-146185000D01*
X247697619Y-146137380D01*
X247602380Y-146137380D01*
X247459523Y-146185000D01*
X247411904Y-146232619D01*
X246459523Y-147137380D02*
X247030952Y-147137380D01*
X246745238Y-147137380D02*
X246745238Y-146137380D01*
X246840476Y-146280238D01*
X246935714Y-146375476D01*
X247030952Y-146423095D01*
X245840476Y-146137380D02*
X245745238Y-146137380D01*
X245650000Y-146185000D01*
X245602380Y-146232619D01*
X245554761Y-146327857D01*
X245507142Y-146518333D01*
X245507142Y-146756428D01*
X245554761Y-146946904D01*
X245602380Y-147042142D01*
X245650000Y-147089761D01*
X245745238Y-147137380D01*
X245840476Y-147137380D01*
X245935714Y-147089761D01*
X245983333Y-147042142D01*
X246030952Y-146946904D01*
X246078571Y-146756428D01*
X246078571Y-146518333D01*
X246030952Y-146327857D01*
X245983333Y-146232619D01*
X245935714Y-146185000D01*
X245840476Y-146137380D01*
X275145238Y-147137380D02*
X275145238Y-146137380D01*
X274907142Y-146137380D01*
X274764285Y-146185000D01*
X274669047Y-146280238D01*
X274621428Y-146375476D01*
X274573809Y-146565952D01*
X274573809Y-146708809D01*
X274621428Y-146899285D01*
X274669047Y-146994523D01*
X274764285Y-147089761D01*
X274907142Y-147137380D01*
X275145238Y-147137380D01*
X274383333Y-147232619D02*
X273621428Y-147232619D01*
X272811904Y-147042142D02*
X272859523Y-147089761D01*
X273002380Y-147137380D01*
X273097619Y-147137380D01*
X273240476Y-147089761D01*
X273335714Y-146994523D01*
X273383333Y-146899285D01*
X273430952Y-146708809D01*
X273430952Y-146565952D01*
X273383333Y-146375476D01*
X273335714Y-146280238D01*
X273240476Y-146185000D01*
X273097619Y-146137380D01*
X273002380Y-146137380D01*
X272859523Y-146185000D01*
X272811904Y-146232619D01*
X271859523Y-147137380D02*
X272430952Y-147137380D01*
X272145238Y-147137380D02*
X272145238Y-146137380D01*
X272240476Y-146280238D01*
X272335714Y-146375476D01*
X272430952Y-146423095D01*
X270907142Y-147137380D02*
X271478571Y-147137380D01*
X271192857Y-147137380D02*
X271192857Y-146137380D01*
X271288095Y-146280238D01*
X271383333Y-146375476D01*
X271478571Y-146423095D01*
X294195238Y-147137380D02*
X294195238Y-146137380D01*
X293957142Y-146137380D01*
X293814285Y-146185000D01*
X293719047Y-146280238D01*
X293671428Y-146375476D01*
X293623809Y-146565952D01*
X293623809Y-146708809D01*
X293671428Y-146899285D01*
X293719047Y-146994523D01*
X293814285Y-147089761D01*
X293957142Y-147137380D01*
X294195238Y-147137380D01*
X293433333Y-147232619D02*
X292671428Y-147232619D01*
X291861904Y-147042142D02*
X291909523Y-147089761D01*
X292052380Y-147137380D01*
X292147619Y-147137380D01*
X292290476Y-147089761D01*
X292385714Y-146994523D01*
X292433333Y-146899285D01*
X292480952Y-146708809D01*
X292480952Y-146565952D01*
X292433333Y-146375476D01*
X292385714Y-146280238D01*
X292290476Y-146185000D01*
X292147619Y-146137380D01*
X292052380Y-146137380D01*
X291909523Y-146185000D01*
X291861904Y-146232619D01*
X290909523Y-147137380D02*
X291480952Y-147137380D01*
X291195238Y-147137380D02*
X291195238Y-146137380D01*
X291290476Y-146280238D01*
X291385714Y-146375476D01*
X291480952Y-146423095D01*
X290528571Y-146232619D02*
X290480952Y-146185000D01*
X290385714Y-146137380D01*
X290147619Y-146137380D01*
X290052380Y-146185000D01*
X290004761Y-146232619D01*
X289957142Y-146327857D01*
X289957142Y-146423095D01*
X290004761Y-146565952D01*
X290576190Y-147137380D01*
X289957142Y-147137380D01*
X313245238Y-147137380D02*
X313245238Y-146137380D01*
X313007142Y-146137380D01*
X312864285Y-146185000D01*
X312769047Y-146280238D01*
X312721428Y-146375476D01*
X312673809Y-146565952D01*
X312673809Y-146708809D01*
X312721428Y-146899285D01*
X312769047Y-146994523D01*
X312864285Y-147089761D01*
X313007142Y-147137380D01*
X313245238Y-147137380D01*
X312483333Y-147232619D02*
X311721428Y-147232619D01*
X310911904Y-147042142D02*
X310959523Y-147089761D01*
X311102380Y-147137380D01*
X311197619Y-147137380D01*
X311340476Y-147089761D01*
X311435714Y-146994523D01*
X311483333Y-146899285D01*
X311530952Y-146708809D01*
X311530952Y-146565952D01*
X311483333Y-146375476D01*
X311435714Y-146280238D01*
X311340476Y-146185000D01*
X311197619Y-146137380D01*
X311102380Y-146137380D01*
X310959523Y-146185000D01*
X310911904Y-146232619D01*
X309959523Y-147137380D02*
X310530952Y-147137380D01*
X310245238Y-147137380D02*
X310245238Y-146137380D01*
X310340476Y-146280238D01*
X310435714Y-146375476D01*
X310530952Y-146423095D01*
X309626190Y-146137380D02*
X309007142Y-146137380D01*
X309340476Y-146518333D01*
X309197619Y-146518333D01*
X309102380Y-146565952D01*
X309054761Y-146613571D01*
X309007142Y-146708809D01*
X309007142Y-146946904D01*
X309054761Y-147042142D01*
X309102380Y-147089761D01*
X309197619Y-147137380D01*
X309483333Y-147137380D01*
X309578571Y-147089761D01*
X309626190Y-147042142D01*
X332295238Y-147137380D02*
X332295238Y-146137380D01*
X332057142Y-146137380D01*
X331914285Y-146185000D01*
X331819047Y-146280238D01*
X331771428Y-146375476D01*
X331723809Y-146565952D01*
X331723809Y-146708809D01*
X331771428Y-146899285D01*
X331819047Y-146994523D01*
X331914285Y-147089761D01*
X332057142Y-147137380D01*
X332295238Y-147137380D01*
X331533333Y-147232619D02*
X330771428Y-147232619D01*
X329961904Y-147042142D02*
X330009523Y-147089761D01*
X330152380Y-147137380D01*
X330247619Y-147137380D01*
X330390476Y-147089761D01*
X330485714Y-146994523D01*
X330533333Y-146899285D01*
X330580952Y-146708809D01*
X330580952Y-146565952D01*
X330533333Y-146375476D01*
X330485714Y-146280238D01*
X330390476Y-146185000D01*
X330247619Y-146137380D01*
X330152380Y-146137380D01*
X330009523Y-146185000D01*
X329961904Y-146232619D01*
X329009523Y-147137380D02*
X329580952Y-147137380D01*
X329295238Y-147137380D02*
X329295238Y-146137380D01*
X329390476Y-146280238D01*
X329485714Y-146375476D01*
X329580952Y-146423095D01*
X328152380Y-146470714D02*
X328152380Y-147137380D01*
X328390476Y-146089761D02*
X328628571Y-146804047D01*
X328009523Y-146804047D01*
X351345238Y-147137380D02*
X351345238Y-146137380D01*
X351107142Y-146137380D01*
X350964285Y-146185000D01*
X350869047Y-146280238D01*
X350821428Y-146375476D01*
X350773809Y-146565952D01*
X350773809Y-146708809D01*
X350821428Y-146899285D01*
X350869047Y-146994523D01*
X350964285Y-147089761D01*
X351107142Y-147137380D01*
X351345238Y-147137380D01*
X350583333Y-147232619D02*
X349821428Y-147232619D01*
X349011904Y-147042142D02*
X349059523Y-147089761D01*
X349202380Y-147137380D01*
X349297619Y-147137380D01*
X349440476Y-147089761D01*
X349535714Y-146994523D01*
X349583333Y-146899285D01*
X349630952Y-146708809D01*
X349630952Y-146565952D01*
X349583333Y-146375476D01*
X349535714Y-146280238D01*
X349440476Y-146185000D01*
X349297619Y-146137380D01*
X349202380Y-146137380D01*
X349059523Y-146185000D01*
X349011904Y-146232619D01*
X348059523Y-147137380D02*
X348630952Y-147137380D01*
X348345238Y-147137380D02*
X348345238Y-146137380D01*
X348440476Y-146280238D01*
X348535714Y-146375476D01*
X348630952Y-146423095D01*
X347154761Y-146137380D02*
X347630952Y-146137380D01*
X347678571Y-146613571D01*
X347630952Y-146565952D01*
X347535714Y-146518333D01*
X347297619Y-146518333D01*
X347202380Y-146565952D01*
X347154761Y-146613571D01*
X347107142Y-146708809D01*
X347107142Y-146946904D01*
X347154761Y-147042142D01*
X347202380Y-147089761D01*
X347297619Y-147137380D01*
X347535714Y-147137380D01*
X347630952Y-147089761D01*
X347678571Y-147042142D01*
X370395238Y-147137380D02*
X370395238Y-146137380D01*
X370157142Y-146137380D01*
X370014285Y-146185000D01*
X369919047Y-146280238D01*
X369871428Y-146375476D01*
X369823809Y-146565952D01*
X369823809Y-146708809D01*
X369871428Y-146899285D01*
X369919047Y-146994523D01*
X370014285Y-147089761D01*
X370157142Y-147137380D01*
X370395238Y-147137380D01*
X369633333Y-147232619D02*
X368871428Y-147232619D01*
X368061904Y-147042142D02*
X368109523Y-147089761D01*
X368252380Y-147137380D01*
X368347619Y-147137380D01*
X368490476Y-147089761D01*
X368585714Y-146994523D01*
X368633333Y-146899285D01*
X368680952Y-146708809D01*
X368680952Y-146565952D01*
X368633333Y-146375476D01*
X368585714Y-146280238D01*
X368490476Y-146185000D01*
X368347619Y-146137380D01*
X368252380Y-146137380D01*
X368109523Y-146185000D01*
X368061904Y-146232619D01*
X367109523Y-147137380D02*
X367680952Y-147137380D01*
X367395238Y-147137380D02*
X367395238Y-146137380D01*
X367490476Y-146280238D01*
X367585714Y-146375476D01*
X367680952Y-146423095D01*
X366252380Y-146137380D02*
X366442857Y-146137380D01*
X366538095Y-146185000D01*
X366585714Y-146232619D01*
X366680952Y-146375476D01*
X366728571Y-146565952D01*
X366728571Y-146946904D01*
X366680952Y-147042142D01*
X366633333Y-147089761D01*
X366538095Y-147137380D01*
X366347619Y-147137380D01*
X366252380Y-147089761D01*
X366204761Y-147042142D01*
X366157142Y-146946904D01*
X366157142Y-146708809D01*
X366204761Y-146613571D01*
X366252380Y-146565952D01*
X366347619Y-146518333D01*
X366538095Y-146518333D01*
X366633333Y-146565952D01*
X366680952Y-146613571D01*
X366728571Y-146708809D01*
X71469047Y-128087380D02*
X71469047Y-127087380D01*
X71230952Y-127087380D01*
X71088095Y-127135000D01*
X70992857Y-127230238D01*
X70945238Y-127325476D01*
X70897619Y-127515952D01*
X70897619Y-127658809D01*
X70945238Y-127849285D01*
X70992857Y-127944523D01*
X71088095Y-128039761D01*
X71230952Y-128087380D01*
X71469047Y-128087380D01*
X70707142Y-128182619D02*
X69945238Y-128182619D01*
X69707142Y-128087380D02*
X69707142Y-127087380D01*
X69469047Y-127087380D01*
X69326190Y-127135000D01*
X69230952Y-127230238D01*
X69183333Y-127325476D01*
X69135714Y-127515952D01*
X69135714Y-127658809D01*
X69183333Y-127849285D01*
X69230952Y-127944523D01*
X69326190Y-128039761D01*
X69469047Y-128087380D01*
X69707142Y-128087380D01*
X68183333Y-128087380D02*
X68754761Y-128087380D01*
X68469047Y-128087380D02*
X68469047Y-127087380D01*
X68564285Y-127230238D01*
X68659523Y-127325476D01*
X68754761Y-127373095D01*
X90519047Y-128087380D02*
X90519047Y-127087380D01*
X90280952Y-127087380D01*
X90138095Y-127135000D01*
X90042857Y-127230238D01*
X89995238Y-127325476D01*
X89947619Y-127515952D01*
X89947619Y-127658809D01*
X89995238Y-127849285D01*
X90042857Y-127944523D01*
X90138095Y-128039761D01*
X90280952Y-128087380D01*
X90519047Y-128087380D01*
X89757142Y-128182619D02*
X88995238Y-128182619D01*
X88757142Y-128087380D02*
X88757142Y-127087380D01*
X88519047Y-127087380D01*
X88376190Y-127135000D01*
X88280952Y-127230238D01*
X88233333Y-127325476D01*
X88185714Y-127515952D01*
X88185714Y-127658809D01*
X88233333Y-127849285D01*
X88280952Y-127944523D01*
X88376190Y-128039761D01*
X88519047Y-128087380D01*
X88757142Y-128087380D01*
X87804761Y-127182619D02*
X87757142Y-127135000D01*
X87661904Y-127087380D01*
X87423809Y-127087380D01*
X87328571Y-127135000D01*
X87280952Y-127182619D01*
X87233333Y-127277857D01*
X87233333Y-127373095D01*
X87280952Y-127515952D01*
X87852380Y-128087380D01*
X87233333Y-128087380D01*
X109569047Y-128087380D02*
X109569047Y-127087380D01*
X109330952Y-127087380D01*
X109188095Y-127135000D01*
X109092857Y-127230238D01*
X109045238Y-127325476D01*
X108997619Y-127515952D01*
X108997619Y-127658809D01*
X109045238Y-127849285D01*
X109092857Y-127944523D01*
X109188095Y-128039761D01*
X109330952Y-128087380D01*
X109569047Y-128087380D01*
X108807142Y-128182619D02*
X108045238Y-128182619D01*
X107807142Y-128087380D02*
X107807142Y-127087380D01*
X107569047Y-127087380D01*
X107426190Y-127135000D01*
X107330952Y-127230238D01*
X107283333Y-127325476D01*
X107235714Y-127515952D01*
X107235714Y-127658809D01*
X107283333Y-127849285D01*
X107330952Y-127944523D01*
X107426190Y-128039761D01*
X107569047Y-128087380D01*
X107807142Y-128087380D01*
X106902380Y-127087380D02*
X106283333Y-127087380D01*
X106616666Y-127468333D01*
X106473809Y-127468333D01*
X106378571Y-127515952D01*
X106330952Y-127563571D01*
X106283333Y-127658809D01*
X106283333Y-127896904D01*
X106330952Y-127992142D01*
X106378571Y-128039761D01*
X106473809Y-128087380D01*
X106759523Y-128087380D01*
X106854761Y-128039761D01*
X106902380Y-127992142D01*
X128619047Y-128087380D02*
X128619047Y-127087380D01*
X128380952Y-127087380D01*
X128238095Y-127135000D01*
X128142857Y-127230238D01*
X128095238Y-127325476D01*
X128047619Y-127515952D01*
X128047619Y-127658809D01*
X128095238Y-127849285D01*
X128142857Y-127944523D01*
X128238095Y-128039761D01*
X128380952Y-128087380D01*
X128619047Y-128087380D01*
X127857142Y-128182619D02*
X127095238Y-128182619D01*
X126857142Y-128087380D02*
X126857142Y-127087380D01*
X126619047Y-127087380D01*
X126476190Y-127135000D01*
X126380952Y-127230238D01*
X126333333Y-127325476D01*
X126285714Y-127515952D01*
X126285714Y-127658809D01*
X126333333Y-127849285D01*
X126380952Y-127944523D01*
X126476190Y-128039761D01*
X126619047Y-128087380D01*
X126857142Y-128087380D01*
X125428571Y-127420714D02*
X125428571Y-128087380D01*
X125666666Y-127039761D02*
X125904761Y-127754047D01*
X125285714Y-127754047D01*
X147669047Y-128087380D02*
X147669047Y-127087380D01*
X147430952Y-127087380D01*
X147288095Y-127135000D01*
X147192857Y-127230238D01*
X147145238Y-127325476D01*
X147097619Y-127515952D01*
X147097619Y-127658809D01*
X147145238Y-127849285D01*
X147192857Y-127944523D01*
X147288095Y-128039761D01*
X147430952Y-128087380D01*
X147669047Y-128087380D01*
X146907142Y-128182619D02*
X146145238Y-128182619D01*
X145907142Y-128087380D02*
X145907142Y-127087380D01*
X145669047Y-127087380D01*
X145526190Y-127135000D01*
X145430952Y-127230238D01*
X145383333Y-127325476D01*
X145335714Y-127515952D01*
X145335714Y-127658809D01*
X145383333Y-127849285D01*
X145430952Y-127944523D01*
X145526190Y-128039761D01*
X145669047Y-128087380D01*
X145907142Y-128087380D01*
X144430952Y-127087380D02*
X144907142Y-127087380D01*
X144954761Y-127563571D01*
X144907142Y-127515952D01*
X144811904Y-127468333D01*
X144573809Y-127468333D01*
X144478571Y-127515952D01*
X144430952Y-127563571D01*
X144383333Y-127658809D01*
X144383333Y-127896904D01*
X144430952Y-127992142D01*
X144478571Y-128039761D01*
X144573809Y-128087380D01*
X144811904Y-128087380D01*
X144907142Y-128039761D01*
X144954761Y-127992142D01*
X166719047Y-128087380D02*
X166719047Y-127087380D01*
X166480952Y-127087380D01*
X166338095Y-127135000D01*
X166242857Y-127230238D01*
X166195238Y-127325476D01*
X166147619Y-127515952D01*
X166147619Y-127658809D01*
X166195238Y-127849285D01*
X166242857Y-127944523D01*
X166338095Y-128039761D01*
X166480952Y-128087380D01*
X166719047Y-128087380D01*
X165957142Y-128182619D02*
X165195238Y-128182619D01*
X164957142Y-128087380D02*
X164957142Y-127087380D01*
X164719047Y-127087380D01*
X164576190Y-127135000D01*
X164480952Y-127230238D01*
X164433333Y-127325476D01*
X164385714Y-127515952D01*
X164385714Y-127658809D01*
X164433333Y-127849285D01*
X164480952Y-127944523D01*
X164576190Y-128039761D01*
X164719047Y-128087380D01*
X164957142Y-128087380D01*
X163528571Y-127087380D02*
X163719047Y-127087380D01*
X163814285Y-127135000D01*
X163861904Y-127182619D01*
X163957142Y-127325476D01*
X164004761Y-127515952D01*
X164004761Y-127896904D01*
X163957142Y-127992142D01*
X163909523Y-128039761D01*
X163814285Y-128087380D01*
X163623809Y-128087380D01*
X163528571Y-128039761D01*
X163480952Y-127992142D01*
X163433333Y-127896904D01*
X163433333Y-127658809D01*
X163480952Y-127563571D01*
X163528571Y-127515952D01*
X163623809Y-127468333D01*
X163814285Y-127468333D01*
X163909523Y-127515952D01*
X163957142Y-127563571D01*
X164004761Y-127658809D01*
X192119047Y-128087380D02*
X192119047Y-127087380D01*
X191880952Y-127087380D01*
X191738095Y-127135000D01*
X191642857Y-127230238D01*
X191595238Y-127325476D01*
X191547619Y-127515952D01*
X191547619Y-127658809D01*
X191595238Y-127849285D01*
X191642857Y-127944523D01*
X191738095Y-128039761D01*
X191880952Y-128087380D01*
X192119047Y-128087380D01*
X191357142Y-128182619D02*
X190595238Y-128182619D01*
X190357142Y-128087380D02*
X190357142Y-127087380D01*
X190119047Y-127087380D01*
X189976190Y-127135000D01*
X189880952Y-127230238D01*
X189833333Y-127325476D01*
X189785714Y-127515952D01*
X189785714Y-127658809D01*
X189833333Y-127849285D01*
X189880952Y-127944523D01*
X189976190Y-128039761D01*
X190119047Y-128087380D01*
X190357142Y-128087380D01*
X189452380Y-127087380D02*
X188785714Y-127087380D01*
X189214285Y-128087380D01*
X211169047Y-128087380D02*
X211169047Y-127087380D01*
X210930952Y-127087380D01*
X210788095Y-127135000D01*
X210692857Y-127230238D01*
X210645238Y-127325476D01*
X210597619Y-127515952D01*
X210597619Y-127658809D01*
X210645238Y-127849285D01*
X210692857Y-127944523D01*
X210788095Y-128039761D01*
X210930952Y-128087380D01*
X211169047Y-128087380D01*
X210407142Y-128182619D02*
X209645238Y-128182619D01*
X209407142Y-128087380D02*
X209407142Y-127087380D01*
X209169047Y-127087380D01*
X209026190Y-127135000D01*
X208930952Y-127230238D01*
X208883333Y-127325476D01*
X208835714Y-127515952D01*
X208835714Y-127658809D01*
X208883333Y-127849285D01*
X208930952Y-127944523D01*
X209026190Y-128039761D01*
X209169047Y-128087380D01*
X209407142Y-128087380D01*
X208264285Y-127515952D02*
X208359523Y-127468333D01*
X208407142Y-127420714D01*
X208454761Y-127325476D01*
X208454761Y-127277857D01*
X208407142Y-127182619D01*
X208359523Y-127135000D01*
X208264285Y-127087380D01*
X208073809Y-127087380D01*
X207978571Y-127135000D01*
X207930952Y-127182619D01*
X207883333Y-127277857D01*
X207883333Y-127325476D01*
X207930952Y-127420714D01*
X207978571Y-127468333D01*
X208073809Y-127515952D01*
X208264285Y-127515952D01*
X208359523Y-127563571D01*
X208407142Y-127611190D01*
X208454761Y-127706428D01*
X208454761Y-127896904D01*
X208407142Y-127992142D01*
X208359523Y-128039761D01*
X208264285Y-128087380D01*
X208073809Y-128087380D01*
X207978571Y-128039761D01*
X207930952Y-127992142D01*
X207883333Y-127896904D01*
X207883333Y-127706428D01*
X207930952Y-127611190D01*
X207978571Y-127563571D01*
X208073809Y-127515952D01*
X230219047Y-128087380D02*
X230219047Y-127087380D01*
X229980952Y-127087380D01*
X229838095Y-127135000D01*
X229742857Y-127230238D01*
X229695238Y-127325476D01*
X229647619Y-127515952D01*
X229647619Y-127658809D01*
X229695238Y-127849285D01*
X229742857Y-127944523D01*
X229838095Y-128039761D01*
X229980952Y-128087380D01*
X230219047Y-128087380D01*
X229457142Y-128182619D02*
X228695238Y-128182619D01*
X228457142Y-128087380D02*
X228457142Y-127087380D01*
X228219047Y-127087380D01*
X228076190Y-127135000D01*
X227980952Y-127230238D01*
X227933333Y-127325476D01*
X227885714Y-127515952D01*
X227885714Y-127658809D01*
X227933333Y-127849285D01*
X227980952Y-127944523D01*
X228076190Y-128039761D01*
X228219047Y-128087380D01*
X228457142Y-128087380D01*
X227409523Y-128087380D02*
X227219047Y-128087380D01*
X227123809Y-128039761D01*
X227076190Y-127992142D01*
X226980952Y-127849285D01*
X226933333Y-127658809D01*
X226933333Y-127277857D01*
X226980952Y-127182619D01*
X227028571Y-127135000D01*
X227123809Y-127087380D01*
X227314285Y-127087380D01*
X227409523Y-127135000D01*
X227457142Y-127182619D01*
X227504761Y-127277857D01*
X227504761Y-127515952D01*
X227457142Y-127611190D01*
X227409523Y-127658809D01*
X227314285Y-127706428D01*
X227123809Y-127706428D01*
X227028571Y-127658809D01*
X226980952Y-127611190D01*
X226933333Y-127515952D01*
X245935238Y-128087380D02*
X245935238Y-127087380D01*
X245697142Y-127087380D01*
X245554285Y-127135000D01*
X245459047Y-127230238D01*
X245411428Y-127325476D01*
X245363809Y-127515952D01*
X245363809Y-127658809D01*
X245411428Y-127849285D01*
X245459047Y-127944523D01*
X245554285Y-128039761D01*
X245697142Y-128087380D01*
X245935238Y-128087380D01*
X245173333Y-128182619D02*
X244411428Y-128182619D01*
X244173333Y-128087380D02*
X244173333Y-127087380D01*
X243935238Y-127087380D01*
X243792380Y-127135000D01*
X243697142Y-127230238D01*
X243649523Y-127325476D01*
X243601904Y-127515952D01*
X243601904Y-127658809D01*
X243649523Y-127849285D01*
X243697142Y-127944523D01*
X243792380Y-128039761D01*
X243935238Y-128087380D01*
X244173333Y-128087380D01*
X242649523Y-128087380D02*
X243220952Y-128087380D01*
X242935238Y-128087380D02*
X242935238Y-127087380D01*
X243030476Y-127230238D01*
X243125714Y-127325476D01*
X243220952Y-127373095D01*
X242030476Y-127087380D02*
X241935238Y-127087380D01*
X241840000Y-127135000D01*
X241792380Y-127182619D01*
X241744761Y-127277857D01*
X241697142Y-127468333D01*
X241697142Y-127706428D01*
X241744761Y-127896904D01*
X241792380Y-127992142D01*
X241840000Y-128039761D01*
X241935238Y-128087380D01*
X242030476Y-128087380D01*
X242125714Y-128039761D01*
X242173333Y-127992142D01*
X242220952Y-127896904D01*
X242268571Y-127706428D01*
X242268571Y-127468333D01*
X242220952Y-127277857D01*
X242173333Y-127182619D01*
X242125714Y-127135000D01*
X242030476Y-127087380D01*
X275145238Y-128087380D02*
X275145238Y-127087380D01*
X274907142Y-127087380D01*
X274764285Y-127135000D01*
X274669047Y-127230238D01*
X274621428Y-127325476D01*
X274573809Y-127515952D01*
X274573809Y-127658809D01*
X274621428Y-127849285D01*
X274669047Y-127944523D01*
X274764285Y-128039761D01*
X274907142Y-128087380D01*
X275145238Y-128087380D01*
X274383333Y-128182619D02*
X273621428Y-128182619D01*
X273383333Y-128087380D02*
X273383333Y-127087380D01*
X273145238Y-127087380D01*
X273002380Y-127135000D01*
X272907142Y-127230238D01*
X272859523Y-127325476D01*
X272811904Y-127515952D01*
X272811904Y-127658809D01*
X272859523Y-127849285D01*
X272907142Y-127944523D01*
X273002380Y-128039761D01*
X273145238Y-128087380D01*
X273383333Y-128087380D01*
X271859523Y-128087380D02*
X272430952Y-128087380D01*
X272145238Y-128087380D02*
X272145238Y-127087380D01*
X272240476Y-127230238D01*
X272335714Y-127325476D01*
X272430952Y-127373095D01*
X270907142Y-128087380D02*
X271478571Y-128087380D01*
X271192857Y-128087380D02*
X271192857Y-127087380D01*
X271288095Y-127230238D01*
X271383333Y-127325476D01*
X271478571Y-127373095D01*
X294195238Y-128087380D02*
X294195238Y-127087380D01*
X293957142Y-127087380D01*
X293814285Y-127135000D01*
X293719047Y-127230238D01*
X293671428Y-127325476D01*
X293623809Y-127515952D01*
X293623809Y-127658809D01*
X293671428Y-127849285D01*
X293719047Y-127944523D01*
X293814285Y-128039761D01*
X293957142Y-128087380D01*
X294195238Y-128087380D01*
X293433333Y-128182619D02*
X292671428Y-128182619D01*
X292433333Y-128087380D02*
X292433333Y-127087380D01*
X292195238Y-127087380D01*
X292052380Y-127135000D01*
X291957142Y-127230238D01*
X291909523Y-127325476D01*
X291861904Y-127515952D01*
X291861904Y-127658809D01*
X291909523Y-127849285D01*
X291957142Y-127944523D01*
X292052380Y-128039761D01*
X292195238Y-128087380D01*
X292433333Y-128087380D01*
X290909523Y-128087380D02*
X291480952Y-128087380D01*
X291195238Y-128087380D02*
X291195238Y-127087380D01*
X291290476Y-127230238D01*
X291385714Y-127325476D01*
X291480952Y-127373095D01*
X290528571Y-127182619D02*
X290480952Y-127135000D01*
X290385714Y-127087380D01*
X290147619Y-127087380D01*
X290052380Y-127135000D01*
X290004761Y-127182619D01*
X289957142Y-127277857D01*
X289957142Y-127373095D01*
X290004761Y-127515952D01*
X290576190Y-128087380D01*
X289957142Y-128087380D01*
X313245238Y-128087380D02*
X313245238Y-127087380D01*
X313007142Y-127087380D01*
X312864285Y-127135000D01*
X312769047Y-127230238D01*
X312721428Y-127325476D01*
X312673809Y-127515952D01*
X312673809Y-127658809D01*
X312721428Y-127849285D01*
X312769047Y-127944523D01*
X312864285Y-128039761D01*
X313007142Y-128087380D01*
X313245238Y-128087380D01*
X312483333Y-128182619D02*
X311721428Y-128182619D01*
X311483333Y-128087380D02*
X311483333Y-127087380D01*
X311245238Y-127087380D01*
X311102380Y-127135000D01*
X311007142Y-127230238D01*
X310959523Y-127325476D01*
X310911904Y-127515952D01*
X310911904Y-127658809D01*
X310959523Y-127849285D01*
X311007142Y-127944523D01*
X311102380Y-128039761D01*
X311245238Y-128087380D01*
X311483333Y-128087380D01*
X309959523Y-128087380D02*
X310530952Y-128087380D01*
X310245238Y-128087380D02*
X310245238Y-127087380D01*
X310340476Y-127230238D01*
X310435714Y-127325476D01*
X310530952Y-127373095D01*
X309626190Y-127087380D02*
X309007142Y-127087380D01*
X309340476Y-127468333D01*
X309197619Y-127468333D01*
X309102380Y-127515952D01*
X309054761Y-127563571D01*
X309007142Y-127658809D01*
X309007142Y-127896904D01*
X309054761Y-127992142D01*
X309102380Y-128039761D01*
X309197619Y-128087380D01*
X309483333Y-128087380D01*
X309578571Y-128039761D01*
X309626190Y-127992142D01*
X332295238Y-128087380D02*
X332295238Y-127087380D01*
X332057142Y-127087380D01*
X331914285Y-127135000D01*
X331819047Y-127230238D01*
X331771428Y-127325476D01*
X331723809Y-127515952D01*
X331723809Y-127658809D01*
X331771428Y-127849285D01*
X331819047Y-127944523D01*
X331914285Y-128039761D01*
X332057142Y-128087380D01*
X332295238Y-128087380D01*
X331533333Y-128182619D02*
X330771428Y-128182619D01*
X330533333Y-128087380D02*
X330533333Y-127087380D01*
X330295238Y-127087380D01*
X330152380Y-127135000D01*
X330057142Y-127230238D01*
X330009523Y-127325476D01*
X329961904Y-127515952D01*
X329961904Y-127658809D01*
X330009523Y-127849285D01*
X330057142Y-127944523D01*
X330152380Y-128039761D01*
X330295238Y-128087380D01*
X330533333Y-128087380D01*
X329009523Y-128087380D02*
X329580952Y-128087380D01*
X329295238Y-128087380D02*
X329295238Y-127087380D01*
X329390476Y-127230238D01*
X329485714Y-127325476D01*
X329580952Y-127373095D01*
X328152380Y-127420714D02*
X328152380Y-128087380D01*
X328390476Y-127039761D02*
X328628571Y-127754047D01*
X328009523Y-127754047D01*
X351345238Y-128087380D02*
X351345238Y-127087380D01*
X351107142Y-127087380D01*
X350964285Y-127135000D01*
X350869047Y-127230238D01*
X350821428Y-127325476D01*
X350773809Y-127515952D01*
X350773809Y-127658809D01*
X350821428Y-127849285D01*
X350869047Y-127944523D01*
X350964285Y-128039761D01*
X351107142Y-128087380D01*
X351345238Y-128087380D01*
X350583333Y-128182619D02*
X349821428Y-128182619D01*
X349583333Y-128087380D02*
X349583333Y-127087380D01*
X349345238Y-127087380D01*
X349202380Y-127135000D01*
X349107142Y-127230238D01*
X349059523Y-127325476D01*
X349011904Y-127515952D01*
X349011904Y-127658809D01*
X349059523Y-127849285D01*
X349107142Y-127944523D01*
X349202380Y-128039761D01*
X349345238Y-128087380D01*
X349583333Y-128087380D01*
X348059523Y-128087380D02*
X348630952Y-128087380D01*
X348345238Y-128087380D02*
X348345238Y-127087380D01*
X348440476Y-127230238D01*
X348535714Y-127325476D01*
X348630952Y-127373095D01*
X347154761Y-127087380D02*
X347630952Y-127087380D01*
X347678571Y-127563571D01*
X347630952Y-127515952D01*
X347535714Y-127468333D01*
X347297619Y-127468333D01*
X347202380Y-127515952D01*
X347154761Y-127563571D01*
X347107142Y-127658809D01*
X347107142Y-127896904D01*
X347154761Y-127992142D01*
X347202380Y-128039761D01*
X347297619Y-128087380D01*
X347535714Y-128087380D01*
X347630952Y-128039761D01*
X347678571Y-127992142D01*
X370395238Y-128087380D02*
X370395238Y-127087380D01*
X370157142Y-127087380D01*
X370014285Y-127135000D01*
X369919047Y-127230238D01*
X369871428Y-127325476D01*
X369823809Y-127515952D01*
X369823809Y-127658809D01*
X369871428Y-127849285D01*
X369919047Y-127944523D01*
X370014285Y-128039761D01*
X370157142Y-128087380D01*
X370395238Y-128087380D01*
X369633333Y-128182619D02*
X368871428Y-128182619D01*
X368633333Y-128087380D02*
X368633333Y-127087380D01*
X368395238Y-127087380D01*
X368252380Y-127135000D01*
X368157142Y-127230238D01*
X368109523Y-127325476D01*
X368061904Y-127515952D01*
X368061904Y-127658809D01*
X368109523Y-127849285D01*
X368157142Y-127944523D01*
X368252380Y-128039761D01*
X368395238Y-128087380D01*
X368633333Y-128087380D01*
X367109523Y-128087380D02*
X367680952Y-128087380D01*
X367395238Y-128087380D02*
X367395238Y-127087380D01*
X367490476Y-127230238D01*
X367585714Y-127325476D01*
X367680952Y-127373095D01*
X366252380Y-127087380D02*
X366442857Y-127087380D01*
X366538095Y-127135000D01*
X366585714Y-127182619D01*
X366680952Y-127325476D01*
X366728571Y-127515952D01*
X366728571Y-127896904D01*
X366680952Y-127992142D01*
X366633333Y-128039761D01*
X366538095Y-128087380D01*
X366347619Y-128087380D01*
X366252380Y-128039761D01*
X366204761Y-127992142D01*
X366157142Y-127896904D01*
X366157142Y-127658809D01*
X366204761Y-127563571D01*
X366252380Y-127515952D01*
X366347619Y-127468333D01*
X366538095Y-127468333D01*
X366633333Y-127515952D01*
X366680952Y-127563571D01*
X366728571Y-127658809D01*
X71421428Y-109037380D02*
X71421428Y-108037380D01*
X71183333Y-108037380D01*
X71040476Y-108085000D01*
X70945238Y-108180238D01*
X70897619Y-108275476D01*
X70850000Y-108465952D01*
X70850000Y-108608809D01*
X70897619Y-108799285D01*
X70945238Y-108894523D01*
X71040476Y-108989761D01*
X71183333Y-109037380D01*
X71421428Y-109037380D01*
X70659523Y-109132619D02*
X69897619Y-109132619D01*
X69659523Y-108513571D02*
X69326190Y-108513571D01*
X69183333Y-109037380D02*
X69659523Y-109037380D01*
X69659523Y-108037380D01*
X69183333Y-108037380D01*
X68230952Y-109037380D02*
X68802380Y-109037380D01*
X68516666Y-109037380D02*
X68516666Y-108037380D01*
X68611904Y-108180238D01*
X68707142Y-108275476D01*
X68802380Y-108323095D01*
X90471428Y-109037380D02*
X90471428Y-108037380D01*
X90233333Y-108037380D01*
X90090476Y-108085000D01*
X89995238Y-108180238D01*
X89947619Y-108275476D01*
X89900000Y-108465952D01*
X89900000Y-108608809D01*
X89947619Y-108799285D01*
X89995238Y-108894523D01*
X90090476Y-108989761D01*
X90233333Y-109037380D01*
X90471428Y-109037380D01*
X89709523Y-109132619D02*
X88947619Y-109132619D01*
X88709523Y-108513571D02*
X88376190Y-108513571D01*
X88233333Y-109037380D02*
X88709523Y-109037380D01*
X88709523Y-108037380D01*
X88233333Y-108037380D01*
X87852380Y-108132619D02*
X87804761Y-108085000D01*
X87709523Y-108037380D01*
X87471428Y-108037380D01*
X87376190Y-108085000D01*
X87328571Y-108132619D01*
X87280952Y-108227857D01*
X87280952Y-108323095D01*
X87328571Y-108465952D01*
X87900000Y-109037380D01*
X87280952Y-109037380D01*
X109521428Y-109037380D02*
X109521428Y-108037380D01*
X109283333Y-108037380D01*
X109140476Y-108085000D01*
X109045238Y-108180238D01*
X108997619Y-108275476D01*
X108950000Y-108465952D01*
X108950000Y-108608809D01*
X108997619Y-108799285D01*
X109045238Y-108894523D01*
X109140476Y-108989761D01*
X109283333Y-109037380D01*
X109521428Y-109037380D01*
X108759523Y-109132619D02*
X107997619Y-109132619D01*
X107759523Y-108513571D02*
X107426190Y-108513571D01*
X107283333Y-109037380D02*
X107759523Y-109037380D01*
X107759523Y-108037380D01*
X107283333Y-108037380D01*
X106950000Y-108037380D02*
X106330952Y-108037380D01*
X106664285Y-108418333D01*
X106521428Y-108418333D01*
X106426190Y-108465952D01*
X106378571Y-108513571D01*
X106330952Y-108608809D01*
X106330952Y-108846904D01*
X106378571Y-108942142D01*
X106426190Y-108989761D01*
X106521428Y-109037380D01*
X106807142Y-109037380D01*
X106902380Y-108989761D01*
X106950000Y-108942142D01*
X128571428Y-109037380D02*
X128571428Y-108037380D01*
X128333333Y-108037380D01*
X128190476Y-108085000D01*
X128095238Y-108180238D01*
X128047619Y-108275476D01*
X128000000Y-108465952D01*
X128000000Y-108608809D01*
X128047619Y-108799285D01*
X128095238Y-108894523D01*
X128190476Y-108989761D01*
X128333333Y-109037380D01*
X128571428Y-109037380D01*
X127809523Y-109132619D02*
X127047619Y-109132619D01*
X126809523Y-108513571D02*
X126476190Y-108513571D01*
X126333333Y-109037380D02*
X126809523Y-109037380D01*
X126809523Y-108037380D01*
X126333333Y-108037380D01*
X125476190Y-108370714D02*
X125476190Y-109037380D01*
X125714285Y-107989761D02*
X125952380Y-108704047D01*
X125333333Y-108704047D01*
X147621428Y-109037380D02*
X147621428Y-108037380D01*
X147383333Y-108037380D01*
X147240476Y-108085000D01*
X147145238Y-108180238D01*
X147097619Y-108275476D01*
X147050000Y-108465952D01*
X147050000Y-108608809D01*
X147097619Y-108799285D01*
X147145238Y-108894523D01*
X147240476Y-108989761D01*
X147383333Y-109037380D01*
X147621428Y-109037380D01*
X146859523Y-109132619D02*
X146097619Y-109132619D01*
X145859523Y-108513571D02*
X145526190Y-108513571D01*
X145383333Y-109037380D02*
X145859523Y-109037380D01*
X145859523Y-108037380D01*
X145383333Y-108037380D01*
X144478571Y-108037380D02*
X144954761Y-108037380D01*
X145002380Y-108513571D01*
X144954761Y-108465952D01*
X144859523Y-108418333D01*
X144621428Y-108418333D01*
X144526190Y-108465952D01*
X144478571Y-108513571D01*
X144430952Y-108608809D01*
X144430952Y-108846904D01*
X144478571Y-108942142D01*
X144526190Y-108989761D01*
X144621428Y-109037380D01*
X144859523Y-109037380D01*
X144954761Y-108989761D01*
X145002380Y-108942142D01*
X166671428Y-109037380D02*
X166671428Y-108037380D01*
X166433333Y-108037380D01*
X166290476Y-108085000D01*
X166195238Y-108180238D01*
X166147619Y-108275476D01*
X166100000Y-108465952D01*
X166100000Y-108608809D01*
X166147619Y-108799285D01*
X166195238Y-108894523D01*
X166290476Y-108989761D01*
X166433333Y-109037380D01*
X166671428Y-109037380D01*
X165909523Y-109132619D02*
X165147619Y-109132619D01*
X164909523Y-108513571D02*
X164576190Y-108513571D01*
X164433333Y-109037380D02*
X164909523Y-109037380D01*
X164909523Y-108037380D01*
X164433333Y-108037380D01*
X163576190Y-108037380D02*
X163766666Y-108037380D01*
X163861904Y-108085000D01*
X163909523Y-108132619D01*
X164004761Y-108275476D01*
X164052380Y-108465952D01*
X164052380Y-108846904D01*
X164004761Y-108942142D01*
X163957142Y-108989761D01*
X163861904Y-109037380D01*
X163671428Y-109037380D01*
X163576190Y-108989761D01*
X163528571Y-108942142D01*
X163480952Y-108846904D01*
X163480952Y-108608809D01*
X163528571Y-108513571D01*
X163576190Y-108465952D01*
X163671428Y-108418333D01*
X163861904Y-108418333D01*
X163957142Y-108465952D01*
X164004761Y-108513571D01*
X164052380Y-108608809D01*
X192071428Y-109037380D02*
X192071428Y-108037380D01*
X191833333Y-108037380D01*
X191690476Y-108085000D01*
X191595238Y-108180238D01*
X191547619Y-108275476D01*
X191500000Y-108465952D01*
X191500000Y-108608809D01*
X191547619Y-108799285D01*
X191595238Y-108894523D01*
X191690476Y-108989761D01*
X191833333Y-109037380D01*
X192071428Y-109037380D01*
X191309523Y-109132619D02*
X190547619Y-109132619D01*
X190309523Y-108513571D02*
X189976190Y-108513571D01*
X189833333Y-109037380D02*
X190309523Y-109037380D01*
X190309523Y-108037380D01*
X189833333Y-108037380D01*
X189500000Y-108037380D02*
X188833333Y-108037380D01*
X189261904Y-109037380D01*
X211121428Y-109037380D02*
X211121428Y-108037380D01*
X210883333Y-108037380D01*
X210740476Y-108085000D01*
X210645238Y-108180238D01*
X210597619Y-108275476D01*
X210550000Y-108465952D01*
X210550000Y-108608809D01*
X210597619Y-108799285D01*
X210645238Y-108894523D01*
X210740476Y-108989761D01*
X210883333Y-109037380D01*
X211121428Y-109037380D01*
X210359523Y-109132619D02*
X209597619Y-109132619D01*
X209359523Y-108513571D02*
X209026190Y-108513571D01*
X208883333Y-109037380D02*
X209359523Y-109037380D01*
X209359523Y-108037380D01*
X208883333Y-108037380D01*
X208311904Y-108465952D02*
X208407142Y-108418333D01*
X208454761Y-108370714D01*
X208502380Y-108275476D01*
X208502380Y-108227857D01*
X208454761Y-108132619D01*
X208407142Y-108085000D01*
X208311904Y-108037380D01*
X208121428Y-108037380D01*
X208026190Y-108085000D01*
X207978571Y-108132619D01*
X207930952Y-108227857D01*
X207930952Y-108275476D01*
X207978571Y-108370714D01*
X208026190Y-108418333D01*
X208121428Y-108465952D01*
X208311904Y-108465952D01*
X208407142Y-108513571D01*
X208454761Y-108561190D01*
X208502380Y-108656428D01*
X208502380Y-108846904D01*
X208454761Y-108942142D01*
X208407142Y-108989761D01*
X208311904Y-109037380D01*
X208121428Y-109037380D01*
X208026190Y-108989761D01*
X207978571Y-108942142D01*
X207930952Y-108846904D01*
X207930952Y-108656428D01*
X207978571Y-108561190D01*
X208026190Y-108513571D01*
X208121428Y-108465952D01*
X230171428Y-109037380D02*
X230171428Y-108037380D01*
X229933333Y-108037380D01*
X229790476Y-108085000D01*
X229695238Y-108180238D01*
X229647619Y-108275476D01*
X229600000Y-108465952D01*
X229600000Y-108608809D01*
X229647619Y-108799285D01*
X229695238Y-108894523D01*
X229790476Y-108989761D01*
X229933333Y-109037380D01*
X230171428Y-109037380D01*
X229409523Y-109132619D02*
X228647619Y-109132619D01*
X228409523Y-108513571D02*
X228076190Y-108513571D01*
X227933333Y-109037380D02*
X228409523Y-109037380D01*
X228409523Y-108037380D01*
X227933333Y-108037380D01*
X227457142Y-109037380D02*
X227266666Y-109037380D01*
X227171428Y-108989761D01*
X227123809Y-108942142D01*
X227028571Y-108799285D01*
X226980952Y-108608809D01*
X226980952Y-108227857D01*
X227028571Y-108132619D01*
X227076190Y-108085000D01*
X227171428Y-108037380D01*
X227361904Y-108037380D01*
X227457142Y-108085000D01*
X227504761Y-108132619D01*
X227552380Y-108227857D01*
X227552380Y-108465952D01*
X227504761Y-108561190D01*
X227457142Y-108608809D01*
X227361904Y-108656428D01*
X227171428Y-108656428D01*
X227076190Y-108608809D01*
X227028571Y-108561190D01*
X226980952Y-108465952D01*
X249697619Y-109037380D02*
X249697619Y-108037380D01*
X249459523Y-108037380D01*
X249316666Y-108085000D01*
X249221428Y-108180238D01*
X249173809Y-108275476D01*
X249126190Y-108465952D01*
X249126190Y-108608809D01*
X249173809Y-108799285D01*
X249221428Y-108894523D01*
X249316666Y-108989761D01*
X249459523Y-109037380D01*
X249697619Y-109037380D01*
X248935714Y-109132619D02*
X248173809Y-109132619D01*
X247935714Y-108513571D02*
X247602380Y-108513571D01*
X247459523Y-109037380D02*
X247935714Y-109037380D01*
X247935714Y-108037380D01*
X247459523Y-108037380D01*
X246507142Y-109037380D02*
X247078571Y-109037380D01*
X246792857Y-109037380D02*
X246792857Y-108037380D01*
X246888095Y-108180238D01*
X246983333Y-108275476D01*
X247078571Y-108323095D01*
X245888095Y-108037380D02*
X245792857Y-108037380D01*
X245697619Y-108085000D01*
X245650000Y-108132619D01*
X245602380Y-108227857D01*
X245554761Y-108418333D01*
X245554761Y-108656428D01*
X245602380Y-108846904D01*
X245650000Y-108942142D01*
X245697619Y-108989761D01*
X245792857Y-109037380D01*
X245888095Y-109037380D01*
X245983333Y-108989761D01*
X246030952Y-108942142D01*
X246078571Y-108846904D01*
X246126190Y-108656428D01*
X246126190Y-108418333D01*
X246078571Y-108227857D01*
X246030952Y-108132619D01*
X245983333Y-108085000D01*
X245888095Y-108037380D01*
X275097619Y-109037380D02*
X275097619Y-108037380D01*
X274859523Y-108037380D01*
X274716666Y-108085000D01*
X274621428Y-108180238D01*
X274573809Y-108275476D01*
X274526190Y-108465952D01*
X274526190Y-108608809D01*
X274573809Y-108799285D01*
X274621428Y-108894523D01*
X274716666Y-108989761D01*
X274859523Y-109037380D01*
X275097619Y-109037380D01*
X274335714Y-109132619D02*
X273573809Y-109132619D01*
X273335714Y-108513571D02*
X273002380Y-108513571D01*
X272859523Y-109037380D02*
X273335714Y-109037380D01*
X273335714Y-108037380D01*
X272859523Y-108037380D01*
X271907142Y-109037380D02*
X272478571Y-109037380D01*
X272192857Y-109037380D02*
X272192857Y-108037380D01*
X272288095Y-108180238D01*
X272383333Y-108275476D01*
X272478571Y-108323095D01*
X270954761Y-109037380D02*
X271526190Y-109037380D01*
X271240476Y-109037380D02*
X271240476Y-108037380D01*
X271335714Y-108180238D01*
X271430952Y-108275476D01*
X271526190Y-108323095D01*
X294147619Y-109037380D02*
X294147619Y-108037380D01*
X293909523Y-108037380D01*
X293766666Y-108085000D01*
X293671428Y-108180238D01*
X293623809Y-108275476D01*
X293576190Y-108465952D01*
X293576190Y-108608809D01*
X293623809Y-108799285D01*
X293671428Y-108894523D01*
X293766666Y-108989761D01*
X293909523Y-109037380D01*
X294147619Y-109037380D01*
X293385714Y-109132619D02*
X292623809Y-109132619D01*
X292385714Y-108513571D02*
X292052380Y-108513571D01*
X291909523Y-109037380D02*
X292385714Y-109037380D01*
X292385714Y-108037380D01*
X291909523Y-108037380D01*
X290957142Y-109037380D02*
X291528571Y-109037380D01*
X291242857Y-109037380D02*
X291242857Y-108037380D01*
X291338095Y-108180238D01*
X291433333Y-108275476D01*
X291528571Y-108323095D01*
X290576190Y-108132619D02*
X290528571Y-108085000D01*
X290433333Y-108037380D01*
X290195238Y-108037380D01*
X290100000Y-108085000D01*
X290052380Y-108132619D01*
X290004761Y-108227857D01*
X290004761Y-108323095D01*
X290052380Y-108465952D01*
X290623809Y-109037380D01*
X290004761Y-109037380D01*
X313197619Y-109037380D02*
X313197619Y-108037380D01*
X312959523Y-108037380D01*
X312816666Y-108085000D01*
X312721428Y-108180238D01*
X312673809Y-108275476D01*
X312626190Y-108465952D01*
X312626190Y-108608809D01*
X312673809Y-108799285D01*
X312721428Y-108894523D01*
X312816666Y-108989761D01*
X312959523Y-109037380D01*
X313197619Y-109037380D01*
X312435714Y-109132619D02*
X311673809Y-109132619D01*
X311435714Y-108513571D02*
X311102380Y-108513571D01*
X310959523Y-109037380D02*
X311435714Y-109037380D01*
X311435714Y-108037380D01*
X310959523Y-108037380D01*
X310007142Y-109037380D02*
X310578571Y-109037380D01*
X310292857Y-109037380D02*
X310292857Y-108037380D01*
X310388095Y-108180238D01*
X310483333Y-108275476D01*
X310578571Y-108323095D01*
X309673809Y-108037380D02*
X309054761Y-108037380D01*
X309388095Y-108418333D01*
X309245238Y-108418333D01*
X309150000Y-108465952D01*
X309102380Y-108513571D01*
X309054761Y-108608809D01*
X309054761Y-108846904D01*
X309102380Y-108942142D01*
X309150000Y-108989761D01*
X309245238Y-109037380D01*
X309530952Y-109037380D01*
X309626190Y-108989761D01*
X309673809Y-108942142D01*
X332247619Y-109037380D02*
X332247619Y-108037380D01*
X332009523Y-108037380D01*
X331866666Y-108085000D01*
X331771428Y-108180238D01*
X331723809Y-108275476D01*
X331676190Y-108465952D01*
X331676190Y-108608809D01*
X331723809Y-108799285D01*
X331771428Y-108894523D01*
X331866666Y-108989761D01*
X332009523Y-109037380D01*
X332247619Y-109037380D01*
X331485714Y-109132619D02*
X330723809Y-109132619D01*
X330485714Y-108513571D02*
X330152380Y-108513571D01*
X330009523Y-109037380D02*
X330485714Y-109037380D01*
X330485714Y-108037380D01*
X330009523Y-108037380D01*
X329057142Y-109037380D02*
X329628571Y-109037380D01*
X329342857Y-109037380D02*
X329342857Y-108037380D01*
X329438095Y-108180238D01*
X329533333Y-108275476D01*
X329628571Y-108323095D01*
X328200000Y-108370714D02*
X328200000Y-109037380D01*
X328438095Y-107989761D02*
X328676190Y-108704047D01*
X328057142Y-108704047D01*
X351297619Y-109037380D02*
X351297619Y-108037380D01*
X351059523Y-108037380D01*
X350916666Y-108085000D01*
X350821428Y-108180238D01*
X350773809Y-108275476D01*
X350726190Y-108465952D01*
X350726190Y-108608809D01*
X350773809Y-108799285D01*
X350821428Y-108894523D01*
X350916666Y-108989761D01*
X351059523Y-109037380D01*
X351297619Y-109037380D01*
X350535714Y-109132619D02*
X349773809Y-109132619D01*
X349535714Y-108513571D02*
X349202380Y-108513571D01*
X349059523Y-109037380D02*
X349535714Y-109037380D01*
X349535714Y-108037380D01*
X349059523Y-108037380D01*
X348107142Y-109037380D02*
X348678571Y-109037380D01*
X348392857Y-109037380D02*
X348392857Y-108037380D01*
X348488095Y-108180238D01*
X348583333Y-108275476D01*
X348678571Y-108323095D01*
X347202380Y-108037380D02*
X347678571Y-108037380D01*
X347726190Y-108513571D01*
X347678571Y-108465952D01*
X347583333Y-108418333D01*
X347345238Y-108418333D01*
X347250000Y-108465952D01*
X347202380Y-108513571D01*
X347154761Y-108608809D01*
X347154761Y-108846904D01*
X347202380Y-108942142D01*
X347250000Y-108989761D01*
X347345238Y-109037380D01*
X347583333Y-109037380D01*
X347678571Y-108989761D01*
X347726190Y-108942142D01*
X370347619Y-109037380D02*
X370347619Y-108037380D01*
X370109523Y-108037380D01*
X369966666Y-108085000D01*
X369871428Y-108180238D01*
X369823809Y-108275476D01*
X369776190Y-108465952D01*
X369776190Y-108608809D01*
X369823809Y-108799285D01*
X369871428Y-108894523D01*
X369966666Y-108989761D01*
X370109523Y-109037380D01*
X370347619Y-109037380D01*
X369585714Y-109132619D02*
X368823809Y-109132619D01*
X368585714Y-108513571D02*
X368252380Y-108513571D01*
X368109523Y-109037380D02*
X368585714Y-109037380D01*
X368585714Y-108037380D01*
X368109523Y-108037380D01*
X367157142Y-109037380D02*
X367728571Y-109037380D01*
X367442857Y-109037380D02*
X367442857Y-108037380D01*
X367538095Y-108180238D01*
X367633333Y-108275476D01*
X367728571Y-108323095D01*
X366300000Y-108037380D02*
X366490476Y-108037380D01*
X366585714Y-108085000D01*
X366633333Y-108132619D01*
X366728571Y-108275476D01*
X366776190Y-108465952D01*
X366776190Y-108846904D01*
X366728571Y-108942142D01*
X366680952Y-108989761D01*
X366585714Y-109037380D01*
X366395238Y-109037380D01*
X366300000Y-108989761D01*
X366252380Y-108942142D01*
X366204761Y-108846904D01*
X366204761Y-108608809D01*
X366252380Y-108513571D01*
X366300000Y-108465952D01*
X366395238Y-108418333D01*
X366585714Y-108418333D01*
X366680952Y-108465952D01*
X366728571Y-108513571D01*
X366776190Y-108608809D01*
X173053333Y-146137380D02*
X173053333Y-146851666D01*
X173100952Y-146994523D01*
X173196190Y-147089761D01*
X173339047Y-147137380D01*
X173434285Y-147137380D01*
X172624761Y-146232619D02*
X172577142Y-146185000D01*
X172481904Y-146137380D01*
X172243809Y-146137380D01*
X172148571Y-146185000D01*
X172100952Y-146232619D01*
X172053333Y-146327857D01*
X172053333Y-146423095D01*
X172100952Y-146565952D01*
X172672380Y-147137380D01*
X172053333Y-147137380D01*
X77457380Y-110958333D02*
X76981190Y-110625000D01*
X77457380Y-110386904D02*
X76457380Y-110386904D01*
X76457380Y-110767857D01*
X76505000Y-110863095D01*
X76552619Y-110910714D01*
X76647857Y-110958333D01*
X76790714Y-110958333D01*
X76885952Y-110910714D01*
X76933571Y-110863095D01*
X76981190Y-110767857D01*
X76981190Y-110386904D01*
X77457380Y-111910714D02*
X77457380Y-111339285D01*
X77457380Y-111625000D02*
X76457380Y-111625000D01*
X76600238Y-111529761D01*
X76695476Y-111434523D01*
X76743095Y-111339285D01*
X115557380Y-110958333D02*
X115081190Y-110625000D01*
X115557380Y-110386904D02*
X114557380Y-110386904D01*
X114557380Y-110767857D01*
X114605000Y-110863095D01*
X114652619Y-110910714D01*
X114747857Y-110958333D01*
X114890714Y-110958333D01*
X114985952Y-110910714D01*
X115033571Y-110863095D01*
X115081190Y-110767857D01*
X115081190Y-110386904D01*
X114652619Y-111339285D02*
X114605000Y-111386904D01*
X114557380Y-111482142D01*
X114557380Y-111720238D01*
X114605000Y-111815476D01*
X114652619Y-111863095D01*
X114747857Y-111910714D01*
X114843095Y-111910714D01*
X114985952Y-111863095D01*
X115557380Y-111291666D01*
X115557380Y-111910714D01*
X153657380Y-110958333D02*
X153181190Y-110625000D01*
X153657380Y-110386904D02*
X152657380Y-110386904D01*
X152657380Y-110767857D01*
X152705000Y-110863095D01*
X152752619Y-110910714D01*
X152847857Y-110958333D01*
X152990714Y-110958333D01*
X153085952Y-110910714D01*
X153133571Y-110863095D01*
X153181190Y-110767857D01*
X153181190Y-110386904D01*
X152657380Y-111291666D02*
X152657380Y-111910714D01*
X153038333Y-111577380D01*
X153038333Y-111720238D01*
X153085952Y-111815476D01*
X153133571Y-111863095D01*
X153228809Y-111910714D01*
X153466904Y-111910714D01*
X153562142Y-111863095D01*
X153609761Y-111815476D01*
X153657380Y-111720238D01*
X153657380Y-111434523D01*
X153609761Y-111339285D01*
X153562142Y-111291666D01*
X203017380Y-110958333D02*
X202541190Y-110625000D01*
X203017380Y-110386904D02*
X202017380Y-110386904D01*
X202017380Y-110767857D01*
X202065000Y-110863095D01*
X202112619Y-110910714D01*
X202207857Y-110958333D01*
X202350714Y-110958333D01*
X202445952Y-110910714D01*
X202493571Y-110863095D01*
X202541190Y-110767857D01*
X202541190Y-110386904D01*
X202350714Y-111815476D02*
X203017380Y-111815476D01*
X201969761Y-111577380D02*
X202684047Y-111339285D01*
X202684047Y-111958333D01*
X236207380Y-110958333D02*
X235731190Y-110625000D01*
X236207380Y-110386904D02*
X235207380Y-110386904D01*
X235207380Y-110767857D01*
X235255000Y-110863095D01*
X235302619Y-110910714D01*
X235397857Y-110958333D01*
X235540714Y-110958333D01*
X235635952Y-110910714D01*
X235683571Y-110863095D01*
X235731190Y-110767857D01*
X235731190Y-110386904D01*
X235207380Y-111863095D02*
X235207380Y-111386904D01*
X235683571Y-111339285D01*
X235635952Y-111386904D01*
X235588333Y-111482142D01*
X235588333Y-111720238D01*
X235635952Y-111815476D01*
X235683571Y-111863095D01*
X235778809Y-111910714D01*
X236016904Y-111910714D01*
X236112142Y-111863095D01*
X236159761Y-111815476D01*
X236207380Y-111720238D01*
X236207380Y-111482142D01*
X236159761Y-111386904D01*
X236112142Y-111339285D01*
X280657380Y-110958333D02*
X280181190Y-110625000D01*
X280657380Y-110386904D02*
X279657380Y-110386904D01*
X279657380Y-110767857D01*
X279705000Y-110863095D01*
X279752619Y-110910714D01*
X279847857Y-110958333D01*
X279990714Y-110958333D01*
X280085952Y-110910714D01*
X280133571Y-110863095D01*
X280181190Y-110767857D01*
X280181190Y-110386904D01*
X279657380Y-111815476D02*
X279657380Y-111625000D01*
X279705000Y-111529761D01*
X279752619Y-111482142D01*
X279895476Y-111386904D01*
X280085952Y-111339285D01*
X280466904Y-111339285D01*
X280562142Y-111386904D01*
X280609761Y-111434523D01*
X280657380Y-111529761D01*
X280657380Y-111720238D01*
X280609761Y-111815476D01*
X280562142Y-111863095D01*
X280466904Y-111910714D01*
X280228809Y-111910714D01*
X280133571Y-111863095D01*
X280085952Y-111815476D01*
X280038333Y-111720238D01*
X280038333Y-111529761D01*
X280085952Y-111434523D01*
X280133571Y-111386904D01*
X280228809Y-111339285D01*
X318757380Y-110958333D02*
X318281190Y-110625000D01*
X318757380Y-110386904D02*
X317757380Y-110386904D01*
X317757380Y-110767857D01*
X317805000Y-110863095D01*
X317852619Y-110910714D01*
X317947857Y-110958333D01*
X318090714Y-110958333D01*
X318185952Y-110910714D01*
X318233571Y-110863095D01*
X318281190Y-110767857D01*
X318281190Y-110386904D01*
X317757380Y-111291666D02*
X317757380Y-111958333D01*
X318757380Y-111529761D01*
X356857380Y-110958333D02*
X356381190Y-110625000D01*
X356857380Y-110386904D02*
X355857380Y-110386904D01*
X355857380Y-110767857D01*
X355905000Y-110863095D01*
X355952619Y-110910714D01*
X356047857Y-110958333D01*
X356190714Y-110958333D01*
X356285952Y-110910714D01*
X356333571Y-110863095D01*
X356381190Y-110767857D01*
X356381190Y-110386904D01*
X356285952Y-111529761D02*
X356238333Y-111434523D01*
X356190714Y-111386904D01*
X356095476Y-111339285D01*
X356047857Y-111339285D01*
X355952619Y-111386904D01*
X355905000Y-111434523D01*
X355857380Y-111529761D01*
X355857380Y-111720238D01*
X355905000Y-111815476D01*
X355952619Y-111863095D01*
X356047857Y-111910714D01*
X356095476Y-111910714D01*
X356190714Y-111863095D01*
X356238333Y-111815476D01*
X356285952Y-111720238D01*
X356285952Y-111529761D01*
X356333571Y-111434523D01*
X356381190Y-111386904D01*
X356476428Y-111339285D01*
X356666904Y-111339285D01*
X356762142Y-111386904D01*
X356809761Y-111434523D01*
X356857380Y-111529761D01*
X356857380Y-111720238D01*
X356809761Y-111815476D01*
X356762142Y-111863095D01*
X356666904Y-111910714D01*
X356476428Y-111910714D01*
X356381190Y-111863095D01*
X356333571Y-111815476D01*
X356285952Y-111720238D01*
X174442380Y-101433333D02*
X173966190Y-101100000D01*
X174442380Y-100861904D02*
X173442380Y-100861904D01*
X173442380Y-101242857D01*
X173490000Y-101338095D01*
X173537619Y-101385714D01*
X173632857Y-101433333D01*
X173775714Y-101433333D01*
X173870952Y-101385714D01*
X173918571Y-101338095D01*
X173966190Y-101242857D01*
X173966190Y-100861904D01*
X174442380Y-101909523D02*
X174442380Y-102100000D01*
X174394761Y-102195238D01*
X174347142Y-102242857D01*
X174204285Y-102338095D01*
X174013809Y-102385714D01*
X173632857Y-102385714D01*
X173537619Y-102338095D01*
X173490000Y-102290476D01*
X173442380Y-102195238D01*
X173442380Y-102004761D01*
X173490000Y-101909523D01*
X173537619Y-101861904D01*
X173632857Y-101814285D01*
X173870952Y-101814285D01*
X173966190Y-101861904D01*
X174013809Y-101909523D01*
X174061428Y-102004761D01*
X174061428Y-102195238D01*
X174013809Y-102290476D01*
X173966190Y-102338095D01*
X173870952Y-102385714D01*
X179133333Y-141374761D02*
X178990476Y-141422380D01*
X178752380Y-141422380D01*
X178657142Y-141374761D01*
X178609523Y-141327142D01*
X178561904Y-141231904D01*
X178561904Y-141136666D01*
X178609523Y-141041428D01*
X178657142Y-140993809D01*
X178752380Y-140946190D01*
X178942857Y-140898571D01*
X179038095Y-140850952D01*
X179085714Y-140803333D01*
X179133333Y-140708095D01*
X179133333Y-140612857D01*
X179085714Y-140517619D01*
X179038095Y-140470000D01*
X178942857Y-140422380D01*
X178704761Y-140422380D01*
X178561904Y-140470000D01*
X178228571Y-140422380D02*
X177990476Y-141422380D01*
X177800000Y-140708095D01*
X177609523Y-141422380D01*
X177371428Y-140422380D01*
X176466666Y-141422380D02*
X177038095Y-141422380D01*
X176752380Y-141422380D02*
X176752380Y-140422380D01*
X176847619Y-140565238D01*
X176942857Y-140660476D01*
X177038095Y-140708095D01*
X178561904Y-109307380D02*
X178561904Y-110116904D01*
X178514285Y-110212142D01*
X178466666Y-110259761D01*
X178371428Y-110307380D01*
X178180952Y-110307380D01*
X178085714Y-110259761D01*
X178038095Y-110212142D01*
X177990476Y-110116904D01*
X177990476Y-109307380D01*
X176990476Y-110307380D02*
X177561904Y-110307380D01*
X177276190Y-110307380D02*
X177276190Y-109307380D01*
X177371428Y-109450238D01*
X177466666Y-109545476D01*
X177561904Y-109593095D01*
M02*
